solid GarageDoorMonitor
facet normal 0.23763156413175182 -0.9713553622275923 0.0
  outer loop
    vertex 158.87969371206694 67.54524338232098 5.389286298457211
    vertex 158.23307839677406 67.38705595191217 3.389286298457214
    vertex 158.87969371206694 67.54524338232098 3.389286298457214
  endloop
endfacet
facet normal 0.23763156413175182 -0.9713553622275923 0.0
  outer loop
    vertex 158.23307839677406 67.38705595191217 3.389286298457214
    vertex 158.87969371206694 67.54524338232098 5.389286298457211
    vertex 158.23307839677406 67.38705595191217 5.389286298457211
  endloop
endfacet
facet normal -1.0 -0.0 -0.0
  outer loop
    vertex 166.65716246697508 99.01038419687305 35.38928629845722
    vertex 166.65716246697508 31.01038419687305 5.389286298457214
    vertex 166.65716246697508 31.01038419687305 35.38928629845722
  endloop
endfacet
facet normal -1.0 -0.0 -0.0
  outer loop
    vertex 166.65716246697508 31.01038419687305 5.389286298457214
    vertex 166.65716246697508 99.01038419687305 35.38928629845722
    vertex 166.65716246697508 99.01038419687305 5.389286298457214
  endloop
endfacet
facet normal 0.0 1.0 0.0
  outer loop
    vertex 107.65716246697507 31.01038419687305 35.38928629845722
    vertex 166.65716246697508 31.01038419687305 5.389286298457214
    vertex 107.65716246697507 31.01038419687305 5.389286298457214
  endloop
endfacet
facet normal 0.0 1.0 0.0
  outer loop
    vertex 166.65716246697508 31.01038419687305 5.389286298457214
    vertex 107.65716246697507 31.01038419687305 35.38928629845722
    vertex 166.65716246697508 31.01038419687305 35.38928629845722
  endloop
endfacet
facet normal 0.0 -1.0 0.0
  outer loop
    vertex 166.65716246697508 99.01038419687305 35.38928629845722
    vertex 107.65716246697507 99.01038419687305 5.389286298457214
    vertex 166.65716246697508 99.01038419687305 5.389286298457214
  endloop
endfacet
facet normal 0.0 -1.0 0.0
  outer loop
    vertex 107.65716246697507 99.01038419687305 5.389286298457214
    vertex 166.65716246697508 99.01038419687305 35.38928629845722
    vertex 107.65716246697507 99.01038419687305 35.38928629845722
  endloop
endfacet
facet normal 1.0 0.0 0.0
  outer loop
    vertex 168.65716246697508 101.01038419687305 4.889286298457216
    vertex 168.65716246697508 29.01038419687305 35.38928629845723
    vertex 168.65716246697508 29.01038419687305 4.889286298457216
  endloop
endfacet
facet normal 1.0 0.0 0.0
  outer loop
    vertex 168.65716246697508 29.01038419687305 35.38928629845723
    vertex 168.65716246697508 101.01038419687305 4.889286298457216
    vertex 168.65716246697508 101.01038419687305 35.38928629845723
  endloop
endfacet
facet normal 0.0 -1.0 0.0
  outer loop
    vertex 168.65716246697508 29.01038419687305 35.38928629845723
    vertex 105.65716246697507 29.01038419687305 4.889286298457216
    vertex 168.65716246697508 29.01038419687305 4.889286298457216
  endloop
endfacet
facet normal 0.0 -1.0 0.0
  outer loop
    vertex 105.65716246697507 29.01038419687305 4.889286298457216
    vertex 168.65716246697508 29.01038419687305 35.38928629845723
    vertex 105.65716246697507 29.01038419687305 35.38928629845723
  endloop
endfacet
facet normal -1.0 0.0 0.0
  outer loop
    vertex 105.65716246697507 101.01038419687305 35.38928629845723
    vertex 105.65716246697507 29.01038419687305 4.889286298457216
    vertex 105.65716246697507 29.01038419687305 35.38928629845723
  endloop
endfacet
facet normal -1.0 0.0 0.0
  outer loop
    vertex 105.65716246697507 29.01038419687305 4.889286298457216
    vertex 105.65716246697507 101.01038419687305 35.38928629845723
    vertex 105.65716246697507 101.01038419687305 4.889286298457216
  endloop
endfacet
facet normal 0.0 1.0 0.0
  outer loop
    vertex 105.65716246697507 101.01038419687305 35.38928629845723
    vertex 168.65716246697508 101.01038419687305 4.889286298457216
    vertex 105.65716246697507 101.01038419687305 4.889286298457216
  endloop
endfacet
facet normal 0.0 1.0 0.0
  outer loop
    vertex 168.65716246697508 101.01038419687305 4.889286298457216
    vertex 105.65716246697507 101.01038419687305 35.38928629845723
    vertex 168.65716246697508 101.01038419687305 35.38928629845723
  endloop
endfacet
facet normal 0.0 0.0 1.0
  outer loop
    vertex 166.65716246697508 31.01038419687305 5.389286298457214
    vertex 107.65716246697507 99.01038419687305 5.389286298457214
    vertex 107.65716246697507 31.01038419687305 5.389286298457214
  endloop
endfacet
facet normal 0.0 0.0 1.0
  outer loop
    vertex 107.65716246697507 99.01038419687305 5.389286298457214
    vertex 166.65716246697508 31.01038419687305 5.389286298457214
    vertex 156.78049071193593 64.08630012667204 5.389286298457211
  endloop
endfacet
facet normal 0.0 0.0 1.0
  outer loop
    vertex 107.65716246697507 99.01038419687305 5.389286298457214
    vertex 156.78049071193593 64.08630012667204 5.389286298457211
    vertex 156.62230328152714 64.73291544196493 5.389286298457211
  endloop
endfacet
facet normal 0.0 0.0 1.0
  outer loop
    vertex 156.78049071193593 64.08630012667204 5.389286298457211
    vertex 166.65716246697508 31.01038419687305 5.389286298457214
    vertex 157.1006443948149 63.50265961364221 5.389286298457211
  endloop
endfacet
facet normal 0.0 0.0 1.0
  outer loop
    vertex 157.1006443948149 63.50265961364221 5.389286298457211
    vertex 166.65716246697508 31.01038419687305 5.389286298457214
    vertex 157.56094638575473 63.021768039326886 5.389286298457211
  endloop
endfacet
facet normal 0.0 0.0 1.0
  outer loop
    vertex 157.56094638575473 63.021768039326886 5.389286298457211
    vertex 166.65716246697508 31.01038419687305 5.389286298457214
    vertex 158.13002786475798 62.67639736980475 5.389286298457211
  endloop
endfacet
facet normal 0.0 0.0 1.0
  outer loop
    vertex 158.13002786475798 62.67639736980475 5.389286298457211
    vertex 166.65716246697508 31.01038419687305 5.389286298457214
    vertex 158.7691068694821 62.49008404545171 5.389286298457211
  endloop
endfacet
facet normal 0.0 0.0 1.0
  outer loop
    vertex 158.7691068694821 62.49008404545171 5.389286298457211
    vertex 166.65716246697508 31.01038419687305 5.389286298457214
    vertex 159.4346312218832 62.47552501142512 5.389286298457211
  endloop
endfacet
facet normal 0.0 0.0 1.0
  outer loop
    vertex 159.4346312218832 62.47552501142512 5.389286298457211
    vertex 166.65716246697508 31.01038419687305 5.389286298457214
    vertex 160.08124653717607 62.63371244183392 5.389286298457211
  endloop
endfacet
facet normal 0.0 0.0 1.0
  outer loop
    vertex 160.08124653717607 62.63371244183392 5.389286298457211
    vertex 166.65716246697508 31.01038419687305 5.389286298457214
    vertex 160.6648870502059 62.95386612471287 5.389286298457211
  endloop
endfacet
facet normal 0.0 0.0 1.0
  outer loop
    vertex 160.6648870502059 62.95386612471287 5.389286298457211
    vertex 166.65716246697508 31.01038419687305 5.389286298457214
    vertex 161.14577862452123 63.41416811565272 5.389286298457211
  endloop
endfacet
facet normal 0.0 0.0 1.0
  outer loop
    vertex 161.14577862452123 63.41416811565272 5.389286298457211
    vertex 166.65716246697508 31.01038419687305 5.389286298457214
    vertex 161.49114929404334 63.983249594655945 5.389286298457211
  endloop
endfacet
facet normal 0.0 0.0 1.0
  outer loop
    vertex 161.49114929404334 63.983249594655945 5.389286298457211
    vertex 166.65716246697508 31.01038419687305 5.389286298457214
    vertex 161.6774626183964 64.62232859938008 5.389286298457211
  endloop
endfacet
facet normal 0.0 0.0 1.0
  outer loop
    vertex 161.6774626183964 64.62232859938008 5.389286298457211
    vertex 166.65716246697508 31.01038419687305 5.389286298457214
    vertex 161.692021652423 65.28785295178116 5.389286298457211
  endloop
endfacet
facet normal 0.0 0.0 1.0
  outer loop
    vertex 107.65716246697507 99.01038419687305 5.389286298457214
    vertex 156.8231756399068 66.03751879909015 5.389286298457211
    vertex 166.65716246697508 99.01038419687305 5.389286298457214
  endloop
endfacet
facet normal 0.0 0.0 1.0
  outer loop
    vertex 156.8231756399068 66.03751879909015 5.389286298457211
    vertex 107.65716246697507 99.01038419687305 5.389286298457214
    vertex 156.63686231555374 65.39843979436601 5.389286298457211
  endloop
endfacet
facet normal 0.0 0.0 1.0
  outer loop
    vertex 156.63686231555374 65.39843979436601 5.389286298457211
    vertex 107.65716246697507 99.01038419687305 5.389286298457214
    vertex 156.62230328152714 64.73291544196493 5.389286298457211
  endloop
endfacet
facet normal 0.0 0.0 1.0
  outer loop
    vertex 166.65716246697508 99.01038419687305 5.389286298457214
    vertex 156.8231756399068 66.03751879909015 5.389286298457211
    vertex 157.1685463094289 66.60660027809337 5.389286298457211
  endloop
endfacet
facet normal 0.0 0.0 1.0
  outer loop
    vertex 166.65716246697508 99.01038419687305 5.389286298457214
    vertex 157.1685463094289 66.60660027809337 5.389286298457211
    vertex 157.64943788374424 67.06690226903322 5.389286298457211
  endloop
endfacet
facet normal 0.0 0.0 1.0
  outer loop
    vertex 166.65716246697508 99.01038419687305 5.389286298457214
    vertex 157.64943788374424 67.06690226903322 5.389286298457211
    vertex 158.23307839677406 67.38705595191217 5.389286298457211
  endloop
endfacet
facet normal 0.0 0.0 1.0
  outer loop
    vertex 166.65716246697508 99.01038419687305 5.389286298457214
    vertex 158.23307839677406 67.38705595191217 5.389286298457211
    vertex 158.87969371206694 67.54524338232098 5.389286298457211
  endloop
endfacet
facet normal 0.0 0.0 1.0
  outer loop
    vertex 166.65716246697508 99.01038419687305 5.389286298457214
    vertex 158.87969371206694 67.54524338232098 5.389286298457211
    vertex 159.54521806446803 67.53068434829439 5.389286298457211
  endloop
endfacet
facet normal 0.0 0.0 1.0
  outer loop
    vertex 166.65716246697508 99.01038419687305 5.389286298457214
    vertex 159.54521806446803 67.53068434829439 5.389286298457211
    vertex 160.18429706919216 67.34437102394135 5.389286298457211
  endloop
endfacet
facet normal 0.0 0.0 1.0
  outer loop
    vertex 166.65716246697508 99.01038419687305 5.389286298457214
    vertex 160.18429706919216 67.34437102394135 5.389286298457211
    vertex 160.7533785481954 66.99900035441921 5.389286298457211
  endloop
endfacet
facet normal 0.0 0.0 1.0
  outer loop
    vertex 166.65716246697508 99.01038419687305 5.389286298457214
    vertex 160.7533785481954 66.99900035441921 5.389286298457211
    vertex 161.21368053913525 66.51810878010387 5.389286298457211
  endloop
endfacet
facet normal 0.0 0.0 1.0
  outer loop
    vertex 166.65716246697508 99.01038419687305 5.389286298457214
    vertex 161.21368053913525 66.51810878010387 5.389286298457211
    vertex 161.5338342220142 65.93446826707405 5.389286298457211
  endloop
endfacet
facet normal 0.0 0.0 1.0
  outer loop
    vertex 166.65716246697508 99.01038419687305 5.389286298457214
    vertex 161.5338342220142 65.93446826707405 5.389286298457211
    vertex 161.692021652423 65.28785295178116 5.389286298457211
  endloop
endfacet
facet normal 0.0 0.0 1.0
  outer loop
    vertex 166.65716246697508 99.01038419687305 5.389286298457214
    vertex 161.692021652423 65.28785295178116 5.389286298457211
    vertex 166.65716246697508 31.01038419687305 5.389286298457214
  endloop
endfacet
facet normal 3.803240058218531e-20 0.13052619222005216 -0.9914448613738103
  outer loop
    vertex 167.54539103462886 99.89861276452683 3.440397559023612
    vertex 107.15716246697507 99.51038419687305 3.389286298457215
    vertex 106.7689338993213 99.89861276452683 3.440397559023612
  endloop
endfacet
facet normal 3.803240058218531e-20 0.13052619222005216 -0.9914448613738103
  outer loop
    vertex 107.15716246697507 99.51038419687305 3.389286298457215
    vertex 167.54539103462886 99.89861276452683 3.440397559023612
    vertex 167.15716246697508 99.51038419687305 3.389286298457215
  endloop
endfacet
facet normal 1.0 0.0 0.0
  outer loop
    vertex 107.65716246697507 99.01038419687305 5.389286298457214
    vertex 107.65716246697507 31.01038419687305 35.38928629845722
    vertex 107.65716246697507 31.01038419687305 5.389286298457214
  endloop
endfacet
facet normal 1.0 0.0 0.0
  outer loop
    vertex 107.65716246697507 31.01038419687305 35.38928629845722
    vertex 107.65716246697507 99.01038419687305 5.389286298457214
    vertex 107.65716246697507 99.01038419687305 35.38928629845722
  endloop
endfacet
facet normal 0.0 0.0 1.0
  outer loop
    vertex 105.65716246697507 29.01038419687305 35.38928629845723
    vertex 107.65716246697507 31.01038419687305 35.38928629845722
    vertex 105.65716246697507 101.01038419687305 35.38928629845723
  endloop
endfacet
facet normal 0.0 0.0 1.0
  outer loop
    vertex 107.65716246697507 31.01038419687305 35.38928629845722
    vertex 105.65716246697507 29.01038419687305 35.38928629845723
    vertex 168.65716246697508 29.01038419687305 35.38928629845723
  endloop
endfacet
facet normal 0.0 0.0 1.0
  outer loop
    vertex 107.65716246697507 31.01038419687305 35.38928629845722
    vertex 168.65716246697508 29.01038419687305 35.38928629845723
    vertex 166.65716246697508 31.01038419687305 35.38928629845722
  endloop
endfacet
facet normal 0.0 0.0 1.0
  outer loop
    vertex 166.65716246697508 31.01038419687305 35.38928629845722
    vertex 168.65716246697508 29.01038419687305 35.38928629845723
    vertex 166.65716246697508 99.01038419687305 35.38928629845722
  endloop
endfacet
facet normal 0.0 0.0 1.0
  outer loop
    vertex 105.65716246697507 101.01038419687305 35.38928629845723
    vertex 107.65716246697507 99.01038419687305 35.38928629845722
    vertex 168.65716246697508 101.01038419687305 35.38928629845723
  endloop
endfacet
facet normal 0.0 0.0 1.0
  outer loop
    vertex 107.65716246697507 99.01038419687305 35.38928629845722
    vertex 105.65716246697507 101.01038419687305 35.38928629845723
    vertex 107.65716246697507 31.01038419687305 35.38928629845722
  endloop
endfacet
facet normal 0.0 0.0 1.0
  outer loop
    vertex 168.65716246697508 101.01038419687305 35.38928629845723
    vertex 107.65716246697507 99.01038419687305 35.38928629845722
    vertex 166.65716246697508 99.01038419687305 35.38928629845722
  endloop
endfacet
facet normal 0.0 0.0 1.0
  outer loop
    vertex 168.65716246697508 101.01038419687305 35.38928629845723
    vertex 166.65716246697508 99.01038419687305 35.38928629845722
    vertex 168.65716246697508 29.01038419687305 35.38928629845723
  endloop
endfacet
facet normal 0.0 0.9914448613738114 -0.1305261922200446
  outer loop
    vertex 105.65716246697507 101.01038419687305 4.889286298457216
    vertex 168.60605120640867 100.95927293630665 4.501057730803434
    vertex 105.70827372754147 100.95927293630665 4.501057730803434
  endloop
endfacet
facet normal 0.0 0.9914448613738114 -0.1305261922200446
  outer loop
    vertex 168.60605120640867 100.95927293630665 4.501057730803434
    vertex 105.65716246697507 101.01038419687305 4.889286298457216
    vertex 168.65716246697508 101.01038419687305 4.889286298457216
  endloop
endfacet
facet normal -4.3387878513605785e-20 0.38268343236508895 -0.9238795325112871
  outer loop
    vertex 167.90716246697508 100.26038419687303 3.5902481927805563
    vertex 106.7689338993213 99.89861276452683 3.440397559023612
    vertex 106.40716246697508 100.26038419687303 3.5902481927805563
  endloop
endfacet
facet normal -4.3387878513605785e-20 0.38268343236508895 -0.9238795325112871
  outer loop
    vertex 106.7689338993213 99.89861276452683 3.440397559023612
    vertex 167.90716246697508 100.26038419687303 3.5902481927805563
    vertex 167.54539103462886 99.89861276452683 3.440397559023612
  endloop
endfacet
facet normal -3.1121510878754083e-34 0.7933533402912478 -0.6087614290087042
  outer loop
    vertex 105.85812436129842 100.8094223025497 4.139286298457215
    vertex 168.2178226387549 100.57104436865288 3.8286261266773933
    vertex 106.09650229519525 100.57104436865288 3.8286261266773933
  endloop
endfacet
facet normal -3.1121510878754083e-34 0.7933533402912478 -0.6087614290087042
  outer loop
    vertex 168.2178226387549 100.57104436865288 3.8286261266773933
    vertex 105.85812436129842 100.8094223025497 4.139286298457215
    vertex 168.4562005726517 100.8094223025497 4.139286298457215
  endloop
endfacet
facet normal 0.0 0.0 -1.0
  outer loop
    vertex 167.15716246697508 99.51038419687305 3.389286298457215
    vertex 107.15716246697507 30.51038419687305 3.389286298457215
    vertex 107.15716246697507 99.51038419687305 3.389286298457215
  endloop
endfacet
facet normal 0.0 0.0 -1.0
  outer loop
    vertex 107.15716246697507 30.51038419687305 3.389286298457215
    vertex 167.15716246697508 99.51038419687305 3.389286298457215
    vertex 156.8231756399068 66.03751879909015 3.389286298457214
  endloop
endfacet
facet normal 0.0 0.0 -1.0
  outer loop
    vertex 107.15716246697507 30.51038419687305 3.389286298457215
    vertex 156.8231756399068 66.03751879909015 3.389286298457214
    vertex 156.63686231555374 65.39843979436601 3.389286298457214
  endloop
endfacet
facet normal 0.0 0.0 -1.0
  outer loop
    vertex 107.15716246697507 30.51038419687305 3.389286298457215
    vertex 156.63686231555374 65.39843979436601 3.389286298457214
    vertex 156.62230328152714 64.73291544196493 3.389286298457214
  endloop
endfacet
facet normal 0.0 0.0 -1.0
  outer loop
    vertex 156.8231756399068 66.03751879909015 3.389286298457214
    vertex 167.15716246697508 99.51038419687305 3.389286298457215
    vertex 157.1685463094289 66.60660027809337 3.389286298457214
  endloop
endfacet
facet normal 0.0 0.0 -1.0
  outer loop
    vertex 157.1685463094289 66.60660027809337 3.389286298457214
    vertex 167.15716246697508 99.51038419687305 3.389286298457215
    vertex 157.64943788374424 67.06690226903322 3.389286298457214
  endloop
endfacet
facet normal 0.0 0.0 -1.0
  outer loop
    vertex 157.64943788374424 67.06690226903322 3.389286298457214
    vertex 167.15716246697508 99.51038419687305 3.389286298457215
    vertex 158.23307839677406 67.38705595191217 3.389286298457214
  endloop
endfacet
facet normal 0.0 0.0 -1.0
  outer loop
    vertex 158.23307839677406 67.38705595191217 3.389286298457214
    vertex 167.15716246697508 99.51038419687305 3.389286298457215
    vertex 158.87969371206694 67.54524338232098 3.389286298457214
  endloop
endfacet
facet normal 0.0 0.0 -1.0
  outer loop
    vertex 158.87969371206694 67.54524338232098 3.389286298457214
    vertex 167.15716246697508 99.51038419687305 3.389286298457215
    vertex 159.54521806446803 67.53068434829439 3.389286298457214
  endloop
endfacet
facet normal 0.0 0.0 -1.0
  outer loop
    vertex 159.54521806446803 67.53068434829439 3.389286298457214
    vertex 167.15716246697508 99.51038419687305 3.389286298457215
    vertex 160.18429706919216 67.34437102394135 3.389286298457214
  endloop
endfacet
facet normal 0.0 0.0 -1.0
  outer loop
    vertex 160.18429706919216 67.34437102394135 3.389286298457214
    vertex 167.15716246697508 99.51038419687305 3.389286298457215
    vertex 160.7533785481954 66.99900035441921 3.389286298457214
  endloop
endfacet
facet normal 0.0 0.0 -1.0
  outer loop
    vertex 160.7533785481954 66.99900035441921 3.389286298457214
    vertex 167.15716246697508 99.51038419687305 3.389286298457215
    vertex 161.21368053913525 66.51810878010387 3.389286298457214
  endloop
endfacet
facet normal 0.0 0.0 -1.0
  outer loop
    vertex 161.21368053913525 66.51810878010387 3.389286298457214
    vertex 167.15716246697508 99.51038419687305 3.389286298457215
    vertex 161.5338342220142 65.93446826707405 3.389286298457214
  endloop
endfacet
facet normal 0.0 0.0 -1.0
  outer loop
    vertex 161.5338342220142 65.93446826707405 3.389286298457214
    vertex 167.15716246697508 99.51038419687305 3.389286298457215
    vertex 161.692021652423 65.28785295178116 3.389286298457214
  endloop
endfacet
facet normal 0.0 0.0 -1.0
  outer loop
    vertex 107.15716246697507 30.51038419687305 3.389286298457215
    vertex 156.78049071193593 64.08630012667204 3.389286298457214
    vertex 167.15716246697508 30.51038419687305 3.389286298457215
  endloop
endfacet
facet normal 0.0 0.0 -1.0
  outer loop
    vertex 156.78049071193593 64.08630012667204 3.389286298457214
    vertex 107.15716246697507 30.51038419687305 3.389286298457215
    vertex 156.62230328152714 64.73291544196493 3.389286298457214
  endloop
endfacet
facet normal 0.0 0.0 -1.0
  outer loop
    vertex 167.15716246697508 30.51038419687305 3.389286298457215
    vertex 156.78049071193593 64.08630012667204 3.389286298457214
    vertex 157.1006443948149 63.50265961364221 3.389286298457214
  endloop
endfacet
facet normal 0.0 0.0 -1.0
  outer loop
    vertex 167.15716246697508 30.51038419687305 3.389286298457215
    vertex 157.1006443948149 63.50265961364221 3.389286298457214
    vertex 157.56094638575473 63.021768039326886 3.389286298457214
  endloop
endfacet
facet normal 0.0 0.0 -1.0
  outer loop
    vertex 167.15716246697508 30.51038419687305 3.389286298457215
    vertex 157.56094638575473 63.021768039326886 3.389286298457214
    vertex 158.13002786475798 62.67639736980475 3.389286298457214
  endloop
endfacet
facet normal 0.0 0.0 -1.0
  outer loop
    vertex 167.15716246697508 30.51038419687305 3.389286298457215
    vertex 158.13002786475798 62.67639736980475 3.389286298457214
    vertex 158.7691068694821 62.49008404545171 3.389286298457214
  endloop
endfacet
facet normal 0.0 0.0 -1.0
  outer loop
    vertex 167.15716246697508 30.51038419687305 3.389286298457215
    vertex 158.7691068694821 62.49008404545171 3.389286298457214
    vertex 159.4346312218832 62.47552501142512 3.389286298457214
  endloop
endfacet
facet normal 0.0 0.0 -1.0
  outer loop
    vertex 167.15716246697508 30.51038419687305 3.389286298457215
    vertex 159.4346312218832 62.47552501142512 3.389286298457214
    vertex 160.08124653717607 62.63371244183392 3.389286298457214
  endloop
endfacet
facet normal 0.0 0.0 -1.0
  outer loop
    vertex 167.15716246697508 30.51038419687305 3.389286298457215
    vertex 160.08124653717607 62.63371244183392 3.389286298457214
    vertex 160.6648870502059 62.95386612471287 3.389286298457214
  endloop
endfacet
facet normal 0.0 0.0 -1.0
  outer loop
    vertex 167.15716246697508 30.51038419687305 3.389286298457215
    vertex 160.6648870502059 62.95386612471287 3.389286298457214
    vertex 161.14577862452123 63.41416811565272 3.389286298457214
  endloop
endfacet
facet normal 0.0 0.0 -1.0
  outer loop
    vertex 167.15716246697508 30.51038419687305 3.389286298457215
    vertex 161.14577862452123 63.41416811565272 3.389286298457214
    vertex 161.49114929404334 63.983249594655945 3.389286298457214
  endloop
endfacet
facet normal 0.0 0.0 -1.0
  outer loop
    vertex 167.15716246697508 30.51038419687305 3.389286298457215
    vertex 161.49114929404334 63.983249594655945 3.389286298457214
    vertex 161.6774626183964 64.62232859938008 3.389286298457214
  endloop
endfacet
facet normal 0.0 0.0 -1.0
  outer loop
    vertex 167.15716246697508 30.51038419687305 3.389286298457215
    vertex 161.6774626183964 64.62232859938008 3.389286298457214
    vertex 161.692021652423 65.28785295178116 3.389286298457214
  endloop
endfacet
facet normal 0.0 0.0 -1.0
  outer loop
    vertex 167.15716246697508 30.51038419687305 3.389286298457215
    vertex 161.692021652423 65.28785295178116 3.389286298457214
    vertex 167.15716246697508 99.51038419687305 3.389286298457215
  endloop
endfacet
facet normal 4.314282682068538e-20 0.6087614290087159 -0.7933533402912388
  outer loop
    vertex 168.2178226387549 100.57104436865288 3.8286261266773933
    vertex 106.40716246697508 100.26038419687303 3.5902481927805563
    vertex 106.09650229519525 100.57104436865288 3.8286261266773933
  endloop
endfacet
facet normal 4.314282682068538e-20 0.6087614290087159 -0.7933533402912388
  outer loop
    vertex 106.40716246697508 100.26038419687303 3.5902481927805563
    vertex 168.2178226387549 100.57104436865288 3.8286261266773933
    vertex 167.90716246697508 100.26038419687303 3.5902481927805563
  endloop
endfacet
facet normal 1.0877675769727832e-19 0.9238795325112797 -0.38268343236510666
  outer loop
    vertex 105.70827372754147 100.95927293630665 4.501057730803434
    vertex 168.4562005726517 100.8094223025497 4.139286298457215
    vertex 105.85812436129842 100.8094223025497 4.139286298457215
  endloop
endfacet
facet normal 1.0877675769727832e-19 0.9238795325112797 -0.38268343236510666
  outer loop
    vertex 168.4562005726517 100.8094223025497 4.139286298457215
    vertex 105.70827372754147 100.95927293630665 4.501057730803434
    vertex 168.60605120640867 100.95927293630665 4.501057730803434
  endloop
endfacet
facet normal -0.23763156413175182 0.9713553622275923 0.0
  outer loop
    vertex 159.4346312218832 62.47552501142512 5.389286298457211
    vertex 160.08124653717607 62.63371244183392 3.389286298457214
    vertex 159.4346312218832 62.47552501142512 3.389286298457214
  endloop
endfacet
facet normal -0.23763156413175182 0.9713553622275923 0.0
  outer loop
    vertex 160.08124653717607 62.63371244183392 3.389286298457214
    vertex 159.4346312218832 62.47552501142512 5.389286298457211
    vertex 160.08124653717607 62.63371244183392 5.389286298457211
  endloop
endfacet
facet normal -0.4809397322432932 0.8767536563652013 0.0
  outer loop
    vertex 160.08124653717607 62.63371244183392 5.389286298457211
    vertex 160.6648870502059 62.95386612471287 3.389286298457214
    vertex 160.08124653717607 62.63371244183392 3.389286298457214
  endloop
endfacet
facet normal -0.4809397322432932 0.8767536563652013 0.0
  outer loop
    vertex 160.6648870502059 62.95386612471287 3.389286298457214
    vertex 160.08124653717607 62.63371244183392 5.389286298457211
    vertex 160.6648870502059 62.95386612471287 5.389286298457211
  endloop
endfacet
facet normal 0.2798827098346654 0.960034201857207 0.0
  outer loop
    vertex 158.13002786475798 62.67639736980475 5.389286298457211
    vertex 158.7691068694821 62.49008404545171 3.389286298457214
    vertex 158.13002786475798 62.67639736980475 3.389286298457214
  endloop
endfacet
facet normal 0.2798827098346654 0.960034201857207 0.0
  outer loop
    vertex 158.7691068694821 62.49008404545171 3.389286298457214
    vertex 158.13002786475798 62.67639736980475 5.389286298457211
    vertex 158.7691068694821 62.49008404545171 5.389286298457211
  endloop
endfacet
facet normal -0.8548828539945799 0.5188210731515074 0.0
  outer loop
    vertex 161.49114929404334 63.983249594655945 5.389286298457211
    vertex 161.14577862452123 63.41416811565272 3.389286298457214
    vertex 161.14577862452123 63.41416811565272 5.389286298457211
  endloop
endfacet
facet normal -0.8548828539945799 0.5188210731515074 0.0
  outer loop
    vertex 161.14577862452123 63.41416811565272 3.389286298457214
    vertex 161.49114929404334 63.983249594655945 5.389286298457211
    vertex 161.49114929404334 63.983249594655945 3.389286298457214
  endloop
endfacet
facet normal -0.2798827098346654 -0.960034201857207 -0.0
  outer loop
    vertex 160.18429706919216 67.34437102394135 5.389286298457211
    vertex 159.54521806446803 67.53068434829439 3.389286298457214
    vertex 160.18429706919216 67.34437102394135 3.389286298457214
  endloop
endfacet
facet normal -0.2798827098346654 -0.960034201857207 -0.0
  outer loop
    vertex 159.54521806446803 67.53068434829439 3.389286298457214
    vertex 160.18429706919216 67.34437102394135 5.389286298457211
    vertex 159.54521806446803 67.53068434829439 5.389286298457211
  endloop
endfacet
facet normal -0.021870802370615477 -0.9997608053948032 -0.0
  outer loop
    vertex 159.54521806446803 67.53068434829439 5.389286298457211
    vertex 158.87969371206694 67.54524338232098 3.389286298457214
    vertex 159.54521806446803 67.53068434829439 3.389286298457214
  endloop
endfacet
facet normal -0.021870802370615477 -0.9997608053948032 -0.0
  outer loop
    vertex 158.87969371206694 67.54524338232098 3.389286298457214
    vertex 159.54521806446803 67.53068434829439 5.389286298457211
    vertex 158.87969371206694 67.54524338232098 5.389286298457211
  endloop
endfacet
facet normal 0.6914726523929258 -0.7224026377254531 0.0
  outer loop
    vertex 157.64943788374424 67.06690226903322 5.389286298457211
    vertex 157.1685463094289 66.60660027809337 3.389286298457214
    vertex 157.64943788374424 67.06690226903322 3.389286298457214
  endloop
endfacet
facet normal 0.6914726523929258 -0.7224026377254531 0.0
  outer loop
    vertex 157.1685463094289 66.60660027809337 3.389286298457214
    vertex 157.64943788374424 67.06690226903322 5.389286298457211
    vertex 157.1685463094289 66.60660027809337 5.389286298457211
  endloop
endfacet
facet normal 0.5188210731515074 0.8548828539945799 0.0
  outer loop
    vertex 157.56094638575473 63.021768039326886 5.389286298457211
    vertex 158.13002786475798 62.67639736980475 3.389286298457214
    vertex 157.56094638575473 63.021768039326886 3.389286298457214
  endloop
endfacet
facet normal 0.5188210731515074 0.8548828539945799 0.0
  outer loop
    vertex 158.13002786475798 62.67639736980475 3.389286298457214
    vertex 157.56094638575473 63.021768039326886 5.389286298457211
    vertex 158.13002786475798 62.67639736980475 5.389286298457211
  endloop
endfacet
facet normal 0.8548828539945799 -0.5188210731515074 0.0
  outer loop
    vertex 157.1685463094289 66.60660027809337 3.389286298457214
    vertex 156.8231756399068 66.03751879909015 5.389286298457211
    vertex 156.8231756399068 66.03751879909015 3.389286298457214
  endloop
endfacet
facet normal 0.8548828539945799 -0.5188210731515074 0.0
  outer loop
    vertex 156.8231756399068 66.03751879909015 5.389286298457211
    vertex 157.1685463094289 66.60660027809337 3.389286298457214
    vertex 157.1685463094289 66.60660027809337 5.389286298457211
  endloop
endfacet
facet normal -0.5188210731515074 -0.8548828539945799 -0.0
  outer loop
    vertex 160.7533785481954 66.99900035441921 5.389286298457211
    vertex 160.18429706919216 67.34437102394135 3.389286298457214
    vertex 160.7533785481954 66.99900035441921 3.389286298457214
  endloop
endfacet
facet normal -0.5188210731515074 -0.8548828539945799 -0.0
  outer loop
    vertex 160.18429706919216 67.34437102394135 3.389286298457214
    vertex 160.7533785481954 66.99900035441921 5.389286298457211
    vertex 160.18429706919216 67.34437102394135 5.389286298457211
  endloop
endfacet
facet normal -0.8767536563652013 -0.4809397322432932 -0.0
  outer loop
    vertex 161.21368053913525 66.51810878010387 5.389286298457211
    vertex 161.5338342220142 65.93446826707405 3.389286298457214
    vertex 161.5338342220142 65.93446826707405 5.389286298457211
  endloop
endfacet
facet normal -0.8767536563652013 -0.4809397322432932 -0.0
  outer loop
    vertex 161.5338342220142 65.93446826707405 3.389286298457214
    vertex 161.21368053913525 66.51810878010387 5.389286298457211
    vertex 161.21368053913525 66.51810878010387 3.389286298457214
  endloop
endfacet
facet normal 0.9713553622275963 0.23763156413173586 0.0
  outer loop
    vertex 156.62230328152714 64.73291544196493 3.389286298457214
    vertex 156.78049071193593 64.08630012667204 5.389286298457211
    vertex 156.78049071193593 64.08630012667204 3.389286298457214
  endloop
endfacet
facet normal 0.9713553622275963 0.23763156413173586 0.0
  outer loop
    vertex 156.78049071193593 64.08630012667204 5.389286298457211
    vertex 156.62230328152714 64.73291544196493 3.389286298457214
    vertex 156.62230328152714 64.73291544196493 5.389286298457211
  endloop
endfacet
facet normal -0.9713553622275963 -0.23763156413173586 -0.0
  outer loop
    vertex 161.5338342220142 65.93446826707405 5.389286298457211
    vertex 161.692021652423 65.28785295178116 3.389286298457214
    vertex 161.692021652423 65.28785295178116 5.389286298457211
  endloop
endfacet
facet normal -0.9713553622275963 -0.23763156413173586 -0.0
  outer loop
    vertex 161.692021652423 65.28785295178116 3.389286298457214
    vertex 161.5338342220142 65.93446826707405 5.389286298457211
    vertex 161.5338342220142 65.93446826707405 3.389286298457214
  endloop
endfacet
facet normal 0.9997608053948032 -0.021870802370615477 0.0
  outer loop
    vertex 156.63686231555374 65.39843979436601 3.389286298457214
    vertex 156.62230328152714 64.73291544196493 5.389286298457211
    vertex 156.62230328152714 64.73291544196493 3.389286298457214
  endloop
endfacet
facet normal 0.9997608053948032 -0.021870802370615477 0.0
  outer loop
    vertex 156.62230328152714 64.73291544196493 5.389286298457211
    vertex 156.63686231555374 65.39843979436601 3.389286298457214
    vertex 156.63686231555374 65.39843979436601 5.389286298457211
  endloop
endfacet
facet normal -0.7224026377254528 -0.6914726523929261 -0.0
  outer loop
    vertex 160.7533785481954 66.99900035441921 5.389286298457211
    vertex 161.21368053913525 66.51810878010387 3.389286298457214
    vertex 161.21368053913525 66.51810878010387 5.389286298457211
  endloop
endfacet
facet normal -0.7224026377254528 -0.6914726523929261 -0.0
  outer loop
    vertex 161.21368053913525 66.51810878010387 3.389286298457214
    vertex 160.7533785481954 66.99900035441921 5.389286298457211
    vertex 160.7533785481954 66.99900035441921 3.389286298457214
  endloop
endfacet
facet normal 0.4809397322432932 -0.8767536563652013 0.0
  outer loop
    vertex 158.23307839677406 67.38705595191217 5.389286298457211
    vertex 157.64943788374424 67.06690226903322 3.389286298457214
    vertex 158.23307839677406 67.38705595191217 3.389286298457214
  endloop
endfacet
facet normal 0.4809397322432932 -0.8767536563652013 0.0
  outer loop
    vertex 157.64943788374424 67.06690226903322 3.389286298457214
    vertex 158.23307839677406 67.38705595191217 5.389286298457211
    vertex 157.64943788374424 67.06690226903322 5.389286298457211
  endloop
endfacet
facet normal 0.876753656365191 0.48093973224331216 0.0
  outer loop
    vertex 156.78049071193593 64.08630012667204 3.389286298457214
    vertex 157.1006443948149 63.50265961364221 5.389286298457211
    vertex 157.1006443948149 63.50265961364221 3.389286298457214
  endloop
endfacet
facet normal 0.876753656365191 0.48093973224331216 0.0
  outer loop
    vertex 157.1006443948149 63.50265961364221 5.389286298457211
    vertex 156.78049071193593 64.08630012667204 3.389286298457214
    vertex 156.78049071193593 64.08630012667204 5.389286298457211
  endloop
endfacet
facet normal -0.9600342018572025 0.279882709834681 0.0
  outer loop
    vertex 161.6774626183964 64.62232859938008 5.389286298457211
    vertex 161.49114929404334 63.983249594655945 3.389286298457214
    vertex 161.49114929404334 63.983249594655945 5.389286298457211
  endloop
endfacet
facet normal -0.9600342018572025 0.279882709834681 0.0
  outer loop
    vertex 161.49114929404334 63.983249594655945 3.389286298457214
    vertex 161.6774626183964 64.62232859938008 5.389286298457211
    vertex 161.6774626183964 64.62232859938008 3.389286298457214
  endloop
endfacet
facet normal 0.7224026377254615 0.6914726523929169 0.0
  outer loop
    vertex 157.1006443948149 63.50265961364221 3.389286298457214
    vertex 157.56094638575473 63.021768039326886 5.389286298457211
    vertex 157.56094638575473 63.021768039326886 3.389286298457214
  endloop
endfacet
facet normal 0.7224026377254615 0.6914726523929169 0.0
  outer loop
    vertex 157.56094638575473 63.021768039326886 5.389286298457211
    vertex 157.1006443948149 63.50265961364221 3.389286298457214
    vertex 157.1006443948149 63.50265961364221 5.389286298457211
  endloop
endfacet
facet normal -0.6914726523929258 0.7224026377254531 0.0
  outer loop
    vertex 160.6648870502059 62.95386612471287 5.389286298457211
    vertex 161.14577862452123 63.41416811565272 3.389286298457214
    vertex 160.6648870502059 62.95386612471287 3.389286298457214
  endloop
endfacet
facet normal -0.6914726523929258 0.7224026377254531 0.0
  outer loop
    vertex 161.14577862452123 63.41416811565272 3.389286298457214
    vertex 160.6648870502059 62.95386612471287 5.389286298457211
    vertex 161.14577862452123 63.41416811565272 5.389286298457211
  endloop
endfacet
facet normal -0.9997608053948032 0.021870802370615477 0.0
  outer loop
    vertex 161.692021652423 65.28785295178116 5.389286298457211
    vertex 161.6774626183964 64.62232859938008 3.389286298457214
    vertex 161.6774626183964 64.62232859938008 5.389286298457211
  endloop
endfacet
facet normal -0.9997608053948032 0.021870802370615477 0.0
  outer loop
    vertex 161.6774626183964 64.62232859938008 3.389286298457214
    vertex 161.692021652423 65.28785295178116 5.389286298457211
    vertex 161.692021652423 65.28785295178116 3.389286298457214
  endloop
endfacet
facet normal 0.9600342018572025 -0.279882709834681 0.0
  outer loop
    vertex 156.8231756399068 66.03751879909015 3.389286298457214
    vertex 156.63686231555374 65.39843979436601 5.389286298457211
    vertex 156.63686231555374 65.39843979436601 3.389286298457214
  endloop
endfacet
facet normal 0.9600342018572025 -0.279882709834681 0.0
  outer loop
    vertex 156.63686231555374 65.39843979436601 5.389286298457211
    vertex 156.8231756399068 66.03751879909015 3.389286298457214
    vertex 156.8231756399068 66.03751879909015 5.389286298457211
  endloop
endfacet
facet normal 0.021870802370615477 0.9997608053948032 0.0
  outer loop
    vertex 158.7691068694821 62.49008404545171 5.389286298457211
    vertex 159.4346312218832 62.47552501142512 3.389286298457214
    vertex 158.7691068694821 62.49008404545171 3.389286298457214
  endloop
endfacet
facet normal 0.021870802370615477 0.9997608053948032 0.0
  outer loop
    vertex 159.4346312218832 62.47552501142512 3.389286298457214
    vertex 158.7691068694821 62.49008404545171 5.389286298457211
    vertex 159.4346312218832 62.47552501142512 5.389286298457211
  endloop
endfacet
facet normal 1.0877675769715234e-19 -0.92387953251129 -0.3826834323650822
  outer loop
    vertex 168.60605120640867 29.06149545743945 4.501057730803433
    vertex 105.85812436129842 29.21134609119639 4.139286298457215
    vertex 168.4562005726517 29.21134609119639 4.139286298457215
  endloop
endfacet
facet normal 1.0877675769715234e-19 -0.92387953251129 -0.3826834323650822
  outer loop
    vertex 105.85812436129842 29.21134609119639 4.139286298457215
    vertex 168.60605120640867 29.06149545743945 4.501057730803433
    vertex 105.70827372754147 29.06149545743945 4.501057730803433
  endloop
endfacet
facet normal 8.916144259573615e-20 -0.6087614290087158 -0.7933533402912388
  outer loop
    vertex 106.40716246697508 29.760384196873055 3.5902481927805563
    vertex 168.2178226387549 29.44972402509323 3.8286261266773933
    vertex 106.09650229519525 29.44972402509323 3.8286261266773933
  endloop
endfacet
facet normal 8.916144259573615e-20 -0.6087614290087158 -0.7933533402912388
  outer loop
    vertex 168.2178226387549 29.44972402509323 3.8286261266773933
    vertex 106.40716246697508 29.760384196873055 3.5902481927805563
    vertex 167.90716246697505 29.760384196873055 3.5902481927805563
  endloop
endfacet
facet normal 0.7933533402912477 1.4656825671986616e-18 -0.6087614290087042
  outer loop
    vertex 168.2178226387549 29.44972402509323 3.8286261266773933
    vertex 168.4562005726517 100.8094223025497 4.139286298457215
    vertex 168.4562005726517 29.21134609119639 4.139286298457215
  endloop
endfacet
facet normal 0.7933533402912477 1.4656825671986616e-18 -0.6087614290087042
  outer loop
    vertex 168.4562005726517 100.8094223025497 4.139286298457215
    vertex 168.2178226387549 29.44972402509323 3.8286261266773933
    vertex 168.2178226387549 100.57104436865288 3.8286261266773933
  endloop
endfacet
facet normal 3.112151087875501e-34 -0.7933533402912338 -0.6087614290087223
  outer loop
    vertex 168.4562005726517 29.21134609119639 4.139286298457215
    vertex 106.09650229519525 29.44972402509323 3.8286261266773933
    vertex 168.2178226387549 29.44972402509323 3.8286261266773933
  endloop
endfacet
facet normal 3.112151087875501e-34 -0.7933533402912338 -0.6087614290087223
  outer loop
    vertex 106.09650229519525 29.44972402509323 3.8286261266773933
    vertex 168.4562005726517 29.21134609119639 4.139286298457215
    vertex 105.85812436129842 29.21134609119639 4.139286298457215
  endloop
endfacet
facet normal 0.13052619222005216 1.533083413831268e-21 -0.9914448613738103
  outer loop
    vertex 167.54539103462886 99.89861276452683 3.440397559023612
    vertex 167.15716246697508 30.51038419687305 3.389286298457215
    vertex 167.15716246697508 99.51038419687305 3.389286298457215
  endloop
endfacet
facet normal 0.13052619222005216 1.533083413831268e-21 -0.9914448613738103
  outer loop
    vertex 167.15716246697508 30.51038419687305 3.389286298457215
    vertex 167.54539103462886 99.89861276452683 3.440397559023612
    vertex 167.54539103462886 30.122155629219268 3.440397559023612
  endloop
endfacet
facet normal 0.3826834323650887 -6.072528836514025e-17 -0.9238795325112873
  outer loop
    vertex 167.90716246697508 100.26038419687303 3.5902481927805563
    vertex 167.54539103462886 30.122155629219268 3.440397559023612
    vertex 167.54539103462886 99.89861276452683 3.440397559023612
  endloop
endfacet
facet normal 0.3826834323650887 -6.072528836514025e-17 -0.9238795325112873
  outer loop
    vertex 167.54539103462886 30.122155629219268 3.440397559023612
    vertex 167.90716246697508 100.26038419687303 3.5902481927805563
    vertex 167.90716246697505 29.760384196873055 3.5902481927805563
  endloop
endfacet
facet normal -0.7933533402912477 1.5994757423482918e-18 -0.6087614290087042
  outer loop
    vertex 105.85812436129842 100.8094223025497 4.139286298457215
    vertex 106.09650229519525 29.44972402509323 3.8286261266773933
    vertex 105.85812436129842 29.21134609119639 4.139286298457215
  endloop
endfacet
facet normal -0.7933533402912477 1.5994757423482918e-18 -0.6087614290087042
  outer loop
    vertex 106.09650229519525 29.44972402509323 3.8286261266773933
    vertex 105.85812436129842 100.8094223025497 4.139286298457215
    vertex 106.09650229519525 100.57104436865288 3.8286261266773933
  endloop
endfacet
facet normal 1.3025866638909593e-32 -0.38268343236509356 -0.9238795325112852
  outer loop
    vertex 106.7689338993213 30.122155629219268 3.440397559023612
    vertex 167.90716246697505 29.760384196873055 3.5902481927805563
    vertex 106.40716246697508 29.760384196873055 3.5902481927805563
  endloop
endfacet
facet normal 1.3025866638909593e-32 -0.38268343236509356 -0.9238795325112852
  outer loop
    vertex 167.90716246697505 29.760384196873055 3.5902481927805563
    vertex 106.7689338993213 30.122155629219268 3.440397559023612
    vertex 167.54539103462886 30.122155629219268 3.440397559023612
  endloop
endfacet
facet normal 0.6087614290087158 -9.465920766432482e-17 -0.7933533402912388
  outer loop
    vertex 167.90716246697508 100.26038419687303 3.5902481927805563
    vertex 168.2178226387549 29.44972402509323 3.8286261266773933
    vertex 167.90716246697505 29.760384196873055 3.5902481927805563
  endloop
endfacet
facet normal 0.6087614290087158 -9.465920766432482e-17 -0.7933533402912388
  outer loop
    vertex 168.2178226387549 29.44972402509323 3.8286261266773933
    vertex 167.90716246697508 100.26038419687303 3.5902481927805563
    vertex 168.2178226387549 100.57104436865288 3.8286261266773933
  endloop
endfacet
facet normal 0.9914448613738114 2.8219346841533856e-19 -0.13052619222004455
  outer loop
    vertex 168.60605120640867 29.06149545743945 4.501057730803433
    vertex 168.65716246697508 101.01038419687305 4.889286298457216
    vertex 168.65716246697508 29.01038419687305 4.889286298457216
  endloop
endfacet
facet normal 0.9914448613738114 2.8219346841533856e-19 -0.13052619222004455
  outer loop
    vertex 168.65716246697508 101.01038419687305 4.889286298457216
    vertex 168.60605120640867 29.06149545743945 4.501057730803433
    vertex 168.60605120640867 100.95927293630665 4.501057730803434
  endloop
endfacet
facet normal -0.3826834323650989 1.1740219643666808e-18 -0.923879532511283
  outer loop
    vertex 106.7689338993213 99.89861276452683 3.440397559023612
    vertex 106.40716246697508 29.760384196873055 3.5902481927805563
    vertex 106.40716246697508 100.26038419687303 3.5902481927805563
  endloop
endfacet
facet normal -0.3826834323650989 1.1740219643666808e-18 -0.923879532511283
  outer loop
    vertex 106.40716246697508 29.760384196873055 3.5902481927805563
    vertex 106.7689338993213 99.89861276452683 3.440397559023612
    vertex 106.7689338993213 30.122155629219268 3.440397559023612
  endloop
endfacet
facet normal -0.6087614290087019 1.9478314920681617e-18 -0.7933533402912496
  outer loop
    vertex 106.40716246697508 100.26038419687303 3.5902481927805563
    vertex 106.09650229519525 29.44972402509323 3.8286261266773933
    vertex 106.09650229519525 100.57104436865288 3.8286261266773933
  endloop
endfacet
facet normal -0.6087614290087019 1.9478314920681617e-18 -0.7933533402912496
  outer loop
    vertex 106.09650229519525 29.44972402509323 3.8286261266773933
    vertex 106.40716246697508 100.26038419687303 3.5902481927805563
    vertex 106.40716246697508 29.760384196873055 3.5902481927805563
  endloop
endfacet
facet normal -0.13052619222005216 1.5330834138416154e-21 -0.9914448613738103
  outer loop
    vertex 107.15716246697507 99.51038419687305 3.389286298457215
    vertex 106.7689338993213 30.122155629219268 3.440397559023612
    vertex 106.7689338993213 99.89861276452683 3.440397559023612
  endloop
endfacet
facet normal -0.13052619222005216 1.5330834138416154e-21 -0.9914448613738103
  outer loop
    vertex 106.7689338993213 30.122155629219268 3.440397559023612
    vertex 107.15716246697507 99.51038419687305 3.389286298457215
    vertex 107.15716246697507 30.51038419687305 3.389286298457215
  endloop
endfacet
facet normal -0.9238795325112799 1.2967177717371751e-18 -0.38268343236510666
  outer loop
    vertex 105.70827372754147 100.95927293630665 4.501057730803434
    vertex 105.85812436129842 29.21134609119639 4.139286298457215
    vertex 105.70827372754147 29.06149545743945 4.501057730803433
  endloop
endfacet
facet normal -0.9238795325112799 1.2967177717371751e-18 -0.38268343236510666
  outer loop
    vertex 105.85812436129842 29.21134609119639 4.139286298457215
    vertex 105.70827372754147 100.95927293630665 4.501057730803434
    vertex 105.85812436129842 100.8094223025497 4.139286298457215
  endloop
endfacet
facet normal -0.9914448613738114 3.089868708941664e-19 -0.13052619222004455
  outer loop
    vertex 105.65716246697507 101.01038419687305 4.889286298457216
    vertex 105.70827372754147 29.06149545743945 4.501057730803433
    vertex 105.65716246697507 29.01038419687305 4.889286298457216
  endloop
endfacet
facet normal -0.9914448613738114 3.089868708941664e-19 -0.13052619222004455
  outer loop
    vertex 105.70827372754147 29.06149545743945 4.501057730803433
    vertex 105.65716246697507 101.01038419687305 4.889286298457216
    vertex 105.70827372754147 100.95927293630665 4.501057730803434
  endloop
endfacet
facet normal 0.9238795325112797 1.296717771737175e-18 -0.38268343236510666
  outer loop
    vertex 168.4562005726517 29.21134609119639 4.139286298457215
    vertex 168.60605120640867 100.95927293630665 4.501057730803434
    vertex 168.60605120640867 29.06149545743945 4.501057730803433
  endloop
endfacet
facet normal 0.9238795325112797 1.296717771737175e-18 -0.38268343236510666
  outer loop
    vertex 168.60605120640867 100.95927293630665 4.501057730803434
    vertex 168.4562005726517 29.21134609119639 4.139286298457215
    vertex 168.4562005726517 100.8094223025497 4.139286298457215
  endloop
endfacet
facet normal 3.1834645633299515e-32 -0.9914448613738096 -0.13052619222005865
  outer loop
    vertex 168.65716246697508 29.01038419687305 4.889286298457216
    vertex 105.70827372754147 29.06149545743945 4.501057730803433
    vertex 168.60605120640867 29.06149545743945 4.501057730803433
  endloop
endfacet
facet normal 3.1834645633299515e-32 -0.9914448613738096 -0.13052619222005865
  outer loop
    vertex 105.70827372754147 29.06149545743945 4.501057730803433
    vertex 168.65716246697508 29.01038419687305 4.889286298457216
    vertex 105.65716246697507 29.01038419687305 4.889286298457216
  endloop
endfacet
facet normal 3.8032400582189867e-20 -0.13052619222005032 -0.9914448613738107
  outer loop
    vertex 107.15716246697507 30.51038419687305 3.389286298457215
    vertex 167.54539103462886 30.122155629219268 3.440397559023612
    vertex 106.7689338993213 30.122155629219268 3.440397559023612
  endloop
endfacet
facet normal 3.8032400582189867e-20 -0.13052619222005032 -0.9914448613738107
  outer loop
    vertex 167.54539103462886 30.122155629219268 3.440397559023612
    vertex 107.15716246697507 30.51038419687305 3.389286298457215
    vertex 167.15716246697508 30.51038419687305 3.389286298457215
  endloop
endfacet
endsolid GarageDoorMonitor
