solid Base
facet normal 1.0 0.0 0.0
  outer loop
    vertex 132.4168295684241 70.18075634110625 1.9999999999999998
    vertex 132.4168295684241 1.780756341106236 42.0
    vertex 132.4168295684241 1.780756341106236 1.9999999999999998
  endloop
endfacet
facet normal 1.0 0.0 0.0
  outer loop
    vertex 132.4168295684241 1.780756341106236 42.0
    vertex 132.4168295684241 70.18075634110625 1.9999999999999998
    vertex 132.4168295684241 70.18075634110625 42.0
  endloop
endfacet
facet normal 0.0 -1.0 0.0
  outer loop
    vertex 228.8168295684241 70.18075634110625 42.0
    vertex 132.4168295684241 70.18075634110625 1.9999999999999998
    vertex 228.8168295684241 70.18075634110625 1.9999999999999998
  endloop
endfacet
facet normal 0.0 -1.0 0.0
  outer loop
    vertex 132.4168295684241 70.18075634110625 1.9999999999999998
    vertex 228.8168295684241 70.18075634110625 42.0
    vertex 132.4168295684241 70.18075634110625 42.0
  endloop
endfacet
facet normal 0.0 0.0 1.0
  outer loop
    vertex 130.61682956842412 -0.019243658893763848 42.0
    vertex 132.4168295684241 1.780756341106236 42.0
    vertex 130.61682956842412 71.98075634110624 42.0
  endloop
endfacet
facet normal 0.0 0.0 1.0
  outer loop
    vertex 132.4168295684241 1.780756341106236 42.0
    vertex 130.61682956842412 -0.019243658893763848 42.0
    vertex 230.61682956842412 -0.019243658893763848 42.0
  endloop
endfacet
facet normal 0.0 0.0 1.0
  outer loop
    vertex 132.4168295684241 1.780756341106236 42.0
    vertex 230.61682956842412 -0.019243658893763848 42.0
    vertex 228.8168295684241 1.780756341106236 42.0
  endloop
endfacet
facet normal 0.0 0.0 1.0
  outer loop
    vertex 228.8168295684241 1.780756341106236 42.0
    vertex 230.61682956842412 -0.019243658893763848 42.0
    vertex 228.8168295684241 70.18075634110625 42.0
  endloop
endfacet
facet normal 0.0 0.0 1.0
  outer loop
    vertex 130.61682956842412 71.98075634110624 42.0
    vertex 132.4168295684241 70.18075634110625 42.0
    vertex 230.61682956842412 71.98075634110624 42.0
  endloop
endfacet
facet normal 0.0 0.0 1.0
  outer loop
    vertex 132.4168295684241 70.18075634110625 42.0
    vertex 130.61682956842412 71.98075634110624 42.0
    vertex 132.4168295684241 1.780756341106236 42.0
  endloop
endfacet
facet normal 0.0 0.0 1.0
  outer loop
    vertex 230.61682956842412 71.98075634110624 42.0
    vertex 132.4168295684241 70.18075634110625 42.0
    vertex 228.8168295684241 70.18075634110625 42.0
  endloop
endfacet
facet normal 0.0 0.0 1.0
  outer loop
    vertex 230.61682956842412 71.98075634110624 42.0
    vertex 228.8168295684241 70.18075634110625 42.0
    vertex 230.61682956842412 -0.019243658893763848 42.0
  endloop
endfacet
facet normal 0.0 1.0 0.0
  outer loop
    vertex 132.4168295684241 1.780756341106236 42.0
    vertex 228.8168295684241 1.780756341106236 1.9999999999999998
    vertex 132.4168295684241 1.780756341106236 1.9999999999999998
  endloop
endfacet
facet normal 0.0 1.0 0.0
  outer loop
    vertex 228.8168295684241 1.780756341106236 1.9999999999999998
    vertex 132.4168295684241 1.780756341106236 42.0
    vertex 228.8168295684241 1.780756341106236 42.0
  endloop
endfacet
facet normal -0.0 -1.0 -0.0
  outer loop
    vertex 230.61682956842412 -0.019243658893763848 42.0
    vertex 130.61682956842412 -0.019243658893763848 0.0
    vertex 230.61682956842412 -0.019243658893763848 0.0
  endloop
endfacet
facet normal -0.0 -1.0 -0.0
  outer loop
    vertex 130.61682956842412 -0.019243658893763848 0.0
    vertex 230.61682956842412 -0.019243658893763848 42.0
    vertex 130.61682956842412 -0.019243658893763848 42.0
  endloop
endfacet
facet normal -1.0 0.0 0.0
  outer loop
    vertex 130.61682956842412 71.98075634110624 42.0
    vertex 130.61682956842412 -0.019243658893763848 0.0
    vertex 130.61682956842412 -0.019243658893763848 42.0
  endloop
endfacet
facet normal -1.0 0.0 0.0
  outer loop
    vertex 130.61682956842412 -0.019243658893763848 0.0
    vertex 130.61682956842412 71.98075634110624 42.0
    vertex 130.61682956842412 71.98075634110624 0.0
  endloop
endfacet
facet normal 0.0 1.0 0.0
  outer loop
    vertex 130.61682956842412 71.98075634110624 42.0
    vertex 230.61682956842412 71.98075634110624 0.0
    vertex 130.61682956842412 71.98075634110624 0.0
  endloop
endfacet
facet normal 0.0 1.0 0.0
  outer loop
    vertex 230.61682956842412 71.98075634110624 0.0
    vertex 130.61682956842412 71.98075634110624 42.0
    vertex 230.61682956842412 71.98075634110624 42.0
  endloop
endfacet
facet normal 0.0 0.0 -1.0
  outer loop
    vertex 230.61682956842412 71.98075634110624 0.0
    vertex 130.61682956842412 -0.019243658893763848 0.0
    vertex 130.61682956842412 71.98075634110624 0.0
  endloop
endfacet
facet normal 0.0 0.0 -1.0
  outer loop
    vertex 130.61682956842412 -0.019243658893763848 0.0
    vertex 230.61682956842412 71.98075634110624 0.0
    vertex 230.61682956842412 -0.019243658893763848 0.0
  endloop
endfacet
facet normal 1.0 0.0 0.0
  outer loop
    vertex 230.61682956842412 -0.019243658893763848 0.0
    vertex 230.61682956842412 10.980756341106238 3.0000000000000044
    vertex 230.61682956842412 -0.019243658893763848 42.0
  endloop
endfacet
facet normal 1.0 0.0 0.0
  outer loop
    vertex 230.61682956842412 10.980756341106238 3.0000000000000044
    vertex 230.61682956842412 -0.019243658893763848 0.0
    vertex 230.61682956842412 71.98075634110624 0.0
  endloop
endfacet
facet normal 1.0 0.0 0.0
  outer loop
    vertex 230.61682956842412 10.980756341106238 3.0000000000000044
    vertex 230.61682956842412 71.98075634110624 0.0
    vertex 230.61682956842412 60.98075634110624 3.0000000000000044
  endloop
endfacet
facet normal 1.0 0.0 0.0
  outer loop
    vertex 230.61682956842412 60.98075634110624 3.0000000000000044
    vertex 230.61682956842412 71.98075634110624 0.0
    vertex 230.61682956842412 60.98075634110624 30.0
  endloop
endfacet
facet normal 1.0 0.0 0.0
  outer loop
    vertex 230.61682956842412 -0.019243658893763848 42.0
    vertex 230.61682956842412 10.980756341106238 30.0
    vertex 230.61682956842412 71.98075634110624 42.0
  endloop
endfacet
facet normal 1.0 0.0 0.0
  outer loop
    vertex 230.61682956842412 10.980756341106238 30.0
    vertex 230.61682956842412 -0.019243658893763848 42.0
    vertex 230.61682956842412 10.980756341106238 3.0000000000000044
  endloop
endfacet
facet normal 1.0 0.0 0.0
  outer loop
    vertex 230.61682956842412 71.98075634110624 42.0
    vertex 230.61682956842412 10.980756341106238 30.0
    vertex 230.61682956842412 60.98075634110624 30.0
  endloop
endfacet
facet normal 1.0 0.0 0.0
  outer loop
    vertex 230.61682956842412 71.98075634110624 42.0
    vertex 230.61682956842412 60.98075634110624 30.0
    vertex 230.61682956842412 71.98075634110624 0.0
  endloop
endfacet
facet normal 0.0 0.0 1.0
  outer loop
    vertex 228.8168295684241 8.98075634110624 32.0
    vertex 218.81682956842414 62.980756341106236 32.0
    vertex 218.81682956842414 8.98075634110624 32.0
  endloop
endfacet
facet normal 0.0 0.0 1.0
  outer loop
    vertex 218.81682956842414 62.980756341106236 32.0
    vertex 228.8168295684241 8.98075634110624 32.0
    vertex 228.8168295684241 62.980756341106236 32.0
  endloop
endfacet
facet normal 0.0 1.0 0.0
  outer loop
    vertex 220.61682956842415 10.980756341106238 3.000000000000005
    vertex 230.61682956842412 10.980756341106238 30.0
    vertex 230.61682956842412 10.980756341106238 3.0000000000000044
  endloop
endfacet
facet normal 0.0 1.0 0.0
  outer loop
    vertex 230.61682956842412 10.980756341106238 30.0
    vertex 220.61682956842415 10.980756341106238 3.000000000000005
    vertex 220.61682956842415 10.980756341106238 30.0
  endloop
endfacet
facet normal 0.0 1.0 0.0
  outer loop
    vertex 230.61682956842412 10.980756341106238 30.0
    vertex 220.61682956842415 10.980756341106238 30.0
    vertex 228.8168295684241 10.980756341106238 30.0
  endloop
endfacet
facet normal 0.0 0.0 -1.0
  outer loop
    vertex 228.8168295684241 60.98075634110624 30.0
    vertex 220.61682956842415 10.980756341106238 30.0
    vertex 220.61682956842415 60.98075634110624 30.0
  endloop
endfacet
facet normal 0.0 0.0 -1.0
  outer loop
    vertex 220.61682956842415 10.980756341106238 30.0
    vertex 228.8168295684241 60.98075634110624 30.0
    vertex 228.8168295684241 10.980756341106238 30.0
  endloop
endfacet
facet normal 0.0 0.0 -1.0
  outer loop
    vertex 228.8168295684241 10.980756341106238 30.0
    vertex 228.8168295684241 60.98075634110624 30.0
    vertex 230.61682956842412 60.98075634110624 30.0
  endloop
endfacet
facet normal 0.0 0.0 -1.0
  outer loop
    vertex 228.8168295684241 10.980756341106238 30.0
    vertex 230.61682956842412 60.98075634110624 30.0
    vertex 230.61682956842412 10.980756341106238 30.0
  endloop
endfacet
facet normal 0.0 1.0 0.0
  outer loop
    vertex 218.81682956842414 30.480756341106236 8.999999999999998
    vertex 220.61682956842424 30.480756341106236 3.9999999999999996
    vertex 218.81682956842414 30.480756341106236 3.9999999999999996
  endloop
endfacet
facet normal 0.0 1.0 0.0
  outer loop
    vertex 220.61682956842424 30.480756341106236 3.9999999999999996
    vertex 218.81682956842414 30.480756341106236 8.999999999999998
    vertex 220.61682956842424 30.480756341106236 8.999999999999998
  endloop
endfacet
facet normal 0.0 0.0 1.0
  outer loop
    vertex 132.4168295684241 70.18075634110625 1.9999999999999998
    vertex 218.81682956842414 62.980756341106236 1.9999999999999998
    vertex 228.8168295684241 70.18075634110625 1.9999999999999998
  endloop
endfacet
facet normal 0.0 0.0 1.0
  outer loop
    vertex 218.81682956842414 62.980756341106236 1.9999999999999998
    vertex 132.4168295684241 70.18075634110625 1.9999999999999998
    vertex 218.81682956842414 8.98075634110624 1.9999999999999998
  endloop
endfacet
facet normal 0.0 0.0 1.0
  outer loop
    vertex 228.8168295684241 70.18075634110625 1.9999999999999998
    vertex 218.81682956842414 62.980756341106236 1.9999999999999998
    vertex 228.8168295684241 62.980756341106236 1.9999999999999998
  endloop
endfacet
facet normal 0.0 0.0 1.0
  outer loop
    vertex 228.8168295684241 1.780756341106236 1.9999999999999998
    vertex 132.4168295684241 70.18075634110625 1.9999999999999998
    vertex 132.4168295684241 1.780756341106236 1.9999999999999998
  endloop
endfacet
facet normal 0.0 0.0 1.0
  outer loop
    vertex 132.4168295684241 70.18075634110625 1.9999999999999998
    vertex 228.8168295684241 1.780756341106236 1.9999999999999998
    vertex 218.81682956842414 8.98075634110624 1.9999999999999998
  endloop
endfacet
facet normal 0.0 0.0 1.0
  outer loop
    vertex 218.81682956842414 8.98075634110624 1.9999999999999998
    vertex 228.8168295684241 1.780756341106236 1.9999999999999998
    vertex 228.8168295684241 8.98075634110624 1.9999999999999998
  endloop
endfacet
facet normal -1.0 0.0 0.0
  outer loop
    vertex 218.81682956842414 62.980756341106236 32.0
    vertex 218.81682956842414 8.98075634110624 1.9999999999999998
    vertex 218.81682956842414 8.98075634110624 32.0
  endloop
endfacet
facet normal -1.0 0.0 0.0
  outer loop
    vertex 218.81682956842414 8.98075634110624 1.9999999999999998
    vertex 218.81682956842414 62.980756341106236 32.0
    vertex 218.81682956842414 30.480756341106236 8.999999999999998
  endloop
endfacet
facet normal -1.0 0.0 0.0
  outer loop
    vertex 218.81682956842414 30.480756341106236 8.999999999999998
    vertex 218.81682956842414 62.980756341106236 32.0
    vertex 218.81682956842414 41.480756341106236 8.999999999999998
  endloop
endfacet
facet normal -1.0 0.0 0.0
  outer loop
    vertex 218.81682956842414 41.480756341106236 8.999999999999998
    vertex 218.81682956842414 62.980756341106236 32.0
    vertex 218.81682956842414 41.480756341106236 3.9999999999999996
  endloop
endfacet
facet normal -1.0 0.0 0.0
  outer loop
    vertex 218.81682956842414 8.98075634110624 1.9999999999999998
    vertex 218.81682956842414 30.480756341106236 3.9999999999999996
    vertex 218.81682956842414 62.980756341106236 1.9999999999999998
  endloop
endfacet
facet normal -1.0 0.0 0.0
  outer loop
    vertex 218.81682956842414 30.480756341106236 3.9999999999999996
    vertex 218.81682956842414 8.98075634110624 1.9999999999999998
    vertex 218.81682956842414 30.480756341106236 8.999999999999998
  endloop
endfacet
facet normal -1.0 0.0 0.0
  outer loop
    vertex 218.81682956842414 62.980756341106236 1.9999999999999998
    vertex 218.81682956842414 30.480756341106236 3.9999999999999996
    vertex 218.81682956842414 41.480756341106236 3.9999999999999996
  endloop
endfacet
facet normal -1.0 0.0 0.0
  outer loop
    vertex 218.81682956842414 62.980756341106236 1.9999999999999998
    vertex 218.81682956842414 41.480756341106236 3.9999999999999996
    vertex 218.81682956842414 62.980756341106236 32.0
  endloop
endfacet
facet normal 0.0 -1.0 0.0
  outer loop
    vertex 228.8168295684241 8.98075634110624 32.0
    vertex 218.81682956842414 8.98075634110624 1.9999999999999998
    vertex 228.8168295684241 8.98075634110624 1.9999999999999998
  endloop
endfacet
facet normal 0.0 -1.0 0.0
  outer loop
    vertex 218.81682956842414 8.98075634110624 1.9999999999999998
    vertex 228.8168295684241 8.98075634110624 32.0
    vertex 218.81682956842414 8.98075634110624 32.0
  endloop
endfacet
facet normal 0.0 1.0 0.0
  outer loop
    vertex 218.81682956842414 62.980756341106236 32.0
    vertex 228.8168295684241 62.980756341106236 1.9999999999999998
    vertex 218.81682956842414 62.980756341106236 1.9999999999999998
  endloop
endfacet
facet normal 0.0 1.0 0.0
  outer loop
    vertex 228.8168295684241 62.980756341106236 1.9999999999999998
    vertex 218.81682956842414 62.980756341106236 32.0
    vertex 228.8168295684241 62.980756341106236 32.0
  endloop
endfacet
facet normal 0.0 -1.0 0.0
  outer loop
    vertex 230.61682956842412 60.98075634110624 30.0
    vertex 220.61682956842415 60.98075634110624 3.000000000000005
    vertex 230.61682956842412 60.98075634110624 3.0000000000000044
  endloop
endfacet
facet normal 0.0 -1.0 0.0
  outer loop
    vertex 220.61682956842415 60.98075634110624 3.000000000000005
    vertex 230.61682956842412 60.98075634110624 30.0
    vertex 220.61682956842415 60.98075634110624 30.0
  endloop
endfacet
facet normal 0.0 -1.0 0.0
  outer loop
    vertex 220.61682956842415 60.98075634110624 30.0
    vertex 230.61682956842412 60.98075634110624 30.0
    vertex 228.8168295684241 60.98075634110624 30.0
  endloop
endfacet
facet normal 2.4398466457990122e-17 -1.1650617226548648e-34 1.0
  outer loop
    vertex 230.61682956842412 10.980756341106238 3.0000000000000044
    vertex 220.61682956842415 60.98075634110624 3.000000000000005
    vertex 220.61682956842415 10.980756341106238 3.000000000000005
  endloop
endfacet
facet normal 2.4398466457990122e-17 -1.1650617226548648e-34 1.0
  outer loop
    vertex 220.61682956842415 60.98075634110624 3.000000000000005
    vertex 230.61682956842412 10.980756341106238 3.0000000000000044
    vertex 230.61682956842412 60.98075634110624 3.0000000000000044
  endloop
endfacet
facet normal 0.0 0.0 1.0
  outer loop
    vertex 220.61682956842424 30.480756341106236 3.9999999999999996
    vertex 218.81682956842414 41.480756341106236 3.9999999999999996
    vertex 218.81682956842414 30.480756341106236 3.9999999999999996
  endloop
endfacet
facet normal 0.0 0.0 1.0
  outer loop
    vertex 218.81682956842414 41.480756341106236 3.9999999999999996
    vertex 220.61682956842424 30.480756341106236 3.9999999999999996
    vertex 220.61682956842424 41.480756341106236 3.9999999999999996
  endloop
endfacet
facet normal -1.0 0.0 0.0
  outer loop
    vertex 228.8168295684241 8.98075634110624 1.9999999999999998
    vertex 228.8168295684241 1.780756341106236 1.9999999999999998
    vertex 228.8168295684241 8.98075634110624 32.0
  endloop
endfacet
facet normal -1.0 0.0 0.0
  outer loop
    vertex 228.8168295684241 1.780756341106236 42.0
    vertex 228.8168295684241 8.98075634110624 32.0
    vertex 228.8168295684241 1.780756341106236 1.9999999999999998
  endloop
endfacet
facet normal -1.0 0.0 0.0
  outer loop
    vertex 228.8168295684241 8.98075634110624 32.0
    vertex 228.8168295684241 1.780756341106236 42.0
    vertex 228.8168295684241 70.18075634110625 42.0
  endloop
endfacet
facet normal -1.0 0.0 0.0
  outer loop
    vertex 228.8168295684241 8.98075634110624 32.0
    vertex 228.8168295684241 70.18075634110625 42.0
    vertex 228.8168295684241 62.980756341106236 32.0
  endloop
endfacet
facet normal -1.0 0.0 0.0
  outer loop
    vertex 228.8168295684241 62.980756341106236 32.0
    vertex 228.8168295684241 70.18075634110625 42.0
    vertex 228.8168295684241 62.980756341106236 1.9999999999999998
  endloop
endfacet
facet normal -1.0 0.0 0.0
  outer loop
    vertex 228.8168295684241 62.980756341106236 1.9999999999999998
    vertex 228.8168295684241 70.18075634110625 42.0
    vertex 228.8168295684241 70.18075634110625 1.9999999999999998
  endloop
endfacet
facet normal 1.0 0.0 0.0
  outer loop
    vertex 220.61682956842415 10.980756341106238 3.000000000000005
    vertex 220.61682956842424 30.480756341106236 3.9999999999999996
    vertex 220.61682956842415 10.980756341106238 30.0
  endloop
endfacet
facet normal 1.0 0.0 0.0
  outer loop
    vertex 220.61682956842424 30.480756341106236 3.9999999999999996
    vertex 220.61682956842415 10.980756341106238 3.000000000000005
    vertex 220.61682956842415 60.98075634110624 3.000000000000005
  endloop
endfacet
facet normal 1.0 0.0 0.0
  outer loop
    vertex 220.61682956842424 30.480756341106236 3.9999999999999996
    vertex 220.61682956842415 60.98075634110624 3.000000000000005
    vertex 220.61682956842424 41.480756341106236 3.9999999999999996
  endloop
endfacet
facet normal 1.0 0.0 0.0
  outer loop
    vertex 220.61682956842424 41.480756341106236 3.9999999999999996
    vertex 220.61682956842415 60.98075634110624 3.000000000000005
    vertex 220.61682956842424 41.480756341106236 8.999999999999998
  endloop
endfacet
facet normal 1.0 0.0 0.0
  outer loop
    vertex 220.61682956842415 10.980756341106238 30.0
    vertex 220.61682956842424 30.480756341106236 8.999999999999998
    vertex 220.61682956842415 60.98075634110624 30.0
  endloop
endfacet
facet normal 1.0 0.0 0.0
  outer loop
    vertex 220.61682956842424 30.480756341106236 8.999999999999998
    vertex 220.61682956842415 10.980756341106238 30.0
    vertex 220.61682956842424 30.480756341106236 3.9999999999999996
  endloop
endfacet
facet normal 1.0 0.0 0.0
  outer loop
    vertex 220.61682956842415 60.98075634110624 30.0
    vertex 220.61682956842424 30.480756341106236 8.999999999999998
    vertex 220.61682956842424 41.480756341106236 8.999999999999998
  endloop
endfacet
facet normal 1.0 0.0 0.0
  outer loop
    vertex 220.61682956842415 60.98075634110624 30.0
    vertex 220.61682956842424 41.480756341106236 8.999999999999998
    vertex 220.61682956842415 60.98075634110624 3.000000000000005
  endloop
endfacet
facet normal 0.0 0.0 -1.0
  outer loop
    vertex 220.61682956842424 41.480756341106236 8.999999999999998
    vertex 218.81682956842414 30.480756341106236 8.999999999999998
    vertex 218.81682956842414 41.480756341106236 8.999999999999998
  endloop
endfacet
facet normal 0.0 0.0 -1.0
  outer loop
    vertex 218.81682956842414 30.480756341106236 8.999999999999998
    vertex 220.61682956842424 41.480756341106236 8.999999999999998
    vertex 220.61682956842424 30.480756341106236 8.999999999999998
  endloop
endfacet
facet normal 0.0 -1.0 0.0
  outer loop
    vertex 220.61682956842424 41.480756341106236 8.999999999999998
    vertex 218.81682956842414 41.480756341106236 3.9999999999999996
    vertex 220.61682956842424 41.480756341106236 3.9999999999999996
  endloop
endfacet
facet normal 0.0 -1.0 0.0
  outer loop
    vertex 218.81682956842414 41.480756341106236 3.9999999999999996
    vertex 220.61682956842424 41.480756341106236 8.999999999999998
    vertex 218.81682956842414 41.480756341106236 8.999999999999998
  endloop
endfacet
endsolid Base
