solid BoxyLid
facet normal -0.9914448613738144 3.9478789012690663e-13 -0.13052619222002199
  outer loop
    vertex 3.9479530755670567e-13 1.0000000000103566 1.0000000000034344
    vertex 0.03407417371093739 0.03407417372126975 0.7411809549009115
    vertex 0.0 1.0354916923915879e-11 1.0000000000034344
  endloop
endfacet
facet normal -0.9914448613738144 3.9478789012690663e-13 -0.13052619222002199
  outer loop
    vertex 0.03407417371093739 0.03407417372126975 0.7411809549009115
    vertex 3.9479530755670567e-13 1.0000000000103566 1.0000000000034344
    vertex 0.03407417373161903 51.965925826299404 0.7411809549009115
  endloop
endfacet
facet normal -0.9914448613738144 3.9478789012690663e-13 -0.13052619222002199
  outer loop
    vertex 0.03407417373161903 51.965925826299404 0.7411809549009115
    vertex 3.9479530755670567e-13 1.0000000000103566 1.0000000000034344
    vertex 2.0303758674344863e-11 51.00000000001035 1.0000000000034344
  endloop
endfacet
facet normal -0.9914448613738144 3.9478789012690663e-13 -0.13052619222002199
  outer loop
    vertex 0.03407417373161903 51.965925826299404 0.7411809549009115
    vertex 2.0303758674344863e-11 51.00000000001035 1.0000000000034344
    vertex 2.0704193914866663e-11 52.00000000001035 1.0000000000034344
  endloop
endfacet
facet normal -0.38268343236471514 0.923879532511442 1.489433523622777e-14
  outer loop
    vertex 0.5000000000206525 51.86602540379458 1.0000000000034188
    vertex 0.741180954918549 51.96592582629912 10.000000000003395
    vertex 0.7411809549181712 51.96592582629912 1.000000000003399
  endloop
endfacet
facet normal -0.38268343236471514 0.923879532511442 1.489433523622777e-14
  outer loop
    vertex 0.741180954918549 51.96592582629912 10.000000000003395
    vertex 0.5000000000206525 51.86602540379458 1.0000000000034188
    vertex 0.5000000000210304 51.866025403794595 10.000000000003402
  endloop
endfacet
facet normal -9.358282261655842e-14 -0.13052619222005074 -0.9914448613738105
  outer loop
    vertex 1.0000000000003535 1.000000000009947 3.3938296617463945e-12
    vertex 26.000000000000252 0.7411809548974754 0.03407417371326669
    vertex 0.7411809548977292 0.741180954907537 0.03407417371432699
  endloop
endfacet
facet normal -9.358282261655842e-14 -0.13052619222005074 -0.9914448613738105
  outer loop
    vertex 26.000000000000252 0.7411809548974754 0.03407417371326669
    vertex 1.0000000000003535 1.000000000009947 3.3938296617463945e-12
    vertex 26.00000000000035 0.9999999999999981 2.340572180514755e-12
  endloop
endfacet
facet normal -0.13052619222044531 -0.9914448613737588 5.475013030942628e-15
  outer loop
    vertex 1.0000000000003788 9.956596658255988e-12 10.000000000003388
    vertex 0.7411809548974924 0.03407417372099128 1.000000000003399
    vertex 1.0000000000000009 9.956596658255988e-12 1.000000000003392
  endloop
endfacet
facet normal -0.13052619222044531 -0.9914448613737588 5.475013030942628e-15
  outer loop
    vertex 0.7411809548974924 0.03407417372099128 1.000000000003399
    vertex 1.0000000000003788 9.956596658255988e-12 10.000000000003388
    vertex 0.7411809548978702 0.03407417372099128 10.000000000003395
  endloop
endfacet
facet normal -0.1305261922200924 5.1971301997875683e-14 -0.9914448613738052
  outer loop
    vertex 0.741180954917844 51.25881904511257 0.03407417371432699
    vertex 1.0000000000003535 1.000000000009947 3.3938296617463945e-12
    vertex 0.7411809548977292 0.741180954907537 0.03407417371432699
  endloop
endfacet
facet normal -0.1305261922200924 5.1971301997875683e-14 -0.9914448613738052
  outer loop
    vertex 1.0000000000003535 1.000000000009947 3.3938296617463945e-12
    vertex 0.741180954917844 51.25881904511257 0.03407417371432699
    vertex 1.0000000000202625 51.00000000000995 3.3938296617463945e-12
  endloop
endfacet
facet normal 1.0 -2.3273535876278134e-14 5.764324917337063e-13
  outer loop
    vertex 19.500000000004402 31.50000000000009 3.3474097471573914e-26
    vertex 19.50000000000299 20.50000000000009 2.0000000000001372
    vertex 19.500000000004338 20.50000000000009 -4.701963618812695e-26
  endloop
endfacet
facet normal 1.0 -2.3273535876278134e-14 5.764324917337063e-13
  outer loop
    vertex 19.50000000000299 20.50000000000009 2.0000000000001372
    vertex 19.500000000004402 31.50000000000009 3.3474097471573914e-26
    vertex 19.500000000003443 31.50000000000009 2.0000000000001372
  endloop
endfacet
facet normal -1.0 3.9815136141746605e-13 4.1966329999678884e-14
  outer loop
    vertex 24.500000000005752 13.5 10.000000000002357
    vertex 24.50000000000064 1.500000000000595 2.000000000002406
    vertex 24.500000000000977 1.500000000000595 10.000000000002403
  endloop
endfacet
facet normal -1.0 3.9815136141746605e-13 4.1966329999678884e-14
  outer loop
    vertex 24.50000000000064 1.500000000000595 2.000000000002406
    vertex 24.500000000005752 13.5 10.000000000002357
    vertex 24.500000000005418 13.5 2.000000000002406
  endloop
endfacet
facet normal -0.9238795325114385 -0.38268343236472374 3.870013510149163e-14
  outer loop
    vertex 0.03407417371160291 0.7411809549078201 10.000000000003428
    vertex 0.1339745962157564 0.5000000000103022 1.0000000000034244
    vertex 0.1339745962161399 0.5000000000103011 10.00000000000342
  endloop
endfacet
facet normal -0.9238795325114385 -0.38268343236472374 3.870013510149163e-14
  outer loop
    vertex 0.1339745962157564 0.5000000000103022 1.0000000000034244
    vertex 0.03407417371160291 0.7411809549078201 10.000000000003428
    vertex 0.03407417371122503 0.7411809549078215 1.0000000000034344
  endloop
endfacet
facet normal -0.1305261922196629 0.9914448613738616 4.232273010438945e-15
  outer loop
    vertex 0.7411809549181712 51.96592582629912 1.000000000003399
    vertex 1.0000000000210831 52.000000000009955 10.000000000003388
    vertex 1.0000000000207052 52.00000000000994 1.000000000003392
  endloop
endfacet
facet normal -0.1305261922196629 0.9914448613738616 4.232273010438945e-15
  outer loop
    vertex 1.0000000000210831 52.000000000009955 10.000000000003388
    vertex 0.7411809549181712 51.96592582629912 1.000000000003399
    vertex 0.741180954918549 51.96592582629912 10.000000000003395
  endloop
endfacet
facet normal -1.0 3.981733924055714e-13 4.197734549375114e-14
  outer loop
    vertex 24.500000000015707 38.5 10.000000000002357
    vertex 24.500000000020147 50.50000000000059 2.000000000002406
    vertex 24.500000000015373 38.5 2.000000000002406
  endloop
endfacet
facet normal -1.0 3.981733924055714e-13 4.197734549375114e-14
  outer loop
    vertex 24.500000000020147 50.50000000000059 2.000000000002406
    vertex 24.500000000015707 38.5 10.000000000002357
    vertex 24.500000000020485 50.50000000000059 10.000000000002403
  endloop
endfacet
facet normal 1.0357060011706658e-14 0.1305261922200517 -0.9914448613738105
  outer loop
    vertex 26.000000000020364 51.258819045102506 0.03407417371326669
    vertex 1.0000000000202625 51.00000000000995 3.3938296617463945e-12
    vertex 0.741180954917844 51.25881904511257 0.03407417371432699
  endloop
endfacet
facet normal 1.0357060011706658e-14 0.1305261922200517 -0.9914448613738105
  outer loop
    vertex 1.0000000000202625 51.00000000000995 3.3938296617463945e-12
    vertex 26.000000000020364 51.258819045102506 0.03407417371326669
    vertex 26.00000000002026 51.0 2.340572180514755e-12
  endloop
endfacet
facet normal 4.168312870134094e-14 -2.0461942903492054e-26 1.0
  outer loop
    vertex 24.50000000000064 1.500000000000595 2.000000000002406
    vertex 1.5000000000201459 50.50000000000975 2.0000000000033635
    vertex 1.5000000000006375 1.5000000000097544 2.0000000000033635
  endloop
endfacet
facet normal 4.168312870134094e-14 -2.0461942903492054e-26 1.0
  outer loop
    vertex 1.5000000000201459 50.50000000000975 2.0000000000033635
    vertex 24.50000000000064 1.500000000000595 2.000000000002406
    vertex 19.50000000000299 20.50000000000009 2.0000000000001372
  endloop
endfacet
facet normal 4.168312870134094e-14 -2.0461942903492054e-26 1.0
  outer loop
    vertex 19.50000000000299 20.50000000000009 2.0000000000001372
    vertex 24.50000000000064 1.500000000000595 2.000000000002406
    vertex 23.500000000001663 13.5 2.0000000000024425
  endloop
endfacet
facet normal 4.168312870134094e-14 -2.0461942903492054e-26 1.0
  outer loop
    vertex 23.500000000001663 13.5 2.0000000000024425
    vertex 24.50000000000064 1.500000000000595 2.000000000002406
    vertex 24.500000000005418 13.5 2.000000000002406
  endloop
endfacet
facet normal 4.168312870134094e-14 -2.0461942903492054e-26 1.0
  outer loop
    vertex 23.500000000002988 20.499999999999996 2.0000000000024425
    vertex 19.50000000000299 20.50000000000009 2.0000000000001372
    vertex 23.500000000001663 13.5 2.0000000000024425
  endloop
endfacet
facet normal 4.168312870134094e-14 -2.0461942903492054e-26 1.0
  outer loop
    vertex 1.5000000000201459 50.50000000000975 2.0000000000033635
    vertex 19.500000000003443 31.50000000000009 2.0000000000001372
    vertex 24.500000000020147 50.50000000000059 2.000000000002406
  endloop
endfacet
facet normal 4.168312870134094e-14 -2.0461942903492054e-26 1.0
  outer loop
    vertex 19.500000000003443 31.50000000000009 2.0000000000001372
    vertex 1.5000000000201459 50.50000000000975 2.0000000000033635
    vertex 19.50000000000299 20.50000000000009 2.0000000000001372
  endloop
endfacet
facet normal 4.168312870134094e-14 -2.0461942903492054e-26 1.0
  outer loop
    vertex 24.500000000020147 50.50000000000059 2.000000000002406
    vertex 19.500000000003443 31.50000000000009 2.0000000000001372
    vertex 23.500000000004768 38.5 2.0000000000024425
  endloop
endfacet
facet normal 4.168312870134094e-14 -2.0461942903492054e-26 1.0
  outer loop
    vertex 23.500000000004768 38.5 2.0000000000024425
    vertex 19.500000000003443 31.50000000000009 2.0000000000001372
    vertex 23.50000000000344 31.499999999999993 2.0000000000024425
  endloop
endfacet
facet normal 4.168312870134094e-14 -2.0461942903492054e-26 1.0
  outer loop
    vertex 24.500000000020147 50.50000000000059 2.000000000002406
    vertex 23.500000000004768 38.5 2.0000000000024425
    vertex 24.500000000015373 38.5 2.000000000002406
  endloop
endfacet
facet normal -0.7933533402914739 -0.6087614290084098 3.3217987393717946e-14
  outer loop
    vertex 0.1339745962161399 0.5000000000103011 10.00000000000342
    vertex 0.29289321881357294 0.292893218823691 1.0000000000034273
    vertex 0.2928932188139452 0.2928932188236903 10.000000000003421
  endloop
endfacet
facet normal -0.7933533402914739 -0.6087614290084098 3.3217987393717946e-14
  outer loop
    vertex 0.29289321881357294 0.292893218823691 1.0000000000034273
    vertex 0.1339745962161399 0.5000000000103011 10.00000000000342
    vertex 0.1339745962157564 0.5000000000103022 1.0000000000034244
  endloop
endfacet
facet normal 4.4235807473782476e-14 -1.0328495972674504e-15 1.0
  outer loop
    vertex 0.0 1.0354916923915879e-11 1.0000000000034344
    vertex 0.03407417371122503 0.7411809549078215 1.0000000000034344
    vertex 3.9479530755670567e-13 1.0000000000103566 1.0000000000034344
  endloop
endfacet
facet normal 4.4235807473782476e-14 -1.0328495972674504e-15 1.0
  outer loop
    vertex 0.03407417371122503 0.7411809549078215 1.0000000000034344
    vertex 0.0 1.0354916923915879e-11 1.0000000000034344
    vertex 0.1339745962157564 0.5000000000103022 1.0000000000034244
  endloop
endfacet
facet normal 4.4235807473782476e-14 -1.0328495972674504e-15 1.0
  outer loop
    vertex 0.1339745962157564 0.5000000000103022 1.0000000000034244
    vertex 0.0 1.0354916923915879e-11 1.0000000000034344
    vertex 0.29289321881357294 0.292893218823691 1.0000000000034273
  endloop
endfacet
facet normal 4.4235807473782476e-14 -1.0328495972674504e-15 1.0
  outer loop
    vertex 0.29289321881357294 0.292893218823691 1.0000000000034273
    vertex 0.0 1.0354916923915879e-11 1.0000000000034344
    vertex 0.5000000000000555 0.13397459622571722 1.0000000000034075
  endloop
endfacet
facet normal 4.4235807473782476e-14 -1.0328495972674504e-15 1.0
  outer loop
    vertex 0.5000000000000555 0.13397459622571722 1.0000000000034075
    vertex 0.0 1.0354916923915879e-11 1.0000000000034344
    vertex 0.7411809548974924 0.03407417372099128 1.000000000003399
  endloop
endfacet
facet normal 4.4235807473782476e-14 -1.0328495972674504e-15 1.0
  outer loop
    vertex 0.7411809548974924 0.03407417372099128 1.000000000003399
    vertex 0.0 1.0354916923915879e-11 1.0000000000034344
    vertex 1.0000000000000009 9.956596658255988e-12 1.000000000003392
  endloop
endfacet
facet normal 1.0 -9.688162971791643e-13 -2.5808935419902836e-15
  outer loop
    vertex 26.00000000002026 51.0 2.340572180514755e-12
    vertex 26.00000000000776 38.5 10.000000000002334
    vertex 26.000000000007898 38.5 2.340572180514755e-12
  endloop
endfacet
facet normal 1.0 -9.688162971791643e-13 -2.5808935419902836e-15
  outer loop
    vertex 26.00000000000776 38.5 10.000000000002334
    vertex 26.00000000002026 51.0 2.340572180514755e-12
    vertex 26.00000000002108 51.99999999999999 10.000000000002334
  endloop
endfacet
facet normal 1.0 -9.688162971791643e-13 -2.5808935419902836e-15
  outer loop
    vertex 26.00000000002108 51.99999999999999 10.000000000002334
    vertex 26.00000000002026 51.0 2.340572180514755e-12
    vertex 26.000000000020364 51.258819045102506 0.03407417371326669
  endloop
endfacet
facet normal 1.0 -9.688162971791643e-13 -2.5808935419902836e-15
  outer loop
    vertex 26.00000000002108 51.99999999999999 10.000000000002334
    vertex 26.000000000020364 51.258819045102506 0.03407417371326669
    vertex 26.000000000020464 51.49999999999999 0.13397459621790522
  endloop
endfacet
facet normal 1.0 -9.688162971791643e-13 -2.5808935419902836e-15
  outer loop
    vertex 26.00000000002108 51.99999999999999 10.000000000002334
    vertex 26.000000000020464 51.49999999999999 0.13397459621790522
    vertex 26.000000000020556 51.707106781186546 0.29289321881578945
  endloop
endfacet
facet normal 1.0 -9.688162971791643e-13 -2.5808935419902836e-15
  outer loop
    vertex 26.00000000002108 51.99999999999999 10.000000000002334
    vertex 26.000000000020556 51.707106781186546 0.29289321881578945
    vertex 26.000000000020627 51.86602540378443 0.5000000000023397
  endloop
endfacet
facet normal 1.0 -9.688162971791643e-13 -2.5808935419902836e-15
  outer loop
    vertex 26.00000000002108 51.99999999999999 10.000000000002334
    vertex 26.000000000020627 51.86602540378443 0.5000000000023397
    vertex 26.00000000002068 51.96592582628906 0.741180954899816
  endloop
endfacet
facet normal 1.0 -9.688162971791643e-13 -2.5808935419902836e-15
  outer loop
    vertex 26.00000000002108 51.99999999999999 10.000000000002334
    vertex 26.00000000002068 51.96592582628906 0.741180954899816
    vertex 26.0000000000207 51.99999999999999 1.0000000000023388
  endloop
endfacet
facet normal -0.3826834323651322 1.5237214764911162e-13 -0.9238795325112692
  outer loop
    vertex 0.5000000000204664 51.50000000001015 0.13397459621897398
    vertex 0.7411809548977292 0.741180954907537 0.03407417371432699
    vertex 0.500000000000157 0.500000000010151 0.13397459621897398
  endloop
endfacet
facet normal -0.3826834323651322 1.5237214764911162e-13 -0.9238795325112692
  outer loop
    vertex 0.7411809548977292 0.741180954907537 0.03407417371432699
    vertex 0.5000000000204664 51.50000000001015 0.13397459621897398
    vertex 0.741180954917844 51.25881904511257 0.03407417371432699
  endloop
endfacet
facet normal -0.9914448613738631 -0.1305261922196518 4.156361587562572e-14
  outer loop
    vertex 7.783107491832197e-13 1.0000000000103548 10.000000000003428
    vertex 0.03407417371122503 0.7411809549078215 1.0000000000034344
    vertex 0.03407417371160291 0.7411809549078201 10.000000000003428
  endloop
endfacet
facet normal -0.9914448613738631 -0.1305261922196518 4.156361587562572e-14
  outer loop
    vertex 0.03407417371122503 0.7411809549078215 1.0000000000034344
    vertex 7.783107491832197e-13 1.0000000000103548 10.000000000003428
    vertex 3.9479530755670567e-13 1.0000000000103566 1.0000000000034344
  endloop
endfacet
facet normal -0.3826834323654577 -0.9238795325111345 1.6033925607618275e-14
  outer loop
    vertex 0.7411809548978702 0.03407417372099128 10.000000000003395
    vertex 0.5000000000000555 0.13397459622571722 1.0000000000034075
    vertex 0.7411809548974924 0.03407417372099128 1.000000000003399
  endloop
endfacet
facet normal -0.3826834323654577 -0.9238795325111345 1.6033925607618275e-14
  outer loop
    vertex 0.5000000000000555 0.13397459622571722 1.0000000000034075
    vertex 0.7411809548978702 0.03407417372099128 10.000000000003395
    vertex 0.5000000000004278 0.13397459622571686 10.000000000003402
  endloop
endfacet
facet normal -3.9826386633023965e-13 -1.0 1.668214652266288e-26
  outer loop
    vertex 26.000000000000377 0.0 10.000000000002334
    vertex 1.0000000000000009 9.956596658255988e-12 1.000000000003392
    vertex 25.999999999999996 0.0 1.0000000000023388
  endloop
endfacet
facet normal -3.9826386633023965e-13 -1.0 1.668214652266288e-26
  outer loop
    vertex 1.0000000000000009 9.956596658255988e-12 1.000000000003392
    vertex 26.000000000000377 0.0 10.000000000002334
    vertex 1.0000000000003788 9.956596658255988e-12 10.000000000003388
  endloop
endfacet
facet normal 2.3273535876278134e-14 1.0 1.5673212062708983e-26
  outer loop
    vertex 19.50000000000299 20.50000000000009 2.0000000000001372
    vertex 23.500000000004338 20.499999999999996 2.3053225994828594e-12
    vertex 19.500000000004338 20.50000000000009 -4.701963618812695e-26
  endloop
endfacet
facet normal 2.3273535876278134e-14 1.0 1.5673212062708983e-26
  outer loop
    vertex 23.500000000004338 20.499999999999996 2.3053225994828594e-12
    vertex 19.50000000000299 20.50000000000009 2.0000000000001372
    vertex 23.500000000002988 20.499999999999996 2.0000000000024425
  endloop
endfacet
facet normal -5.459507461641079e-16 -1.0 3.3888209843333325e-16
  outer loop
    vertex 26.00000000000776 38.5 10.000000000002334
    vertex 24.500000000015373 38.5 2.000000000002406
    vertex 26.000000000007898 38.5 2.340572180514755e-12
  endloop
endfacet
facet normal -5.459507461641079e-16 -1.0 3.3888209843333325e-16
  outer loop
    vertex 24.500000000015373 38.5 2.000000000002406
    vertex 26.00000000000776 38.5 10.000000000002334
    vertex 24.500000000015707 38.5 10.000000000002357
  endloop
endfacet
facet normal -5.459507461641079e-16 -1.0 3.3888209843333325e-16
  outer loop
    vertex 26.000000000007898 38.5 2.340572180514755e-12
    vertex 23.500000000004768 38.5 2.0000000000024425
    vertex 23.500000000007898 38.5 2.3053225994829063e-12
  endloop
endfacet
facet normal -5.459507461641079e-16 -1.0 3.3888209843333325e-16
  outer loop
    vertex 23.500000000004768 38.5 2.0000000000024425
    vertex 26.000000000007898 38.5 2.340572180514755e-12
    vertex 24.500000000015373 38.5 2.000000000002406
  endloop
endfacet
facet normal 3.981792673357631e-13 1.0 -6.266592183606582e-16
  outer loop
    vertex 1.0000000000207052 52.00000000000994 1.000000000003392
    vertex 26.00000000002108 51.99999999999999 10.000000000002334
    vertex 26.0000000000207 51.99999999999999 1.0000000000023388
  endloop
endfacet
facet normal 3.981792673357631e-13 1.0 -6.266592183606582e-16
  outer loop
    vertex 26.00000000002108 51.99999999999999 10.000000000002334
    vertex 1.0000000000207052 52.00000000000994 1.000000000003392
    vertex 1.0000000000210831 52.000000000009955 10.000000000003388
  endloop
endfacet
facet normal 3.891536527843328e-13 0.9914448613738116 -0.13052619222004389
  outer loop
    vertex 0.03407417373161903 51.965925826299404 0.7411809549009115
    vertex 26.0000000000207 51.99999999999999 1.0000000000023388
    vertex 26.00000000002068 51.96592582628906 0.741180954899816
  endloop
endfacet
facet normal 3.891536527843328e-13 0.9914448613738116 -0.13052619222004389
  outer loop
    vertex 26.0000000000207 51.99999999999999 1.0000000000023388
    vertex 0.03407417373161903 51.965925826299404 0.7411809549009115
    vertex 1.0000000000207052 52.00000000000994 1.000000000003392
  endloop
endfacet
facet normal 3.891536527843328e-13 0.9914448613738116 -0.13052619222004389
  outer loop
    vertex 1.0000000000207052 52.00000000000994 1.000000000003392
    vertex 0.03407417373161903 51.965925826299404 0.7411809549009115
    vertex 2.0704193914866663e-11 52.00000000001035 1.0000000000034344
  endloop
endfacet
facet normal -2.7568655049667474e-13 -0.608761429008726 -0.7933533402912313
  outer loop
    vertex 0.500000000000157 0.500000000010151 0.13397459621897398
    vertex 26.00000000000008 0.2928932188134489 0.29289321881578945
    vertex 0.29289321881353914 0.29289321882367975 0.2928932188168667
  endloop
endfacet
facet normal -2.7568655049667474e-13 -0.608761429008726 -0.7933533402912313
  outer loop
    vertex 26.00000000000008 0.2928932188134489 0.29289321881578945
    vertex 0.500000000000157 0.500000000010151 0.13397459621897398
    vertex 26.00000000000016 0.49999999999999906 0.13397459621790522
  endloop
endfacet
facet normal 3.5176001915319947e-13 0.9238795325112871 -0.3826834323650891
  outer loop
    vertex 0.1339745962361955 51.86602540379474 0.5000000000034254
    vertex 26.00000000002068 51.96592582628906 0.741180954899816
    vertex 26.000000000020627 51.86602540378443 0.5000000000023397
  endloop
endfacet
facet normal 3.5176001915319947e-13 0.9238795325112871 -0.3826834323650891
  outer loop
    vertex 26.00000000002068 51.96592582628906 0.741180954899816
    vertex 0.1339745962361955 51.86602540379474 0.5000000000034254
    vertex 0.03407417373161903 51.965925826299404 0.7411809549009115
  endloop
endfacet
facet normal 2.9031043172910645e-13 0.7933533402912352 -0.6087614290087207
  outer loop
    vertex 0.29289321883400643 51.70710678119678 0.2928932188168667
    vertex 26.000000000020627 51.86602540378443 0.5000000000023397
    vertex 26.000000000020556 51.707106781186546 0.29289321881578945
  endloop
endfacet
facet normal 2.9031043172910645e-13 0.7933533402912352 -0.6087614290087207
  outer loop
    vertex 26.000000000020627 51.86602540378443 0.5000000000023397
    vertex 0.29289321883400643 51.70710678119678 0.2928932188168667
    vertex 0.1339745962361955 51.86602540379474 0.5000000000034254
  endloop
endfacet
facet normal -0.6087614290087487 2.42389037985454e-13 -0.7933533402912136
  outer loop
    vertex 0.29289321883400643 51.70710678119678 0.2928932188168667
    vertex 0.500000000000157 0.500000000010151 0.13397459621897398
    vertex 0.29289321881353914 0.29289321882367975 0.2928932188168667
  endloop
endfacet
facet normal -0.6087614290087487 2.42389037985454e-13 -0.7933533402912136
  outer loop
    vertex 0.500000000000157 0.500000000010151 0.13397459621897398
    vertex 0.29289321883400643 51.70710678119678 0.2928932188168667
    vertex 0.5000000000204664 51.50000000001015 0.13397459621897398
  endloop
endfacet
facet normal 1.1358842212903729e-13 0.3826834323650896 -0.9238795325112868
  outer loop
    vertex 26.000000000020464 51.49999999999999 0.13397459621790522
    vertex 0.741180954917844 51.25881904511257 0.03407417371432699
    vertex 0.5000000000204664 51.50000000001015 0.13397459621897398
  endloop
endfacet
facet normal 1.1358842212903729e-13 0.3826834323650896 -0.9238795325112868
  outer loop
    vertex 0.741180954917844 51.25881904511257 0.03407417371432699
    vertex 26.000000000020464 51.49999999999999 0.13397459621790522
    vertex 26.000000000020364 51.258819045102506 0.03407417371326669
  endloop
endfacet
facet normal -0.7933533402912736 3.158875587648916e-13 -0.6087614290086708
  outer loop
    vertex 0.1339745962361955 51.86602540379474 0.5000000000034254
    vertex 0.29289321881353914 0.29289321882367975 0.2928932188168667
    vertex 0.13397459621559285 0.13397459622585187 0.5000000000034254
  endloop
endfacet
facet normal -0.7933533402912736 3.158875587648916e-13 -0.6087614290086708
  outer loop
    vertex 0.29289321881353914 0.29289321882367975 0.2928932188168667
    vertex 0.1339745962361955 51.86602540379474 0.5000000000034254
    vertex 0.29289321883400643 51.70710678119678 0.2928932188168667
  endloop
endfacet
facet normal 3.9816760999400473e-13 1.0 -1.6711320144327723e-26
  outer loop
    vertex 1.5000000000006375 1.5000000000097544 2.0000000000033635
    vertex 24.500000000000977 1.500000000000595 10.000000000002403
    vertex 24.50000000000064 1.500000000000595 2.000000000002406
  endloop
endfacet
facet normal 3.9816760999400473e-13 1.0 -1.6711320144327723e-26
  outer loop
    vertex 24.500000000000977 1.500000000000595 10.000000000002403
    vertex 1.5000000000006375 1.5000000000097544 2.0000000000033635
    vertex 1.500000000000973 1.5000000000097544 10.000000000003372
  endloop
endfacet
facet normal -2.3273535876278134e-14 -1.0 -1.1158032490524637e-26
  outer loop
    vertex 23.5000000000044 31.499999999999993 2.3053225994829394e-12
    vertex 19.500000000003443 31.50000000000009 2.0000000000001372
    vertex 19.500000000004402 31.50000000000009 3.3474097471573914e-26
  endloop
endfacet
facet normal -2.3273535876278134e-14 -1.0 -1.1158032490524637e-26
  outer loop
    vertex 19.500000000003443 31.50000000000009 2.0000000000001372
    vertex 23.5000000000044 31.499999999999993 2.3053225994829394e-12
    vertex 23.50000000000344 31.499999999999993 2.0000000000024425
  endloop
endfacet
facet normal -3.9816760999400473e-13 -1.0 1.6711320144327723e-26
  outer loop
    vertex 24.500000000020485 50.50000000000059 10.000000000002403
    vertex 1.5000000000201459 50.50000000000975 2.0000000000033635
    vertex 24.500000000020147 50.50000000000059 2.000000000002406
  endloop
endfacet
facet normal -3.9816760999400473e-13 -1.0 1.6711320144327723e-26
  outer loop
    vertex 1.5000000000201459 50.50000000000975 2.0000000000033635
    vertex 24.500000000020485 50.50000000000059 10.000000000002403
    vertex 1.5000000000204814 50.50000000000975 10.000000000003372
  endloop
endfacet
facet normal 4.244091391265792e-14 -2.2214636145047626e-26 1.0
  outer loop
    vertex 0.03407417371160291 0.7411809549078201 10.000000000003428
    vertex 2.0687274115971376e-11 51.00000000001035 10.000000000003428
    vertex 7.783107491832197e-13 1.0000000000103548 10.000000000003428
  endloop
endfacet
facet normal 4.244091391265792e-14 -2.2214636145047626e-26 1.0
  outer loop
    vertex 2.0687274115971376e-11 51.00000000001035 10.000000000003428
    vertex 0.03407417371160291 0.7411809549078201 10.000000000003428
    vertex 0.034074173731720545 51.258819045112865 10.000000000003428
  endloop
endfacet
facet normal 4.244091391265792e-14 -2.2214636145047626e-26 1.0
  outer loop
    vertex 0.034074173731720545 51.258819045112865 10.000000000003428
    vertex 0.03407417371160291 0.7411809549078201 10.000000000003428
    vertex 0.1339745962161399 0.5000000000103011 10.00000000000342
  endloop
endfacet
facet normal 4.244091391265792e-14 -2.2214636145047626e-26 1.0
  outer loop
    vertex 0.034074173731720545 51.258819045112865 10.000000000003428
    vertex 0.1339745962161399 0.5000000000103011 10.00000000000342
    vertex 0.13397459623644367 51.5000000000103 10.00000000000342
  endloop
endfacet
facet normal 4.244091391265792e-14 -2.2214636145047626e-26 1.0
  outer loop
    vertex 0.13397459623644367 51.5000000000103 10.00000000000342
    vertex 0.1339745962161399 0.5000000000103011 10.00000000000342
    vertex 0.2928932188139452 0.2928932188236903 10.000000000003421
  endloop
endfacet
facet normal 4.244091391265792e-14 -2.2214636145047626e-26 1.0
  outer loop
    vertex 0.13397459623644367 51.5000000000103 10.00000000000342
    vertex 0.2928932188139452 0.2928932188236903 10.000000000003421
    vertex 0.29289321883441816 51.707106781196785 10.000000000003421
  endloop
endfacet
facet normal 4.244091391265792e-14 -2.2214636145047626e-26 1.0
  outer loop
    vertex 0.29289321883441816 51.707106781196785 10.000000000003421
    vertex 0.2928932188139452 0.2928932188236903 10.000000000003421
    vertex 0.5000000000004278 0.13397459622571686 10.000000000003402
  endloop
endfacet
facet normal 4.244091391265792e-14 -2.2214636145047626e-26 1.0
  outer loop
    vertex 0.29289321883441816 51.707106781196785 10.000000000003421
    vertex 0.5000000000004278 0.13397459622571686 10.000000000003402
    vertex 0.5000000000210304 51.866025403794595 10.000000000003402
  endloop
endfacet
facet normal 4.244091391265792e-14 -2.2214636145047626e-26 1.0
  outer loop
    vertex 0.5000000000210304 51.866025403794595 10.000000000003402
    vertex 0.5000000000004278 0.13397459622571686 10.000000000003402
    vertex 0.7411809548978702 0.03407417372099128 10.000000000003395
  endloop
endfacet
facet normal 4.244091391265792e-14 -2.2214636145047626e-26 1.0
  outer loop
    vertex 0.5000000000210304 51.866025403794595 10.000000000003402
    vertex 0.7411809548978702 0.03407417372099128 10.000000000003395
    vertex 0.741180954918549 51.96592582629912 10.000000000003395
  endloop
endfacet
facet normal 4.244091391265792e-14 -2.2214636145047626e-26 1.0
  outer loop
    vertex 0.741180954918549 51.96592582629912 10.000000000003395
    vertex 0.7411809548978702 0.03407417372099128 10.000000000003395
    vertex 1.0000000000003788 9.956596658255988e-12 10.000000000003388
  endloop
endfacet
facet normal 4.244091391265792e-14 -2.2214636145047626e-26 1.0
  outer loop
    vertex 0.741180954918549 51.96592582629912 10.000000000003395
    vertex 1.0000000000003788 9.956596658255988e-12 10.000000000003388
    vertex 1.0000000000210831 52.000000000009955 10.000000000003388
  endloop
endfacet
facet normal 4.244091391265792e-14 -2.2214636145047626e-26 1.0
  outer loop
    vertex 1.0000000000210831 52.000000000009955 10.000000000003388
    vertex 1.0000000000003788 9.956596658255988e-12 10.000000000003388
    vertex 1.500000000000973 1.5000000000097544 10.000000000003372
  endloop
endfacet
facet normal 4.244091391265792e-14 -2.2214636145047626e-26 1.0
  outer loop
    vertex 1.500000000000973 1.5000000000097544 10.000000000003372
    vertex 1.0000000000003788 9.956596658255988e-12 10.000000000003388
    vertex 26.000000000000377 0.0 10.000000000002334
  endloop
endfacet
facet normal 4.244091391265792e-14 -2.2214636145047626e-26 1.0
  outer loop
    vertex 1.500000000000973 1.5000000000097544 10.000000000003372
    vertex 26.000000000000377 0.0 10.000000000002334
    vertex 24.500000000000977 1.500000000000595 10.000000000002403
  endloop
endfacet
facet normal 4.244091391265792e-14 -2.2214636145047626e-26 1.0
  outer loop
    vertex 24.500000000000977 1.500000000000595 10.000000000002403
    vertex 26.000000000000377 0.0 10.000000000002334
    vertex 24.500000000005752 13.5 10.000000000002357
  endloop
endfacet
facet normal 4.244091391265792e-14 -2.2214636145047626e-26 1.0
  outer loop
    vertex 24.500000000005752 13.5 10.000000000002357
    vertex 26.000000000000377 0.0 10.000000000002334
    vertex 26.000000000001553 13.5 10.000000000002334
  endloop
endfacet
facet normal 4.244091391265792e-14 -2.2214636145047626e-26 1.0
  outer loop
    vertex 26.00000000000776 38.5 10.000000000002334
    vertex 24.500000000020485 50.50000000000059 10.000000000002403
    vertex 24.500000000015707 38.5 10.000000000002357
  endloop
endfacet
facet normal 4.244091391265792e-14 -2.2214636145047626e-26 1.0
  outer loop
    vertex 1.0000000000210831 52.000000000009955 10.000000000003388
    vertex 1.5000000000204814 50.50000000000975 10.000000000003372
    vertex 26.00000000002108 51.99999999999999 10.000000000002334
  endloop
endfacet
facet normal 4.244091391265792e-14 -2.2214636145047626e-26 1.0
  outer loop
    vertex 1.5000000000204814 50.50000000000975 10.000000000003372
    vertex 1.0000000000210831 52.000000000009955 10.000000000003388
    vertex 1.500000000000973 1.5000000000097544 10.000000000003372
  endloop
endfacet
facet normal 4.244091391265792e-14 -2.2214636145047626e-26 1.0
  outer loop
    vertex 26.00000000002108 51.99999999999999 10.000000000002334
    vertex 1.5000000000204814 50.50000000000975 10.000000000003372
    vertex 24.500000000020485 50.50000000000059 10.000000000002403
  endloop
endfacet
facet normal 4.244091391265792e-14 -2.2214636145047626e-26 1.0
  outer loop
    vertex 26.00000000002108 51.99999999999999 10.000000000002334
    vertex 24.500000000020485 50.50000000000059 10.000000000002403
    vertex 26.00000000000776 38.5 10.000000000002334
  endloop
endfacet
facet normal 1.0 -1.0890204216698539e-13 -1.1629321037634423e-14
  outer loop
    vertex 25.999999999999996 0.034074173710926116 0.741180954899816
    vertex 26.000000000000377 0.0 10.000000000002334
    vertex 25.999999999999996 0.0 1.0000000000023388
  endloop
endfacet
facet normal 1.0 -1.0890204216698539e-13 -1.1629321037634423e-14
  outer loop
    vertex 26.000000000000377 0.0 10.000000000002334
    vertex 25.999999999999996 0.034074173710926116 0.741180954899816
    vertex 26.000000000001553 13.5 10.000000000002334
  endloop
endfacet
facet normal 1.0 -1.0890204216698539e-13 -1.1629321037634423e-14
  outer loop
    vertex 26.000000000001553 13.5 10.000000000002334
    vertex 25.999999999999996 0.034074173710926116 0.741180954899816
    vertex 26.000000000000032 0.13397459621555335 0.5000000000023397
  endloop
endfacet
facet normal 1.0 -1.0890204216698539e-13 -1.1629321037634423e-14
  outer loop
    vertex 26.000000000001553 13.5 10.000000000002334
    vertex 26.000000000000032 0.13397459621555335 0.5000000000023397
    vertex 26.00000000000008 0.2928932188134489 0.29289321881578945
  endloop
endfacet
facet normal 1.0 -1.0890204216698539e-13 -1.1629321037634423e-14
  outer loop
    vertex 26.000000000001553 13.5 10.000000000002334
    vertex 26.00000000000008 0.2928932188134489 0.29289321881578945
    vertex 26.00000000000016 0.49999999999999906 0.13397459621790522
  endloop
endfacet
facet normal 1.0 -1.0890204216698539e-13 -1.1629321037634423e-14
  outer loop
    vertex 26.000000000001553 13.5 10.000000000002334
    vertex 26.00000000000016 0.49999999999999906 0.13397459621790522
    vertex 26.000000000000252 0.7411809548974754 0.03407417371326669
  endloop
endfacet
facet normal 1.0 -1.0890204216698539e-13 -1.1629321037634423e-14
  outer loop
    vertex 26.000000000001553 13.5 10.000000000002334
    vertex 26.000000000000252 0.7411809548974754 0.03407417371326669
    vertex 26.00000000000035 0.9999999999999981 2.340572180514755e-12
  endloop
endfacet
facet normal 1.0 -1.0890204216698539e-13 -1.1629321037634423e-14
  outer loop
    vertex 26.000000000001553 13.5 10.000000000002334
    vertex 26.00000000000035 0.9999999999999981 2.340572180514755e-12
    vertex 26.00000000000169 13.5 2.340572180514755e-12
  endloop
endfacet
facet normal -0.6087614290090398 -0.7933533402909902 2.548764956567727e-14
  outer loop
    vertex 0.5000000000004278 0.13397459622571686 10.000000000003402
    vertex 0.29289321881357294 0.292893218823691 1.0000000000034273
    vertex 0.5000000000000555 0.13397459622571722 1.0000000000034075
  endloop
endfacet
facet normal -0.6087614290090398 -0.7933533402909902 2.548764956567727e-14
  outer loop
    vertex 0.29289321881357294 0.292893218823691 1.0000000000034273
    vertex 0.5000000000004278 0.13397459622571686 10.000000000003402
    vertex 0.2928932188139452 0.2928932188236903 10.000000000003421
  endloop
endfacet
facet normal -0.9914448613737579 0.13052619222045203 4.1586728606048176e-14
  outer loop
    vertex 0.034074173731720545 51.258819045112865 10.000000000003428
    vertex 2.0303758674344863e-11 51.00000000001035 1.0000000000034344
    vertex 2.0687274115971376e-11 51.00000000001035 10.000000000003428
  endloop
endfacet
facet normal -0.9914448613737579 0.13052619222045203 4.1586728606048176e-14
  outer loop
    vertex 2.0303758674344863e-11 51.00000000001035 1.0000000000034344
    vertex 0.034074173731720545 51.258819045112865 10.000000000003428
    vertex 0.03407417373134267 51.258819045112865 1.0000000000034344
  endloop
endfacet
facet normal 1.0 -2.056460557398055e-13 3.4363104000650626e-13
  outer loop
    vertex 23.500000000004338 20.499999999999996 2.3053225994828594e-12
    vertex 23.500000000001663 13.5 2.0000000000024425
    vertex 23.50000000000169 13.5 2.3053225994829063e-12
  endloop
endfacet
facet normal 1.0 -2.056460557398055e-13 3.4363104000650626e-13
  outer loop
    vertex 23.500000000001663 13.5 2.0000000000024425
    vertex 23.500000000004338 20.499999999999996 2.3053225994828594e-12
    vertex 23.500000000002988 20.499999999999996 2.0000000000024425
  endloop
endfacet
facet normal -3.4143782342729965e-13 -0.793353340291227 -0.6087614290087313
  outer loop
    vertex 26.000000000000032 0.13397459621555335 0.5000000000023397
    vertex 0.29289321881353914 0.29289321882367975 0.2928932188168667
    vertex 26.00000000000008 0.2928932188134489 0.29289321881578945
  endloop
endfacet
facet normal -3.4143782342729965e-13 -0.793353340291227 -0.6087614290087313
  outer loop
    vertex 0.29289321881353914 0.29289321882367975 0.2928932188168667
    vertex 26.000000000000032 0.13397459621555335 0.5000000000023397
    vertex 0.13397459621559285 0.13397459622585187 0.5000000000034254
  endloop
endfacet
facet normal -4.0040025156310285e-13 -0.9914448613738127 -0.1305261922200351
  outer loop
    vertex 25.999999999999996 0.0 1.0000000000023388
    vertex 0.03407417371093739 0.03407417372126975 0.7411809549009115
    vertex 25.999999999999996 0.034074173710926116 0.741180954899816
  endloop
endfacet
facet normal -4.0040025156310285e-13 -0.9914448613738127 -0.1305261922200351
  outer loop
    vertex 0.03407417371093739 0.03407417372126975 0.7411809549009115
    vertex 25.999999999999996 0.0 1.0000000000023388
    vertex 1.0000000000000009 9.956596658255988e-12 1.000000000003392
  endloop
endfacet
facet normal -4.0040025156310285e-13 -0.9914448613738127 -0.1305261922200351
  outer loop
    vertex 0.03407417371093739 0.03407417372126975 0.7411809549009115
    vertex 1.0000000000000009 9.956596658255988e-12 1.000000000003392
    vertex 0.0 1.0354916923915879e-11 1.0000000000034344
  endloop
endfacet
facet normal -1.9114776127273728e-13 -0.38268343236509345 -0.9238795325112854
  outer loop
    vertex 0.7411809548977292 0.741180954907537 0.03407417371432699
    vertex 26.00000000000016 0.49999999999999906 0.13397459621790522
    vertex 0.500000000000157 0.500000000010151 0.13397459621897398
  endloop
endfacet
facet normal -1.9114776127273728e-13 -0.38268343236509345 -0.9238795325112854
  outer loop
    vertex 26.00000000000016 0.49999999999999906 0.13397459621790522
    vertex 0.7411809548977292 0.741180954907537 0.03407417371432699
    vertex 26.000000000000252 0.7411809548974754 0.03407417371326669
  endloop
endfacet
facet normal -0.923879532511306 3.678589685835992e-13 -0.3826834323650434
  outer loop
    vertex 0.03407417373161903 51.965925826299404 0.7411809549009115
    vertex 0.13397459621559285 0.13397459622585187 0.5000000000034254
    vertex 0.03407417371093739 0.03407417372126975 0.7411809549009115
  endloop
endfacet
facet normal -0.923879532511306 3.678589685835992e-13 -0.3826834323650434
  outer loop
    vertex 0.13397459621559285 0.13397459622585187 0.5000000000034254
    vertex 0.03407417373161903 51.965925826299404 0.7411809549009115
    vertex 0.1339745962361955 51.86602540379474 0.5000000000034254
  endloop
endfacet
facet normal -3.83920313252454e-13 -0.92387953251129 -0.3826834323650822
  outer loop
    vertex 25.999999999999996 0.034074173710926116 0.741180954899816
    vertex 0.13397459621559285 0.13397459622585187 0.5000000000034254
    vertex 26.000000000000032 0.13397459621555335 0.5000000000023397
  endloop
endfacet
facet normal -3.83920313252454e-13 -0.92387953251129 -0.3826834323650822
  outer loop
    vertex 0.13397459621559285 0.13397459622585187 0.5000000000034254
    vertex 25.999999999999996 0.034074173710926116 0.741180954899816
    vertex 0.03407417371093739 0.03407417372126975 0.7411809549009115
  endloop
endfacet
facet normal 2.0907678488619402e-13 0.6087614290087204 -0.7933533402912354
  outer loop
    vertex 26.000000000020556 51.707106781186546 0.29289321881578945
    vertex 0.5000000000204664 51.50000000001015 0.13397459621897398
    vertex 0.29289321883400643 51.70710678119678 0.2928932188168667
  endloop
endfacet
facet normal 2.0907678488619402e-13 0.6087614290087204 -0.7933533402912354
  outer loop
    vertex 0.5000000000204664 51.50000000001015 0.13397459621897398
    vertex 26.000000000020556 51.707106781186546 0.29289321881578945
    vertex 26.000000000020464 51.49999999999999 0.13397459621790522
  endloop
endfacet
facet normal -4.4261080132618474e-14 2.1397951672400426e-26 -1.0
  outer loop
    vertex 1.0000000000202625 51.00000000000995 3.3938296617463945e-12
    vertex 19.500000000004402 31.50000000000009 3.3474097471573914e-26
    vertex 19.500000000004338 20.50000000000009 -4.701963618812695e-26
  endloop
endfacet
facet normal -4.4261080132618474e-14 2.1397951672400426e-26 -1.0
  outer loop
    vertex 19.500000000004402 31.50000000000009 3.3474097471573914e-26
    vertex 1.0000000000202625 51.00000000000995 3.3938296617463945e-12
    vertex 26.00000000002026 51.0 2.340572180514755e-12
  endloop
endfacet
facet normal -4.4261080132618474e-14 2.1397951672400426e-26 -1.0
  outer loop
    vertex 19.500000000004402 31.50000000000009 3.3474097471573914e-26
    vertex 26.00000000002026 51.0 2.340572180514755e-12
    vertex 23.500000000007898 38.5 2.3053225994829063e-12
  endloop
endfacet
facet normal -4.4261080132618474e-14 2.1397951672400426e-26 -1.0
  outer loop
    vertex 19.500000000004402 31.50000000000009 3.3474097471573914e-26
    vertex 23.500000000007898 38.5 2.3053225994829063e-12
    vertex 23.5000000000044 31.499999999999993 2.3053225994829394e-12
  endloop
endfacet
facet normal -4.4261080132618474e-14 2.1397951672400426e-26 -1.0
  outer loop
    vertex 23.500000000007898 38.5 2.3053225994829063e-12
    vertex 26.00000000002026 51.0 2.340572180514755e-12
    vertex 26.000000000007898 38.5 2.340572180514755e-12
  endloop
endfacet
facet normal -4.4261080132618474e-14 2.1397951672400426e-26 -1.0
  outer loop
    vertex 23.500000000004338 20.499999999999996 2.3053225994828594e-12
    vertex 23.50000000000169 13.5 2.3053225994829063e-12
    vertex 19.500000000004338 20.50000000000009 -4.701963618812695e-26
  endloop
endfacet
facet normal -4.4261080132618474e-14 2.1397951672400426e-26 -1.0
  outer loop
    vertex 1.0000000000202625 51.00000000000995 3.3938296617463945e-12
    vertex 26.00000000000035 0.9999999999999981 2.340572180514755e-12
    vertex 1.0000000000003535 1.000000000009947 3.3938296617463945e-12
  endloop
endfacet
facet normal -4.4261080132618474e-14 2.1397951672400426e-26 -1.0
  outer loop
    vertex 26.00000000000035 0.9999999999999981 2.340572180514755e-12
    vertex 1.0000000000202625 51.00000000000995 3.3938296617463945e-12
    vertex 19.500000000004338 20.50000000000009 -4.701963618812695e-26
  endloop
endfacet
facet normal -4.4261080132618474e-14 2.1397951672400426e-26 -1.0
  outer loop
    vertex 26.00000000000035 0.9999999999999981 2.340572180514755e-12
    vertex 19.500000000004338 20.50000000000009 -4.701963618812695e-26
    vertex 23.50000000000169 13.5 2.3053225994829063e-12
  endloop
endfacet
facet normal -4.4261080132618474e-14 2.1397951672400426e-26 -1.0
  outer loop
    vertex 26.00000000000035 0.9999999999999981 2.340572180514755e-12
    vertex 23.50000000000169 13.5 2.3053225994829063e-12
    vertex 26.00000000000169 13.5 2.340572180514755e-12
  endloop
endfacet
facet normal 1.0 -2.483288921717452e-13 1.0226481256205907e-12
  outer loop
    vertex 23.500000000007898 38.5 2.3053225994829063e-12
    vertex 23.50000000000344 31.499999999999993 2.0000000000024425
    vertex 23.5000000000044 31.499999999999993 2.3053225994829394e-12
  endloop
endfacet
facet normal 1.0 -2.483288921717452e-13 1.0226481256205907e-12
  outer loop
    vertex 23.50000000000344 31.499999999999993 2.0000000000024425
    vertex 23.500000000007898 38.5 2.3053225994829063e-12
    vertex 23.500000000004768 38.5 2.0000000000024425
  endloop
endfacet
facet normal 0.0 1.0 0.0
  outer loop
    vertex 23.500000000001663 13.5 2.0000000000024425
    vertex 26.00000000000169 13.5 2.340572180514755e-12
    vertex 23.50000000000169 13.5 2.3053225994829063e-12
  endloop
endfacet
facet normal 0.0 1.0 0.0
  outer loop
    vertex 26.00000000000169 13.5 2.340572180514755e-12
    vertex 23.500000000001663 13.5 2.0000000000024425
    vertex 24.500000000005418 13.5 2.000000000002406
  endloop
endfacet
facet normal 0.0 1.0 0.0
  outer loop
    vertex 24.500000000005418 13.5 2.000000000002406
    vertex 26.000000000001553 13.5 10.000000000002334
    vertex 26.00000000000169 13.5 2.340572180514755e-12
  endloop
endfacet
facet normal 0.0 1.0 0.0
  outer loop
    vertex 26.000000000001553 13.5 10.000000000002334
    vertex 24.500000000005418 13.5 2.000000000002406
    vertex 24.500000000005752 13.5 10.000000000002357
  endloop
endfacet
facet normal -1.0 3.9817926733576314e-13 4.194552295531944e-14
  outer loop
    vertex 2.0687274115971376e-11 51.00000000001035 10.000000000003428
    vertex 3.9479530755670567e-13 1.0000000000103566 1.0000000000034344
    vertex 7.783107491832197e-13 1.0000000000103548 10.000000000003428
  endloop
endfacet
facet normal -1.0 3.9817926733576314e-13 4.194552295531944e-14
  outer loop
    vertex 3.9479530755670567e-13 1.0000000000103566 1.0000000000034344
    vertex 2.0687274115971376e-11 51.00000000001035 10.000000000003428
    vertex 2.0303758674344863e-11 51.00000000001035 1.0000000000034344
  endloop
endfacet
facet normal -0.6087614290084008 0.7933533402914809 2.4789554553647365e-14
  outer loop
    vertex 0.2928932188340403 51.70710678119678 1.0000000000034273
    vertex 0.5000000000210304 51.866025403794595 10.000000000003402
    vertex 0.5000000000206525 51.86602540379458 1.0000000000034188
  endloop
endfacet
facet normal -0.6087614290084008 0.7933533402914809 2.4789554553647365e-14
  outer loop
    vertex 0.5000000000210304 51.866025403794595 10.000000000003402
    vertex 0.2928932188340403 51.70710678119678 1.0000000000034273
    vertex 0.29289321883441816 51.707106781196785 10.000000000003421
  endloop
endfacet
facet normal 1.0 -3.9816760999400473e-13 -4.197056647721634e-14
  outer loop
    vertex 1.5000000000201459 50.50000000000975 2.0000000000033635
    vertex 1.500000000000973 1.5000000000097544 10.000000000003372
    vertex 1.5000000000006375 1.5000000000097544 2.0000000000033635
  endloop
endfacet
facet normal 1.0 -3.9816760999400473e-13 -4.197056647721634e-14
  outer loop
    vertex 1.500000000000973 1.5000000000097544 10.000000000003372
    vertex 1.5000000000201459 50.50000000000975 2.0000000000033635
    vertex 1.5000000000204814 50.50000000000975 10.000000000003372
  endloop
endfacet
facet normal -0.7933533402909886 0.608761429009042 3.2895572523358855e-14
  outer loop
    vertex 0.13397459623644367 51.5000000000103 10.00000000000342
    vertex 0.2928932188340403 51.70710678119678 1.0000000000034273
    vertex 0.1339745962360658 51.500000000010296 1.0000000000034244
  endloop
endfacet
facet normal -0.7933533402909886 0.608761429009042 3.2895572523358855e-14
  outer loop
    vertex 0.2928932188340403 51.70710678119678 1.0000000000034273
    vertex 0.13397459623644367 51.5000000000103 10.00000000000342
    vertex 0.29289321883441816 51.707106781196785 10.000000000003421
  endloop
endfacet
facet normal 4.364368001561076e-14 -9.01817113436041e-16 1.0
  outer loop
    vertex 0.03407417373134267 51.258819045112865 1.0000000000034344
    vertex 2.0704193914866663e-11 52.00000000001035 1.0000000000034344
    vertex 2.0303758674344863e-11 51.00000000001035 1.0000000000034344
  endloop
endfacet
facet normal 4.364368001561076e-14 -9.01817113436041e-16 1.0
  outer loop
    vertex 2.0704193914866663e-11 52.00000000001035 1.0000000000034344
    vertex 0.03407417373134267 51.258819045112865 1.0000000000034344
    vertex 0.1339745962360658 51.500000000010296 1.0000000000034244
  endloop
endfacet
facet normal 4.364368001561076e-14 -9.01817113436041e-16 1.0
  outer loop
    vertex 2.0704193914866663e-11 52.00000000001035 1.0000000000034344
    vertex 0.1339745962360658 51.500000000010296 1.0000000000034244
    vertex 0.2928932188340403 51.70710678119678 1.0000000000034273
  endloop
endfacet
facet normal 4.364368001561076e-14 -9.01817113436041e-16 1.0
  outer loop
    vertex 2.0704193914866663e-11 52.00000000001035 1.0000000000034344
    vertex 0.2928932188340403 51.70710678119678 1.0000000000034273
    vertex 0.5000000000206525 51.86602540379458 1.0000000000034188
  endloop
endfacet
facet normal 4.364368001561076e-14 -9.01817113436041e-16 1.0
  outer loop
    vertex 2.0704193914866663e-11 52.00000000001035 1.0000000000034344
    vertex 0.5000000000206525 51.86602540379458 1.0000000000034188
    vertex 0.7411809549181712 51.96592582629912 1.000000000003399
  endloop
endfacet
facet normal 4.364368001561076e-14 -9.01817113436041e-16 1.0
  outer loop
    vertex 2.0704193914866663e-11 52.00000000001035 1.0000000000034344
    vertex 0.7411809549181712 51.96592582629912 1.000000000003399
    vertex 1.0000000000207052 52.00000000000994 1.000000000003392
  endloop
endfacet
facet normal -0.923879532511138 0.38268343236544894 3.863344855681402e-14
  outer loop
    vertex 0.13397459623644367 51.5000000000103 10.00000000000342
    vertex 0.03407417373134267 51.258819045112865 1.0000000000034344
    vertex 0.034074173731720545 51.258819045112865 10.000000000003428
  endloop
endfacet
facet normal -0.923879532511138 0.38268343236544894 3.863344855681402e-14
  outer loop
    vertex 0.03407417373134267 51.258819045112865 1.0000000000034344
    vertex 0.13397459623644367 51.5000000000103 10.00000000000342
    vertex 0.1339745962360658 51.500000000010296 1.0000000000034244
  endloop
endfacet
endsolid BoxyLid
