solid Base
facet normal 1.0 0.0 0.0
  outer loop
    vertex 446.2075972567667 28.613773045878304 15.999999999999996
    vertex 446.2075972567667 28.54562469845644 16.51763809020504
    vertex 446.2075972567667 28.613773045878304 3.0000000000000013
  endloop
endfacet
facet normal 1.0 0.0 0.0
  outer loop
    vertex 446.2075972567667 42.613773045878304 0.0
    vertex 446.2075972567667 18.613773045878307 3.0
    vertex 446.2075972567667 18.613773045878307 0.0
  endloop
endfacet
facet normal 1.0 0.0 0.0
  outer loop
    vertex 446.2075972567667 18.613773045878307 3.0
    vertex 446.2075972567667 42.613773045878304 0.0
    vertex 446.2075972567667 24.613773045878307 3.0
  endloop
endfacet
facet normal 1.0 0.0 0.0
  outer loop
    vertex 446.2075972567667 24.613773045878307 3.0
    vertex 446.2075972567667 42.613773045878304 0.0
    vertex 446.2075972567667 28.613773045878304 3.0000000000000013
  endloop
endfacet
facet normal 1.0 0.0 0.0
  outer loop
    vertex 446.2075972567667 24.613773045878307 3.0
    vertex 446.2075972567667 28.613773045878304 3.0000000000000013
    vertex 446.2075972567667 24.613773045878307 15.999999999999996
  endloop
endfacet
facet normal 1.0 0.0 0.0
  outer loop
    vertex 446.2075972567667 24.613773045878307 15.999999999999996
    vertex 446.2075972567667 28.613773045878304 3.0000000000000013
    vertex 446.2075972567667 24.68192139330017 16.51763809020504
  endloop
endfacet
facet normal 1.0 0.0 0.0
  outer loop
    vertex 446.2075972567667 24.68192139330017 16.51763809020504
    vertex 446.2075972567667 28.613773045878304 3.0000000000000013
    vertex 446.2075972567667 24.88172223830943 16.999999999999996
  endloop
endfacet
facet normal 1.0 0.0 0.0
  outer loop
    vertex 446.2075972567667 24.88172223830943 16.999999999999996
    vertex 446.2075972567667 28.613773045878304 3.0000000000000013
    vertex 446.2075972567667 25.199559483505208 17.414213562373092
  endloop
endfacet
facet normal 1.0 0.0 0.0
  outer loop
    vertex 446.2075972567667 25.199559483505208 17.414213562373092
    vertex 446.2075972567667 28.613773045878304 3.0000000000000013
    vertex 446.2075972567667 25.613773045878304 17.73205080756887
  endloop
endfacet
facet normal 1.0 0.0 0.0
  outer loop
    vertex 446.2075972567667 25.613773045878304 17.73205080756887
    vertex 446.2075972567667 28.613773045878304 3.0000000000000013
    vertex 446.2075972567667 26.096134955673264 17.931851652578132
  endloop
endfacet
facet normal 1.0 0.0 0.0
  outer loop
    vertex 446.2075972567667 26.096134955673264 17.931851652578132
    vertex 446.2075972567667 28.613773045878304 3.0000000000000013
    vertex 446.2075972567667 26.613773045878307 17.999999999999996
  endloop
endfacet
facet normal 1.0 0.0 0.0
  outer loop
    vertex 446.2075972567667 26.613773045878307 17.999999999999996
    vertex 446.2075972567667 28.613773045878304 3.0000000000000013
    vertex 446.2075972567667 27.131411136083347 17.931851652578132
  endloop
endfacet
facet normal 1.0 0.0 0.0
  outer loop
    vertex 446.2075972567667 27.131411136083347 17.931851652578132
    vertex 446.2075972567667 28.613773045878304 3.0000000000000013
    vertex 446.2075972567667 27.613773045878307 17.73205080756887
  endloop
endfacet
facet normal 1.0 0.0 0.0
  outer loop
    vertex 446.2075972567667 27.613773045878307 17.73205080756887
    vertex 446.2075972567667 28.613773045878304 3.0000000000000013
    vertex 446.2075972567667 28.0279866082514 17.414213562373092
  endloop
endfacet
facet normal 1.0 0.0 0.0
  outer loop
    vertex 446.2075972567667 28.0279866082514 17.414213562373092
    vertex 446.2075972567667 28.613773045878304 3.0000000000000013
    vertex 446.2075972567667 28.345823853447186 16.999999999999996
  endloop
endfacet
facet normal 1.0 0.0 0.0
  outer loop
    vertex 446.2075972567667 28.345823853447186 16.999999999999996
    vertex 446.2075972567667 28.613773045878304 3.0000000000000013
    vertex 446.2075972567667 28.54562469845644 16.51763809020504
  endloop
endfacet
facet normal 1.0 0.0 0.0
  outer loop
    vertex 446.2075972567667 28.613773045878304 3.0000000000000013
    vertex 446.2075972567667 42.613773045878304 0.0
    vertex 446.2075972567667 32.61377304587831 3.0000000000000013
  endloop
endfacet
facet normal 1.0 0.0 0.0
  outer loop
    vertex 446.2075972567667 32.61377304587831 3.0000000000000013
    vertex 446.2075972567667 42.613773045878304 0.0
    vertex 446.2075972567667 36.613773045878304 3.0
  endloop
endfacet
facet normal 1.0 0.0 0.0
  outer loop
    vertex 446.2075972567667 32.61377304587831 3.0000000000000013
    vertex 446.2075972567667 36.613773045878304 3.0
    vertex 446.2075972567667 32.61377304587831 15.999999999999998
  endloop
endfacet
facet normal 1.0 0.0 0.0
  outer loop
    vertex 446.2075972567667 32.61377304587831 15.999999999999998
    vertex 446.2075972567667 36.613773045878304 3.0
    vertex 446.2075972567667 32.68192139330017 16.517638090205043
  endloop
endfacet
facet normal 1.0 0.0 0.0
  outer loop
    vertex 446.2075972567667 32.68192139330017 16.517638090205043
    vertex 446.2075972567667 36.613773045878304 3.0
    vertex 446.2075972567667 32.88172223830943 17.0
  endloop
endfacet
facet normal 1.0 0.0 0.0
  outer loop
    vertex 446.2075972567667 32.88172223830943 17.0
    vertex 446.2075972567667 36.613773045878304 3.0
    vertex 446.2075972567667 33.19955948350521 17.414213562373096
  endloop
endfacet
facet normal 1.0 0.0 0.0
  outer loop
    vertex 446.2075972567667 33.19955948350521 17.414213562373096
    vertex 446.2075972567667 36.613773045878304 3.0
    vertex 446.2075972567667 33.613773045878304 17.732050807568875
  endloop
endfacet
facet normal 1.0 0.0 0.0
  outer loop
    vertex 446.2075972567667 33.613773045878304 17.732050807568875
    vertex 446.2075972567667 36.613773045878304 3.0
    vertex 446.2075972567667 34.096134955673264 17.931851652578136
  endloop
endfacet
facet normal 1.0 0.0 0.0
  outer loop
    vertex 446.2075972567667 34.096134955673264 17.931851652578136
    vertex 446.2075972567667 36.613773045878304 3.0
    vertex 446.2075972567667 34.613773045878304 17.999999999999996
  endloop
endfacet
facet normal 1.0 0.0 0.0
  outer loop
    vertex 446.2075972567667 34.613773045878304 17.999999999999996
    vertex 446.2075972567667 36.613773045878304 3.0
    vertex 446.2075972567667 35.13141113608335 17.931851652578136
  endloop
endfacet
facet normal 1.0 0.0 0.0
  outer loop
    vertex 446.2075972567667 35.13141113608335 17.931851652578136
    vertex 446.2075972567667 36.613773045878304 3.0
    vertex 446.2075972567667 35.613773045878304 17.732050807568875
  endloop
endfacet
facet normal 1.0 0.0 0.0
  outer loop
    vertex 446.2075972567667 35.613773045878304 17.732050807568875
    vertex 446.2075972567667 36.613773045878304 3.0
    vertex 446.2075972567667 36.0279866082514 17.414213562373096
  endloop
endfacet
facet normal 1.0 0.0 0.0
  outer loop
    vertex 446.2075972567667 36.0279866082514 17.414213562373096
    vertex 446.2075972567667 36.613773045878304 3.0
    vertex 446.2075972567667 36.345823853447186 17.0
  endloop
endfacet
facet normal 1.0 0.0 0.0
  outer loop
    vertex 446.2075972567667 36.345823853447186 17.0
    vertex 446.2075972567667 36.613773045878304 3.0
    vertex 446.2075972567667 36.54562469845644 16.517638090205043
  endloop
endfacet
facet normal 1.0 0.0 0.0
  outer loop
    vertex 446.2075972567667 36.613773045878304 3.0
    vertex 446.2075972567667 42.613773045878304 0.0
    vertex 446.2075972567667 42.613773045878304 3.0
  endloop
endfacet
facet normal 1.0 0.0 0.0
  outer loop
    vertex 446.2075972567667 36.613773045878304 15.999999999999998
    vertex 446.2075972567667 36.54562469845644 16.517638090205043
    vertex 446.2075972567667 36.613773045878304 3.0
  endloop
endfacet
facet normal -0.0 -1.0 -0.0
  outer loop
    vertex 446.2075972567667 18.613773045878307 3.0
    vertex 346.2075972567667 18.613773045878307 0.0
    vertex 446.2075972567667 18.613773045878307 0.0
  endloop
endfacet
facet normal -0.0 -1.0 -0.0
  outer loop
    vertex 346.2075972567667 18.613773045878307 0.0
    vertex 446.2075972567667 18.613773045878307 3.0
    vertex 346.2075972567667 18.613773045878307 3.0
  endloop
endfacet
facet normal 0.0 -1.0 0.0
  outer loop
    vertex 446.2075972567667 24.613773045878307 15.999999999999996
    vertex 346.2075972567667 24.613773045878307 3.0
    vertex 446.2075972567667 24.613773045878307 3.0
  endloop
endfacet
facet normal 0.0 -1.0 0.0
  outer loop
    vertex 346.2075972567667 24.613773045878307 3.0
    vertex 446.2075972567667 24.613773045878307 15.999999999999996
    vertex 346.2075972567667 24.613773045878307 15.999999999999996
  endloop
endfacet
facet normal -5.639932965095795e-17 -1.0 -1.3269212057364379e-48
  outer loop
    vertex 446.2075972567667 32.61377304587831 15.999999999999998
    vertex 346.2075972567667 32.61377304587831 3.0000000000000013
    vertex 446.2075972567667 32.61377304587831 3.0000000000000013
  endloop
endfacet
facet normal -5.639932965095795e-17 -1.0 -1.3269212057364379e-48
  outer loop
    vertex 346.2075972567667 32.61377304587831 3.0000000000000013
    vertex 446.2075972567667 32.61377304587831 15.999999999999998
    vertex 346.2075972567667 32.61377304587831 15.999999999999998
  endloop
endfacet
facet normal 0.0 -0.9238795325112871 0.382683432365089
  outer loop
    vertex 446.2075972567667 24.88172223830943 16.999999999999996
    vertex 346.2075972567667 24.68192139330017 16.51763809020504
    vertex 446.2075972567667 24.68192139330017 16.51763809020504
  endloop
endfacet
facet normal 0.0 -0.9238795325112871 0.382683432365089
  outer loop
    vertex 346.2075972567667 24.68192139330017 16.51763809020504
    vertex 446.2075972567667 24.88172223830943 16.999999999999996
    vertex 346.2075972567667 24.88172223830943 16.999999999999996
  endloop
endfacet
facet normal -1.0 1.3013105347106903e-16 4.7546076587564694e-17
  outer loop
    vertex 346.2075972567667 24.68192139330017 16.51763809020504
    vertex 346.2075972567667 24.613773045878307 3.0
    vertex 346.2075972567667 24.613773045878307 15.999999999999996
  endloop
endfacet
facet normal -1.0 1.3013105347106903e-16 4.7546076587564694e-17
  outer loop
    vertex 346.2075972567667 32.68192139330017 16.517638090205043
    vertex 346.2075972567667 32.61377304587831 3.0000000000000013
    vertex 346.2075972567667 32.61377304587831 15.999999999999998
  endloop
endfacet
facet normal -1.0 1.3013105347106903e-16 4.7546076587564694e-17
  outer loop
    vertex 346.2075972567667 24.613773045878307 3.0
    vertex 346.2075972567667 18.613773045878307 0.0
    vertex 346.2075972567667 18.613773045878307 3.0
  endloop
endfacet
facet normal -1.0 1.3013105347106903e-16 4.7546076587564694e-17
  outer loop
    vertex 346.2075972567667 18.613773045878307 0.0
    vertex 346.2075972567667 24.613773045878307 3.0
    vertex 346.2075972567667 42.613773045878304 0.0
  endloop
endfacet
facet normal -1.0 1.3013105347106903e-16 4.7546076587564694e-17
  outer loop
    vertex 346.2075972567667 42.613773045878304 0.0
    vertex 346.2075972567667 24.613773045878307 3.0
    vertex 346.2075972567667 28.613773045878304 3.0000000000000013
  endloop
endfacet
facet normal -1.0 1.3013105347106903e-16 4.7546076587564694e-17
  outer loop
    vertex 346.2075972567667 28.613773045878304 3.0000000000000013
    vertex 346.2075972567667 24.613773045878307 3.0
    vertex 346.2075972567667 24.68192139330017 16.51763809020504
  endloop
endfacet
facet normal -1.0 1.3013105347106903e-16 4.7546076587564694e-17
  outer loop
    vertex 346.2075972567667 28.613773045878304 3.0000000000000013
    vertex 346.2075972567667 24.68192139330017 16.51763809020504
    vertex 346.2075972567667 24.88172223830943 16.999999999999996
  endloop
endfacet
facet normal -1.0 1.3013105347106903e-16 4.7546076587564694e-17
  outer loop
    vertex 346.2075972567667 28.613773045878304 3.0000000000000013
    vertex 346.2075972567667 24.88172223830943 16.999999999999996
    vertex 346.2075972567667 25.199559483505208 17.414213562373092
  endloop
endfacet
facet normal -1.0 1.3013105347106903e-16 4.7546076587564694e-17
  outer loop
    vertex 346.2075972567667 28.613773045878304 3.0000000000000013
    vertex 346.2075972567667 25.199559483505208 17.414213562373092
    vertex 346.2075972567667 25.613773045878304 17.73205080756887
  endloop
endfacet
facet normal -1.0 1.3013105347106903e-16 4.7546076587564694e-17
  outer loop
    vertex 346.2075972567667 28.613773045878304 3.0000000000000013
    vertex 346.2075972567667 25.613773045878304 17.73205080756887
    vertex 346.2075972567667 26.096134955673264 17.931851652578132
  endloop
endfacet
facet normal -1.0 1.3013105347106903e-16 4.7546076587564694e-17
  outer loop
    vertex 346.2075972567667 28.613773045878304 3.0000000000000013
    vertex 346.2075972567667 26.096134955673264 17.931851652578132
    vertex 346.2075972567667 26.613773045878307 17.999999999999996
  endloop
endfacet
facet normal -1.0 1.3013105347106903e-16 4.7546076587564694e-17
  outer loop
    vertex 346.2075972567667 28.613773045878304 3.0000000000000013
    vertex 346.2075972567667 26.613773045878307 17.999999999999996
    vertex 346.2075972567667 27.131411136083347 17.931851652578132
  endloop
endfacet
facet normal -1.0 1.3013105347106903e-16 4.7546076587564694e-17
  outer loop
    vertex 346.2075972567667 28.613773045878304 3.0000000000000013
    vertex 346.2075972567667 27.131411136083347 17.931851652578132
    vertex 346.2075972567667 27.613773045878307 17.73205080756887
  endloop
endfacet
facet normal -1.0 1.3013105347106903e-16 4.7546076587564694e-17
  outer loop
    vertex 346.2075972567667 28.613773045878304 3.0000000000000013
    vertex 346.2075972567667 27.613773045878307 17.73205080756887
    vertex 346.2075972567667 28.0279866082514 17.414213562373092
  endloop
endfacet
facet normal -1.0 1.3013105347106903e-16 4.7546076587564694e-17
  outer loop
    vertex 346.2075972567667 28.613773045878304 3.0000000000000013
    vertex 346.2075972567667 28.0279866082514 17.414213562373092
    vertex 346.2075972567667 28.345823853447186 16.999999999999996
  endloop
endfacet
facet normal -1.0 1.3013105347106903e-16 4.7546076587564694e-17
  outer loop
    vertex 346.2075972567667 28.613773045878304 3.0000000000000013
    vertex 346.2075972567667 28.345823853447186 16.999999999999996
    vertex 346.2075972567667 28.54562469845644 16.51763809020504
  endloop
endfacet
facet normal -1.0 1.3013105347106903e-16 4.7546076587564694e-17
  outer loop
    vertex 346.2075972567667 28.613773045878304 3.0000000000000013
    vertex 346.2075972567667 28.54562469845644 16.51763809020504
    vertex 346.2075972567667 28.613773045878304 15.999999999999996
  endloop
endfacet
facet normal -1.0 1.3013105347106903e-16 4.7546076587564694e-17
  outer loop
    vertex 346.2075972567667 42.613773045878304 0.0
    vertex 346.2075972567667 28.613773045878304 3.0000000000000013
    vertex 346.2075972567667 32.61377304587831 3.0000000000000013
  endloop
endfacet
facet normal -1.0 1.3013105347106903e-16 4.7546076587564694e-17
  outer loop
    vertex 346.2075972567667 42.613773045878304 0.0
    vertex 346.2075972567667 32.61377304587831 3.0000000000000013
    vertex 346.2075972567667 36.613773045878304 3.0
  endloop
endfacet
facet normal -1.0 1.3013105347106903e-16 4.7546076587564694e-17
  outer loop
    vertex 346.2075972567667 36.613773045878304 3.0
    vertex 346.2075972567667 32.61377304587831 3.0000000000000013
    vertex 346.2075972567667 32.68192139330017 16.517638090205043
  endloop
endfacet
facet normal -1.0 1.3013105347106903e-16 4.7546076587564694e-17
  outer loop
    vertex 346.2075972567667 36.613773045878304 3.0
    vertex 346.2075972567667 32.68192139330017 16.517638090205043
    vertex 346.2075972567667 32.88172223830943 16.999999999999996
  endloop
endfacet
facet normal -1.0 1.3013105347106903e-16 4.7546076587564694e-17
  outer loop
    vertex 346.2075972567667 36.613773045878304 3.0
    vertex 346.2075972567667 32.88172223830943 16.999999999999996
    vertex 346.2075972567667 33.19955948350522 17.414213562373092
  endloop
endfacet
facet normal -1.0 1.3013105347106903e-16 4.7546076587564694e-17
  outer loop
    vertex 346.2075972567667 36.613773045878304 3.0
    vertex 346.2075972567667 33.19955948350522 17.414213562373092
    vertex 346.2075972567667 33.613773045878304 17.732050807568875
  endloop
endfacet
facet normal -1.0 1.3013105347106903e-16 4.7546076587564694e-17
  outer loop
    vertex 346.2075972567667 36.613773045878304 3.0
    vertex 346.2075972567667 33.613773045878304 17.732050807568875
    vertex 346.2075972567667 34.09613495567327 17.931851652578136
  endloop
endfacet
facet normal -1.0 1.3013105347106903e-16 4.7546076587564694e-17
  outer loop
    vertex 346.2075972567667 36.613773045878304 3.0
    vertex 346.2075972567667 34.09613495567327 17.931851652578136
    vertex 346.2075972567667 34.613773045878304 17.999999999999996
  endloop
endfacet
facet normal -1.0 1.3013105347106903e-16 4.7546076587564694e-17
  outer loop
    vertex 346.2075972567667 36.613773045878304 3.0
    vertex 346.2075972567667 34.613773045878304 17.999999999999996
    vertex 346.2075972567667 35.13141113608335 17.931851652578136
  endloop
endfacet
facet normal -1.0 1.3013105347106903e-16 4.7546076587564694e-17
  outer loop
    vertex 346.2075972567667 36.613773045878304 3.0
    vertex 346.2075972567667 35.13141113608335 17.931851652578136
    vertex 346.2075972567667 35.613773045878304 17.732050807568875
  endloop
endfacet
facet normal -1.0 1.3013105347106903e-16 4.7546076587564694e-17
  outer loop
    vertex 346.2075972567667 36.613773045878304 3.0
    vertex 346.2075972567667 35.613773045878304 17.732050807568875
    vertex 346.2075972567667 36.0279866082514 17.414213562373096
  endloop
endfacet
facet normal -1.0 1.3013105347106903e-16 4.7546076587564694e-17
  outer loop
    vertex 346.2075972567667 36.613773045878304 3.0
    vertex 346.2075972567667 36.0279866082514 17.414213562373096
    vertex 346.2075972567667 36.345823853447186 17.0
  endloop
endfacet
facet normal -1.0 1.3013105347106903e-16 4.7546076587564694e-17
  outer loop
    vertex 346.2075972567667 36.613773045878304 3.0
    vertex 346.2075972567667 36.345823853447186 17.0
    vertex 346.2075972567667 36.54562469845644 16.517638090205043
  endloop
endfacet
facet normal -1.0 1.3013105347106903e-16 4.7546076587564694e-17
  outer loop
    vertex 346.2075972567667 36.613773045878304 3.0
    vertex 346.2075972567667 36.54562469845644 16.517638090205043
    vertex 346.2075972567667 36.613773045878304 15.999999999999998
  endloop
endfacet
facet normal -1.0 1.3013105347106903e-16 4.7546076587564694e-17
  outer loop
    vertex 346.2075972567667 42.613773045878304 0.0
    vertex 346.2075972567667 36.613773045878304 3.0
    vertex 346.2075972567667 42.613773045878304 3.0
  endloop
endfacet
facet normal -6.290559305519126e-17 -0.9238795325112857 0.3826834323650924
  outer loop
    vertex 446.2075972567667 32.88172223830943 17.0
    vertex 346.2075972567667 32.68192139330017 16.517638090205043
    vertex 446.2075972567667 32.68192139330017 16.517638090205043
  endloop
endfacet
facet normal -6.290559305519126e-17 -0.9238795325112857 0.3826834323650924
  outer loop
    vertex 346.2075972567667 32.68192139330017 16.517638090205043
    vertex 446.2075972567667 32.88172223830943 17.0
    vertex 346.2075972567667 32.88172223830943 16.999999999999996
  endloop
endfacet
facet normal 0.0 -0.3826834323650913 0.9238795325112862
  outer loop
    vertex 446.2075972567667 25.613773045878304 17.73205080756887
    vertex 346.2075972567667 26.096134955673264 17.931851652578132
    vertex 346.2075972567667 25.613773045878304 17.73205080756887
  endloop
endfacet
facet normal 0.0 -0.3826834323650913 0.9238795325112862
  outer loop
    vertex 346.2075972567667 26.096134955673264 17.931851652578132
    vertex 446.2075972567667 25.613773045878304 17.73205080756887
    vertex 446.2075972567667 26.096134955673264 17.931851652578132
  endloop
endfacet
facet normal 0.0 -0.9914448613738105 0.13052619222005146
  outer loop
    vertex 446.2075972567667 24.68192139330017 16.51763809020504
    vertex 346.2075972567667 24.613773045878307 15.999999999999996
    vertex 446.2075972567667 24.613773045878307 15.999999999999996
  endloop
endfacet
facet normal 0.0 -0.9914448613738105 0.13052619222005146
  outer loop
    vertex 346.2075972567667 24.613773045878307 15.999999999999996
    vertex 446.2075972567667 24.68192139330017 16.51763809020504
    vertex 346.2075972567667 24.68192139330017 16.51763809020504
  endloop
endfacet
facet normal 0.0 -0.13052619222005113 0.9914448613738105
  outer loop
    vertex 446.2075972567667 26.096134955673264 17.931851652578132
    vertex 346.2075972567667 26.613773045878307 17.999999999999996
    vertex 346.2075972567667 26.096134955673264 17.931851652578132
  endloop
endfacet
facet normal 0.0 -0.13052619222005113 0.9914448613738105
  outer loop
    vertex 346.2075972567667 26.613773045878307 17.999999999999996
    vertex 446.2075972567667 26.096134955673264 17.931851652578132
    vertex 446.2075972567667 26.613773045878307 17.999999999999996
  endloop
endfacet
facet normal 0.0 0.13052619222005182 0.9914448613738105
  outer loop
    vertex 446.2075972567667 26.613773045878307 17.999999999999996
    vertex 346.2075972567667 27.131411136083347 17.931851652578132
    vertex 346.2075972567667 26.613773045878307 17.999999999999996
  endloop
endfacet
facet normal 0.0 0.13052619222005182 0.9914448613738105
  outer loop
    vertex 346.2075972567667 27.131411136083347 17.931851652578132
    vertex 446.2075972567667 26.613773045878307 17.999999999999996
    vertex 446.2075972567667 27.131411136083347 17.931851652578132
  endloop
endfacet
facet normal 0.0 0.7933533402912372 0.6087614290087179
  outer loop
    vertex 346.2075972567667 36.0279866082514 17.414213562373096
    vertex 446.2075972567667 36.345823853447186 17.0
    vertex 346.2075972567667 36.345823853447186 17.0
  endloop
endfacet
facet normal 0.0 0.7933533402912372 0.6087614290087179
  outer loop
    vertex 446.2075972567667 36.345823853447186 17.0
    vertex 346.2075972567667 36.0279866082514 17.414213562373096
    vertex 446.2075972567667 36.0279866082514 17.414213562373096
  endloop
endfacet
facet normal 2.796190758528289e-17 0.9914448613738105 0.13052619222005146
  outer loop
    vertex 346.2075972567667 28.54562469845644 16.51763809020504
    vertex 446.2075972567667 28.613773045878304 15.999999999999996
    vertex 346.2075972567667 28.613773045878304 15.999999999999996
  endloop
endfacet
facet normal 2.796190758528289e-17 0.9914448613738105 0.13052619222005146
  outer loop
    vertex 446.2075972567667 28.613773045878304 15.999999999999996
    vertex 346.2075972567667 28.54562469845644 16.51763809020504
    vertex 446.2075972567667 28.54562469845644 16.51763809020504
  endloop
endfacet
facet normal -1.9363997237712425e-33 0.6087614290087154 0.7933533402912393
  outer loop
    vertex 446.2075972567667 35.613773045878304 17.732050807568875
    vertex 346.2075972567667 36.0279866082514 17.414213562373096
    vertex 346.2075972567667 35.613773045878304 17.732050807568875
  endloop
endfacet
facet normal -1.9363997237712425e-33 0.6087614290087154 0.7933533402912393
  outer loop
    vertex 346.2075972567667 36.0279866082514 17.414213562373096
    vertex 446.2075972567667 35.613773045878304 17.732050807568875
    vertex 446.2075972567667 36.0279866082514 17.414213562373096
  endloop
endfacet
facet normal 0.0 -0.6087614290087179 0.7933533402912372
  outer loop
    vertex 446.2075972567667 25.199559483505208 17.414213562373092
    vertex 346.2075972567667 25.613773045878304 17.73205080756887
    vertex 346.2075972567667 25.199559483505208 17.414213562373092
  endloop
endfacet
facet normal 0.0 -0.6087614290087179 0.7933533402912372
  outer loop
    vertex 346.2075972567667 25.613773045878304 17.73205080756887
    vertex 446.2075972567667 25.199559483505208 17.414213562373092
    vertex 446.2075972567667 25.613773045878304 17.73205080756887
  endloop
endfacet
facet normal -4.1518872667637625e-34 0.9914448613738105 0.13052619222005143
  outer loop
    vertex 346.2075972567667 36.54562469845644 16.517638090205043
    vertex 446.2075972567667 36.613773045878304 15.999999999999998
    vertex 346.2075972567667 36.613773045878304 15.999999999999998
  endloop
endfacet
facet normal -4.1518872667637625e-34 0.9914448613738105 0.13052619222005143
  outer loop
    vertex 446.2075972567667 36.613773045878304 15.999999999999998
    vertex 346.2075972567667 36.54562469845644 16.517638090205043
    vertex 446.2075972567667 36.54562469845644 16.517638090205043
  endloop
endfacet
facet normal 2.237509482167254e-17 0.7933533402912347 0.6087614290087213
  outer loop
    vertex 346.2075972567667 28.0279866082514 17.414213562373092
    vertex 446.2075972567667 28.345823853447186 16.999999999999996
    vertex 346.2075972567667 28.345823853447186 16.999999999999996
  endloop
endfacet
facet normal 2.237509482167254e-17 0.7933533402912347 0.6087614290087213
  outer loop
    vertex 446.2075972567667 28.345823853447186 16.999999999999996
    vertex 346.2075972567667 28.0279866082514 17.414213562373092
    vertex 446.2075972567667 28.0279866082514 17.414213562373092
  endloop
endfacet
facet normal -5.877507957315564e-33 0.9238795325112862 0.3826834323650913
  outer loop
    vertex 346.2075972567667 36.345823853447186 17.0
    vertex 446.2075972567667 36.54562469845644 16.517638090205043
    vertex 346.2075972567667 36.54562469845644 16.517638090205043
  endloop
endfacet
facet normal -5.877507957315564e-33 0.9238795325112862 0.3826834323650913
  outer loop
    vertex 446.2075972567667 36.54562469845644 16.517638090205043
    vertex 346.2075972567667 36.345823853447186 17.0
    vertex 446.2075972567667 36.345823853447186 17.0
  endloop
endfacet
facet normal 1.7169014115257556e-17 0.608761429008718 0.7933533402912372
  outer loop
    vertex 446.2075972567667 27.613773045878307 17.73205080756887
    vertex 346.2075972567667 28.0279866082514 17.414213562373092
    vertex 346.2075972567667 27.613773045878307 17.73205080756887
  endloop
endfacet
facet normal 1.7169014115257556e-17 0.608761429008718 0.7933533402912372
  outer loop
    vertex 346.2075972567667 28.0279866082514 17.414213562373092
    vertex 446.2075972567667 27.613773045878307 17.73205080756887
    vertex 446.2075972567667 28.0279866082514 17.414213562373092
  endloop
endfacet
facet normal 2.6056349792582996e-17 0.9238795325112871 0.382683432365089
  outer loop
    vertex 346.2075972567667 28.345823853447186 16.999999999999996
    vertex 446.2075972567667 28.54562469845644 16.51763809020504
    vertex 346.2075972567667 28.54562469845644 16.51763809020504
  endloop
endfacet
facet normal 2.6056349792582996e-17 0.9238795325112871 0.382683432365089
  outer loop
    vertex 446.2075972567667 28.54562469845644 16.51763809020504
    vertex 346.2075972567667 28.345823853447186 16.999999999999996
    vertex 446.2075972567667 28.345823853447186 16.999999999999996
  endloop
endfacet
facet normal -2.1585786940050605e-17 -0.38268343236509134 0.9238795325112862
  outer loop
    vertex 446.2075972567667 33.613773045878304 17.732050807568875
    vertex 346.2075972567667 34.09613495567327 17.931851652578136
    vertex 346.2075972567667 33.613773045878304 17.732050807568875
  endloop
endfacet
facet normal -2.1585786940050605e-17 -0.38268343236509134 0.9238795325112862
  outer loop
    vertex 346.2075972567667 34.09613495567327 17.931851652578136
    vertex 446.2075972567667 33.613773045878304 17.732050807568875
    vertex 446.2075972567667 34.096134955673264 17.931851652578136
  endloop
endfacet
facet normal 0.0 -0.7933533402912347 0.6087614290087213
  outer loop
    vertex 446.2075972567667 25.199559483505208 17.414213562373092
    vertex 346.2075972567667 24.88172223830943 16.999999999999996
    vertex 446.2075972567667 24.88172223830943 16.999999999999996
  endloop
endfacet
facet normal 0.0 -0.7933533402912347 0.6087614290087213
  outer loop
    vertex 346.2075972567667 24.88172223830943 16.999999999999996
    vertex 446.2075972567667 25.199559483505208 17.414213562373092
    vertex 346.2075972567667 25.199559483505208 17.414213562373092
  endloop
endfacet
facet normal -5.671312305218777e-17 -0.6087614290087197 0.7933533402912359
  outer loop
    vertex 446.2075972567667 33.19955948350521 17.414213562373096
    vertex 346.2075972567667 33.613773045878304 17.732050807568875
    vertex 346.2075972567667 33.19955948350522 17.414213562373092
  endloop
endfacet
facet normal -5.671312305218777e-17 -0.6087614290087197 0.7933533402912359
  outer loop
    vertex 346.2075972567667 33.613773045878304 17.732050807568875
    vertex 446.2075972567667 33.19955948350521 17.414213562373096
    vertex 446.2075972567667 33.613773045878304 17.732050807568875
  endloop
endfacet
facet normal -5.592381517056579e-17 -0.9914448613738105 0.13052619222005143
  outer loop
    vertex 446.2075972567667 32.68192139330017 16.517638090205043
    vertex 346.2075972567667 32.61377304587831 15.999999999999998
    vertex 446.2075972567667 32.61377304587831 15.999999999999998
  endloop
endfacet
facet normal -5.592381517056579e-17 -0.9914448613738105 0.13052619222005143
  outer loop
    vertex 346.2075972567667 32.61377304587831 15.999999999999998
    vertex 446.2075972567667 32.68192139330017 16.517638090205043
    vertex 346.2075972567667 32.68192139330017 16.517638090205043
  endloop
endfacet
facet normal -7.908821787386038e-17 -0.7933533402912347 0.6087614290087213
  outer loop
    vertex 446.2075972567667 32.88172223830943 17.0
    vertex 346.2075972567667 33.19955948350522 17.414213562373092
    vertex 346.2075972567667 32.88172223830943 16.999999999999996
  endloop
endfacet
facet normal -7.908821787386038e-17 -0.7933533402912347 0.6087614290087213
  outer loop
    vertex 346.2075972567667 33.19955948350522 17.414213562373092
    vertex 446.2075972567667 32.88172223830943 17.0
    vertex 446.2075972567667 33.19955948350521 17.414213562373096
  endloop
endfacet
facet normal 5.482104619695397e-18 0.3826834323650918 0.923879532511286
  outer loop
    vertex 446.2075972567667 27.131411136083347 17.931851652578132
    vertex 346.2075972567667 27.613773045878307 17.73205080756887
    vertex 346.2075972567667 27.131411136083347 17.931851652578132
  endloop
endfacet
facet normal 5.482104619695397e-18 0.3826834323650918 0.923879532511286
  outer loop
    vertex 346.2075972567667 27.613773045878307 17.73205080756887
    vertex 446.2075972567667 27.131411136083347 17.931851652578132
    vertex 446.2075972567667 27.613773045878307 17.73205080756887
  endloop
endfacet
facet normal -3.681254970910448e-18 -0.1305261922200518 0.9914448613738105
  outer loop
    vertex 446.2075972567667 34.096134955673264 17.931851652578136
    vertex 346.2075972567667 34.613773045878304 17.999999999999996
    vertex 346.2075972567667 34.09613495567327 17.931851652578136
  endloop
endfacet
facet normal -3.681254970910448e-18 -0.1305261922200518 0.9914448613738105
  outer loop
    vertex 346.2075972567667 34.613773045878304 17.999999999999996
    vertex 446.2075972567667 34.096134955673264 17.931851652578136
    vertex 446.2075972567667 34.613773045878304 17.999999999999996
  endloop
endfacet
facet normal 0.0 0.38268343236509134 0.9238795325112862
  outer loop
    vertex 446.2075972567667 35.13141113608335 17.931851652578136
    vertex 346.2075972567667 35.613773045878304 17.732050807568875
    vertex 346.2075972567667 35.13141113608335 17.931851652578136
  endloop
endfacet
facet normal 0.0 0.38268343236509134 0.9238795325112862
  outer loop
    vertex 346.2075972567667 35.613773045878304 17.732050807568875
    vertex 446.2075972567667 35.13141113608335 17.931851652578136
    vertex 446.2075972567667 35.613773045878304 17.732050807568875
  endloop
endfacet
facet normal 0.0 0.13052619222005216 0.9914448613738105
  outer loop
    vertex 446.2075972567667 34.613773045878304 17.999999999999996
    vertex 346.2075972567667 35.13141113608335 17.931851652578136
    vertex 346.2075972567667 34.613773045878304 17.999999999999996
  endloop
endfacet
facet normal 0.0 0.13052619222005216 0.9914448613738105
  outer loop
    vertex 346.2075972567667 35.13141113608335 17.931851652578136
    vertex 446.2075972567667 34.613773045878304 17.999999999999996
    vertex 446.2075972567667 35.13141113608335 17.931851652578136
  endloop
endfacet
facet normal 2.8199664825478977e-17 1.0 0.0
  outer loop
    vertex 346.2075972567667 28.613773045878304 15.999999999999996
    vertex 446.2075972567667 28.613773045878304 3.0000000000000013
    vertex 346.2075972567667 28.613773045878304 3.0000000000000013
  endloop
endfacet
facet normal 2.8199664825478977e-17 1.0 0.0
  outer loop
    vertex 446.2075972567667 28.613773045878304 3.0000000000000013
    vertex 346.2075972567667 28.613773045878304 15.999999999999996
    vertex 446.2075972567667 28.613773045878304 15.999999999999996
  endloop
endfacet
facet normal 0.0 0.0 1.0
  outer loop
    vertex 446.2075972567667 18.613773045878307 3.0
    vertex 346.2075972567667 24.613773045878307 3.0
    vertex 346.2075972567667 18.613773045878307 3.0
  endloop
endfacet
facet normal 0.0 0.0 1.0
  outer loop
    vertex 346.2075972567667 24.613773045878307 3.0
    vertex 446.2075972567667 18.613773045878307 3.0
    vertex 446.2075972567667 24.613773045878307 3.0
  endloop
endfacet
facet normal 0.0 0.0 1.0
  outer loop
    vertex 446.2075972567667 28.613773045878304 3.0000000000000013
    vertex 346.2075972567667 32.61377304587831 3.0000000000000013
    vertex 346.2075972567667 28.613773045878304 3.0000000000000013
  endloop
endfacet
facet normal 0.0 0.0 1.0
  outer loop
    vertex 346.2075972567667 32.61377304587831 3.0000000000000013
    vertex 446.2075972567667 28.613773045878304 3.0000000000000013
    vertex 446.2075972567667 32.61377304587831 3.0000000000000013
  endloop
endfacet
facet normal 0.0 0.0 1.0
  outer loop
    vertex 446.2075972567667 36.613773045878304 3.0
    vertex 346.2075972567667 42.613773045878304 3.0
    vertex 346.2075972567667 36.613773045878304 3.0
  endloop
endfacet
facet normal 0.0 0.0 1.0
  outer loop
    vertex 346.2075972567667 42.613773045878304 3.0
    vertex 446.2075972567667 36.613773045878304 3.0
    vertex 446.2075972567667 42.613773045878304 3.0
  endloop
endfacet
facet normal 0.0 1.0 0.0
  outer loop
    vertex 346.2075972567667 42.613773045878304 3.0
    vertex 446.2075972567667 42.613773045878304 0.0
    vertex 346.2075972567667 42.613773045878304 0.0
  endloop
endfacet
facet normal 0.0 1.0 0.0
  outer loop
    vertex 446.2075972567667 42.613773045878304 0.0
    vertex 346.2075972567667 42.613773045878304 3.0
    vertex 446.2075972567667 42.613773045878304 3.0
  endloop
endfacet
facet normal 0.0 0.0 -1.0
  outer loop
    vertex 446.2075972567667 42.613773045878304 0.0
    vertex 346.2075972567667 18.613773045878307 0.0
    vertex 346.2075972567667 42.613773045878304 0.0
  endloop
endfacet
facet normal 0.0 0.0 -1.0
  outer loop
    vertex 346.2075972567667 18.613773045878307 0.0
    vertex 446.2075972567667 42.613773045878304 0.0
    vertex 446.2075972567667 18.613773045878307 0.0
  endloop
endfacet
facet normal 0.0 1.0 0.0
  outer loop
    vertex 346.2075972567667 36.613773045878304 15.999999999999998
    vertex 446.2075972567667 36.613773045878304 3.0
    vertex 346.2075972567667 36.613773045878304 3.0
  endloop
endfacet
facet normal 0.0 1.0 0.0
  outer loop
    vertex 446.2075972567667 36.613773045878304 3.0
    vertex 346.2075972567667 36.613773045878304 15.999999999999998
    vertex 446.2075972567667 36.613773045878304 15.999999999999998
  endloop
endfacet
endsolid Base
