solid SupportSensor
facet normal 0.9277727594087095 -0.3731456912509494 2.1888236931205754e-16
  outer loop
    vertex 4.251673431514634 37.99083786082738 -2.8199664825478975e-15
    vertex 5.0309580110715215 39.92841618932513 3.0
    vertex 4.251673431514633 37.99083786082738 3.0
  endloop
endfacet
facet normal 0.9277727594087095 -0.3731456912509494 2.1888236931205754e-16
  outer loop
    vertex 5.0309580110715215 39.92841618932513 3.0
    vertex 4.251673431514634 37.99083786082738 -2.8199664825478975e-15
    vertex 5.030958011071522 39.92841618932513 -2.8199664825478975e-15
  endloop
endfacet
facet normal -0.7995824577466553 0.6005563198100726 -1.8863940661880041e-16
  outer loop
    vertex 18.96904198892849 32.071583810674866 2.8199664825478975e-15
    vertex 17.714828714712546 30.401720553464923 3.000000000000003
    vertex 18.96904198892849 32.071583810674866 3.0000000000000058
  endloop
endfacet
facet normal -0.7995824577466553 0.6005563198100726 -1.8863940661880041e-16
  outer loop
    vertex 17.714828714712546 30.401720553464923 3.000000000000003
    vertex 18.96904198892849 32.071583810674866 2.8199664825478975e-15
    vertex 17.714828714712546 30.401720553464923 0.0
  endloop
endfacet
facet normal -0.9900476242126053 -0.1407327317683276 -2.335744044237071e-16
  outer loop
    vertex 19.705666575539933 38.1500471219503 2.8199664825478975e-15
    vertex 19.999575497115064 36.082412777870616 3.0000000000000058
    vertex 19.705666575539933 38.1500471219503 3.0000000000000058
  endloop
endfacet
facet normal -0.9900476242126053 -0.1407327317683276 -2.335744044237071e-16
  outer loop
    vertex 19.999575497115064 36.082412777870616 3.0000000000000058
    vertex 19.705666575539933 38.1500471219503 2.8199664825478975e-15
    vertex 19.999575497115064 36.082412777870616 2.8199664825478975e-15
  endloop
endfacet
facet normal -0.9927368807340375 0.12030580048548518 -2.3420886025691585e-16
  outer loop
    vertex 19.999575497115064 36.082412777870616 2.8199664825478975e-15
    vertex 19.748326568485375 34.009162139172616 3.0000000000000058
    vertex 19.999575497115064 36.082412777870616 3.0000000000000058
  endloop
endfacet
facet normal -0.9927368807340375 0.12030580048548518 -2.3420886025691585e-16
  outer loop
    vertex 19.748326568485375 34.009162139172616 3.0000000000000058
    vertex 19.999575497115064 36.082412777870616 2.8199664825478975e-15
    vertex 19.748326568485375 34.009162139172616 2.8199664825478975e-15
  endloop
endfacet
facet normal 0.616901932961656 -0.7870400276403817 1.4554098010583145e-16
  outer loop
    vertex 7.928840692210072 42.886629211057866 0.0
    vertex 6.285171285287459 41.59827944653507 3.000000000000003
    vertex 6.2851712852874595 41.59827944653507 0.0
  endloop
endfacet
facet normal 0.616901932961656 -0.7870400276403817 1.4554098010583145e-16
  outer loop
    vertex 6.285171285287459 41.59827944653507 3.000000000000003
    vertex 7.928840692210072 42.886629211057866 0.0
    vertex 7.928840692210072 42.886629211057866 3.000000000000003
  endloop
endfacet
facet normal 0.7995824577466564 -0.6005563198100715 1.8863940661880069e-16
  outer loop
    vertex 5.030958011071522 39.92841618932513 -2.8199664825478975e-15
    vertex 6.285171285287459 41.59827944653507 3.000000000000003
    vertex 5.0309580110715215 39.92841618932513 3.0
  endloop
endfacet
facet normal 0.7995824577466564 -0.6005563198100715 1.8863940661880069e-16
  outer loop
    vertex 6.285171285287459 41.59827944653507 3.000000000000003
    vertex 5.030958011071522 39.92841618932513 -2.8199664825478975e-15
    vertex 6.2851712852874595 41.59827944653507 0.0
  endloop
endfacet
facet normal 0.0 -1.0 0.0
  outer loop
    vertex 1.9999999999999991 11.0 3.0
    vertex -5.639932965095795e-15 11.0 24.0
    vertex -6.855627177060354e-16 11.0 3.000000000000003
  endloop
endfacet
facet normal 0.0 -1.0 0.0
  outer loop
    vertex -5.639932965095795e-15 11.0 24.0
    vertex 1.9999999999999991 11.0 3.0
    vertex 1.9999999999999942 11.0 24.0
  endloop
endfacet
facet normal -2.359223927328457e-16 0.0 1.0
  outer loop
    vertex 1.9999999999999942 35.0 24.0
    vertex -5.639932965095795e-15 11.0 24.0
    vertex 1.9999999999999942 11.0 24.0
  endloop
endfacet
facet normal -2.359223927328457e-16 0.0 1.0
  outer loop
    vertex -5.639932965095795e-15 11.0 24.0
    vertex 1.9999999999999942 35.0 24.0
    vertex -5.639932965095795e-15 35.0 24.0
  endloop
endfacet
facet normal -0.6169019329616561 0.7870400276403815 -1.4554098010583147e-16
  outer loop
    vertex 17.714828714712546 30.401720553464923 3.000000000000003
    vertex 16.071159307789937 29.113370788942134 0.0
    vertex 16.071159307789937 29.113370788942134 3.000000000000003
  endloop
endfacet
facet normal -0.6169019329616561 0.7870400276403815 -1.4554098010583147e-16
  outer loop
    vertex 16.071159307789937 29.113370788942134 0.0
    vertex 17.714828714712546 30.401720553464923 3.000000000000003
    vertex 17.714828714712546 30.401720553464923 0.0
  endloop
endfacet
facet normal 0.6005563198100715 0.7995824577466563 1.4168468394042418e-16
  outer loop
    vertex 8.071583810674872 29.030958011071515 3.000000000000003
    vertex 6.40172055346493 30.285171285287458 0.0
    vertex 6.40172055346493 30.285171285287458 3.000000000000003
  endloop
endfacet
facet normal 0.6005563198100715 0.7995824577466563 1.4168468394042418e-16
  outer loop
    vertex 6.40172055346493 30.285171285287458 0.0
    vertex 8.071583810674872 29.030958011071515 3.000000000000003
    vertex 8.071583810674872 29.030958011071515 0.0
  endloop
endfacet
facet normal -1.0 0.0 -2.359223927328457e-16
  outer loop
    vertex 2.220446049250309e-17 45.99999999999999 0.0
    vertex -6.855627177060348e-16 35.0 3.0
    vertex -6.855627177060348e-16 45.99999999999999 3.0
  endloop
endfacet
facet normal -1.0 0.0 -2.359223927328457e-16
  outer loop
    vertex -6.855627177060348e-16 35.0 3.0
    vertex -5.639932965095795e-15 11.0 24.0
    vertex -5.639932965095795e-15 35.0 24.0
  endloop
endfacet
facet normal -1.0 0.0 -2.359223927328457e-16
  outer loop
    vertex -5.639932965095795e-15 11.0 24.0
    vertex -6.855627177060348e-16 35.0 3.0
    vertex -6.855627177060354e-16 11.0 3.000000000000003
  endloop
endfacet
facet normal -1.0 0.0 -2.359223927328457e-16
  outer loop
    vertex -6.855627177060354e-16 11.0 3.000000000000003
    vertex -6.855627177060348e-16 35.0 3.0
    vertex -6.855627177060354e-16 0.0 3.000000000000003
  endloop
endfacet
facet normal -1.0 0.0 -2.359223927328457e-16
  outer loop
    vertex -6.855627177060354e-16 0.0 3.000000000000003
    vertex -6.855627177060348e-16 35.0 3.0
    vertex 2.220446049250309e-17 0.0 0.0
  endloop
endfacet
facet normal -1.0 0.0 -2.359223927328457e-16
  outer loop
    vertex 2.220446049250309e-17 0.0 0.0
    vertex -6.855627177060348e-16 35.0 3.0
    vertex 2.220446049250309e-17 45.99999999999999 0.0
  endloop
endfacet
facet normal 1.0 0.0 2.359223927328457e-16
  outer loop
    vertex 22.000000000000004 0.0 5.639932965095795e-15
    vertex 22.000000000000004 45.99999999999999 3.0000000000000058
    vertex 22.000000000000004 0.0 3.0000000000000058
  endloop
endfacet
facet normal 1.0 0.0 2.359223927328457e-16
  outer loop
    vertex 22.000000000000004 45.99999999999999 3.0000000000000058
    vertex 22.000000000000004 0.0 5.639932965095795e-15
    vertex 22.000000000000004 45.99999999999999 5.639932965095795e-15
  endloop
endfacet
facet normal -0.04892315092139597 -0.9988025457035651 -1.1542066825405863e-17
  outer loop
    vertex 13.430995997228912 17.870975190909625 -5.639932965095795e-15
    vertex 11.345077708102826 17.97314723252845 3.000000000000003
    vertex 11.345077708102826 17.97314723252845 -5.639932965095795e-15
  endloop
endfacet
facet normal -0.04892315092139597 -0.9988025457035651 -1.1542066825405863e-17
  outer loop
    vertex 11.345077708102826 17.97314723252845 3.000000000000003
    vertex 13.430995997228912 17.870975190909625 -5.639932965095795e-15
    vertex 13.430995997228912 17.870975190909625 3.000000000000003
  endloop
endfacet
facet normal 0.9521069310534591 -0.30576525610337724 2.2462334531165866e-16
  outer loop
    vertex 4.129024809090376 11.430995997228909 -8.459899447643692e-15
    vertex 4.767590802568178 13.41939427397654 3.0
    vertex 4.129024809090376 11.430995997228909 3.0
  endloop
endfacet
facet normal 0.9521069310534591 -0.30576525610337724 2.2462334531165866e-16
  outer loop
    vertex 4.767590802568178 13.41939427397654 3.0
    vertex 4.129024809090376 11.430995997228909 -8.459899447643692e-15
    vertex 4.767590802568179 13.41939427397654 -8.459899447643692e-15
  endloop
endfacet
facet normal -0.30576525610337685 -0.9521069310534592 -7.213687083448003e-17
  outer loop
    vertex 15.419394273976549 17.232409197431824 -5.639932965095795e-15
    vertex 13.430995997228912 17.870975190909625 3.000000000000003
    vertex 13.430995997228912 17.870975190909625 -5.639932965095795e-15
  endloop
endfacet
facet normal -0.30576525610337685 -0.9521069310534592 -7.213687083448003e-17
  outer loop
    vertex 13.430995997228912 17.870975190909625 3.000000000000003
    vertex 15.419394273976549 17.232409197431824 -5.639932965095795e-15
    vertex 15.419394273976549 17.232409197431824 3.000000000000003
  endloop
endfacet
facet normal -0.7408539449069088 -0.6716661613598462 -1.7478403534800578e-16
  outer loop
    vertex 17.174766481768895 16.100966469270354 -5.639932965095795e-15
    vertex 18.57748690553465 14.55375295855191 3.0000000000000058
    vertex 17.174766481768895 16.100966469270354 3.000000000000003
  endloop
endfacet
facet normal -0.7408539449069088 -0.6716661613598462 -1.7478403534800578e-16
  outer loop
    vertex 18.57748690553465 14.55375295855191 3.0000000000000058
    vertex 17.174766481768895 16.100966469270354 -5.639932965095795e-15
    vertex 18.57748690553465 14.55375295855191 -2.8199664825478975e-15
  endloop
endfacet
facet normal 0.2112529861465492 -0.9774314174632233 4.9839309963652594e-17
  outer loop
    vertex 11.345077708102826 17.97314723252845 -5.639932965095795e-15
    vertex 9.303791290859271 17.531962466499262 3.000000000000003
    vertex 9.303791290859271 17.531962466499262 -5.639932965095795e-15
  endloop
endfacet
facet normal 0.2112529861465492 -0.9774314174632233 4.9839309963652594e-17
  outer loop
    vertex 9.303791290859271 17.531962466499262 3.000000000000003
    vertex 11.345077708102826 17.97314723252845 -5.639932965095795e-15
    vertex 11.345077708102826 17.97314723252845 3.000000000000003
  endloop
endfacet
facet normal 0.3731456912509496 0.9277727594087094 8.803342431787572e-17
  outer loop
    vertex 10.009162139172615 28.251673431514625 3.000000000000003
    vertex 8.071583810674872 29.030958011071515 0.0
    vertex 8.071583810674872 29.030958011071515 3.000000000000003
  endloop
endfacet
facet normal 0.3731456912509496 0.9277727594087094 8.803342431787572e-17
  outer loop
    vertex 8.071583810674872 29.030958011071515 0.0
    vertex 10.009162139172615 28.251673431514625 3.000000000000003
    vertex 10.009162139172615 28.251673431514625 0.0
  endloop
endfacet
facet normal 0.0 1.0 0.0
  outer loop
    vertex 1.9999999999999942 35.0 24.0
    vertex -6.855627177060348e-16 35.0 3.0
    vertex -5.639932965095795e-15 35.0 24.0
  endloop
endfacet
facet normal 0.0 1.0 0.0
  outer loop
    vertex -6.855627177060348e-16 35.0 3.0
    vertex 1.9999999999999942 35.0 24.0
    vertex 1.9999999999999991 35.0 3.0
  endloop
endfacet
facet normal -0.14073273176832748 0.9900476242126053 -3.320200281461359e-17
  outer loop
    vertex 14.1500471219503 28.294333424460067 3.000000000000003
    vertex 12.08241277787062 28.000424502884933 0.0
    vertex 12.08241277787062 28.000424502884933 3.000000000000003
  endloop
endfacet
facet normal -0.14073273176832748 0.9900476242126053 -3.320200281461359e-17
  outer loop
    vertex 12.08241277787062 28.000424502884933 0.0
    vertex 14.1500471219503 28.294333424460067 3.000000000000003
    vertex 14.1500471219503 28.294333424460067 0.0
  endloop
endfacet
facet normal -1.753277439891081e-16 3.5656343478042596e-17 1.0
  outer loop
    vertex 22.000000000000004 0.0 3.0000000000000058
    vertex 12.654922291897178 2.0268527674715444 3.000000000000003
    vertex -6.855627177060354e-16 0.0 3.000000000000003
  endloop
endfacet
facet normal -1.753277439891081e-16 3.5656343478042596e-17 1.0
  outer loop
    vertex 12.654922291897178 2.0268527674715444 3.000000000000003
    vertex 22.000000000000004 0.0 3.0000000000000058
    vertex 14.696208709140732 2.468037533500734 3.000000000000003
  endloop
endfacet
facet normal -1.753277439891081e-16 3.5656343478042596e-17 1.0
  outer loop
    vertex 14.696208709140732 2.468037533500734 3.000000000000003
    vertex 22.000000000000004 0.0 3.0000000000000058
    vertex 16.55375295855191 3.422513094465352 3.000000000000003
  endloop
endfacet
facet normal -1.753277439891081e-16 3.5656343478042596e-17 1.0
  outer loop
    vertex 16.55375295855191 3.422513094465352 3.000000000000003
    vertex 22.000000000000004 0.0 3.0000000000000058
    vertex 18.10096646927036 4.825233518231107 3.0000000000000058
  endloop
endfacet
facet normal -1.753277439891081e-16 3.5656343478042596e-17 1.0
  outer loop
    vertex 18.10096646927036 4.825233518231107 3.0000000000000058
    vertex 22.000000000000004 0.0 3.0000000000000058
    vertex 19.232409197431828 6.580605726023457 3.0000000000000058
  endloop
endfacet
facet normal -1.753277439891081e-16 3.5656343478042596e-17 1.0
  outer loop
    vertex 19.232409197431828 6.580605726023457 3.0000000000000058
    vertex 22.000000000000004 0.0 3.0000000000000058
    vertex 19.870975190909633 8.56900400277109 3.0000000000000058
  endloop
endfacet
facet normal -1.753277439891081e-16 3.5656343478042596e-17 1.0
  outer loop
    vertex 19.870975190909633 8.56900400277109 3.0000000000000058
    vertex 22.000000000000004 0.0 3.0000000000000058
    vertex 22.000000000000004 45.99999999999999 3.0000000000000058
  endloop
endfacet
facet normal -1.753277439891081e-16 3.5656343478042596e-17 1.0
  outer loop
    vertex 19.870975190909633 8.56900400277109 3.0000000000000058
    vertex 22.000000000000004 45.99999999999999 3.0000000000000058
    vertex 19.973147232528458 10.654922291897181 3.0000000000000058
  endloop
endfacet
facet normal -1.753277439891081e-16 3.5656343478042596e-17 1.0
  outer loop
    vertex 19.973147232528458 10.654922291897181 3.0000000000000058
    vertex 22.000000000000004 45.99999999999999 3.0000000000000058
    vertex 19.53196246649927 12.696208709140732 3.0000000000000058
  endloop
endfacet
facet normal -1.753277439891081e-16 3.5656343478042596e-17 1.0
  outer loop
    vertex 19.53196246649927 12.696208709140732 3.0000000000000058
    vertex 22.000000000000004 45.99999999999999 3.0000000000000058
    vertex 18.57748690553465 14.55375295855191 3.0000000000000058
  endloop
endfacet
facet normal -1.753277439891081e-16 3.5656343478042596e-17 1.0
  outer loop
    vertex 18.57748690553465 14.55375295855191 3.0000000000000058
    vertex 22.000000000000004 45.99999999999999 3.0000000000000058
    vertex 17.174766481768895 16.100966469270354 3.000000000000003
  endloop
endfacet
facet normal -1.753277439891081e-16 3.5656343478042596e-17 1.0
  outer loop
    vertex 17.174766481768895 16.100966469270354 3.000000000000003
    vertex 22.000000000000004 45.99999999999999 3.0000000000000058
    vertex 19.748326568485375 34.009162139172616 3.0000000000000058
  endloop
endfacet
facet normal -1.753277439891081e-16 3.5656343478042596e-17 1.0
  outer loop
    vertex 17.174766481768895 16.100966469270354 3.000000000000003
    vertex 19.748326568485375 34.009162139172616 3.0000000000000058
    vertex 15.419394273976549 17.232409197431824 3.000000000000003
  endloop
endfacet
facet normal -1.753277439891081e-16 3.5656343478042596e-17 1.0
  outer loop
    vertex 15.419394273976549 17.232409197431824 3.000000000000003
    vertex 19.748326568485375 34.009162139172616 3.0000000000000058
    vertex 13.430995997228912 17.870975190909625 3.000000000000003
  endloop
endfacet
facet normal -1.753277439891081e-16 3.5656343478042596e-17 1.0
  outer loop
    vertex 13.430995997228912 17.870975190909625 3.000000000000003
    vertex 19.748326568485375 34.009162139172616 3.0000000000000058
    vertex 18.96904198892849 32.071583810674866 3.0000000000000058
  endloop
endfacet
facet normal -1.753277439891081e-16 3.5656343478042596e-17 1.0
  outer loop
    vertex 13.430995997228912 17.870975190909625 3.000000000000003
    vertex 18.96904198892849 32.071583810674866 3.0000000000000058
    vertex 11.345077708102826 17.97314723252845 3.000000000000003
  endloop
endfacet
facet normal -1.753277439891081e-16 3.5656343478042596e-17 1.0
  outer loop
    vertex 11.345077708102826 17.97314723252845 3.000000000000003
    vertex 18.96904198892849 32.071583810674866 3.0000000000000058
    vertex 17.714828714712546 30.401720553464923 3.000000000000003
  endloop
endfacet
facet normal -1.753277439891081e-16 3.5656343478042596e-17 1.0
  outer loop
    vertex 11.345077708102826 17.97314723252845 3.000000000000003
    vertex 17.714828714712546 30.401720553464923 3.000000000000003
    vertex 16.071159307789937 29.113370788942134 3.000000000000003
  endloop
endfacet
facet normal -1.753277439891081e-16 3.5656343478042596e-17 1.0
  outer loop
    vertex 11.345077708102826 17.97314723252845 3.000000000000003
    vertex 16.071159307789937 29.113370788942134 3.000000000000003
    vertex 14.1500471219503 28.294333424460067 3.000000000000003
  endloop
endfacet
facet normal -1.753277439891081e-16 3.5656343478042596e-17 1.0
  outer loop
    vertex 11.345077708102826 17.97314723252845 3.000000000000003
    vertex 14.1500471219503 28.294333424460067 3.000000000000003
    vertex 12.08241277787062 28.000424502884933 3.000000000000003
  endloop
endfacet
facet normal -1.753277439891081e-16 3.5656343478042596e-17 1.0
  outer loop
    vertex 19.748326568485375 34.009162139172616 3.0000000000000058
    vertex 22.000000000000004 45.99999999999999 3.0000000000000058
    vertex 19.999575497115064 36.082412777870616 3.0000000000000058
  endloop
endfacet
facet normal -1.753277439891081e-16 3.5656343478042596e-17 1.0
  outer loop
    vertex 19.999575497115064 36.082412777870616 3.0000000000000058
    vertex 22.000000000000004 45.99999999999999 3.0000000000000058
    vertex 19.705666575539933 38.1500471219503 3.0000000000000058
  endloop
endfacet
facet normal -1.753277439891081e-16 3.5656343478042596e-17 1.0
  outer loop
    vertex 19.705666575539933 38.1500471219503 3.0000000000000058
    vertex 22.000000000000004 45.99999999999999 3.0000000000000058
    vertex 18.886629211057866 40.071159307789934 3.0000000000000058
  endloop
endfacet
facet normal -1.753277439891081e-16 3.5656343478042596e-17 1.0
  outer loop
    vertex 18.886629211057866 40.071159307789934 3.0000000000000058
    vertex 22.000000000000004 45.99999999999999 3.0000000000000058
    vertex 17.598279446535074 41.71482871471254 3.000000000000003
  endloop
endfacet
facet normal -1.753277439891081e-16 3.5656343478042596e-17 1.0
  outer loop
    vertex 17.598279446535074 41.71482871471254 3.000000000000003
    vertex 22.000000000000004 45.99999999999999 3.0000000000000058
    vertex 15.928416189325134 42.96904198892848 3.000000000000003
  endloop
endfacet
facet normal -1.753277439891081e-16 3.5656343478042596e-17 1.0
  outer loop
    vertex 15.928416189325134 42.96904198892848 3.000000000000003
    vertex 22.000000000000004 45.99999999999999 3.0000000000000058
    vertex 13.990837860827392 43.74832656848537 3.000000000000003
  endloop
endfacet
facet normal -1.753277439891081e-16 3.5656343478042596e-17 1.0
  outer loop
    vertex 13.990837860827392 43.74832656848537 3.000000000000003
    vertex 22.000000000000004 45.99999999999999 3.0000000000000058
    vertex 11.917587222129383 43.99957549711506 3.000000000000003
  endloop
endfacet
facet normal -1.753277439891081e-16 3.5656343478042596e-17 1.0
  outer loop
    vertex 4.129024809090376 11.430995997228909 3.0
    vertex 1.9999999999999991 11.0 3.0
    vertex 4.026852767471547 9.34507770810282 3.0
  endloop
endfacet
facet normal -1.753277439891081e-16 3.5656343478042596e-17 1.0
  outer loop
    vertex 1.9999999999999991 11.0 3.0
    vertex 4.129024809090376 11.430995997228909 3.0
    vertex 1.9999999999999991 35.0 3.0
  endloop
endfacet
facet normal -1.753277439891081e-16 3.5656343478042596e-17 1.0
  outer loop
    vertex 1.9999999999999991 35.0 3.0
    vertex 4.129024809090376 11.430995997228909 3.0
    vertex 4.767590802568178 13.41939427397654 3.0
  endloop
endfacet
facet normal -1.753277439891081e-16 3.5656343478042596e-17 1.0
  outer loop
    vertex 1.9999999999999991 35.0 3.0
    vertex 4.767590802568178 13.41939427397654 3.0
    vertex 5.899033530729649 15.174766481768893 3.0
  endloop
endfacet
facet normal -1.753277439891081e-16 3.5656343478042596e-17 1.0
  outer loop
    vertex 1.9999999999999991 35.0 3.0
    vertex 5.899033530729649 15.174766481768893 3.0
    vertex 7.446247041448095 16.577486905534645 3.000000000000003
  endloop
endfacet
facet normal -1.753277439891081e-16 3.5656343478042596e-17 1.0
  outer loop
    vertex 1.9999999999999991 35.0 3.0
    vertex 7.446247041448095 16.577486905534645 3.000000000000003
    vertex 9.303791290859271 17.531962466499262 3.000000000000003
  endloop
endfacet
facet normal -1.753277439891081e-16 3.5656343478042596e-17 1.0
  outer loop
    vertex 1.9999999999999991 35.0 3.0
    vertex 9.303791290859271 17.531962466499262 3.000000000000003
    vertex 11.345077708102826 17.97314723252845 3.000000000000003
  endloop
endfacet
facet normal -1.753277439891081e-16 3.5656343478042596e-17 1.0
  outer loop
    vertex 1.9999999999999991 35.0 3.0
    vertex 11.345077708102826 17.97314723252845 3.000000000000003
    vertex 6.40172055346493 30.285171285287458 3.000000000000003
  endloop
endfacet
facet normal -1.753277439891081e-16 3.5656343478042596e-17 1.0
  outer loop
    vertex 6.40172055346493 30.285171285287458 3.000000000000003
    vertex 11.345077708102826 17.97314723252845 3.000000000000003
    vertex 8.071583810674872 29.030958011071515 3.000000000000003
  endloop
endfacet
facet normal -1.753277439891081e-16 3.5656343478042596e-17 1.0
  outer loop
    vertex 8.071583810674872 29.030958011071515 3.000000000000003
    vertex 11.345077708102826 17.97314723252845 3.000000000000003
    vertex 10.009162139172615 28.251673431514625 3.000000000000003
  endloop
endfacet
facet normal -1.753277439891081e-16 3.5656343478042596e-17 1.0
  outer loop
    vertex 10.009162139172615 28.251673431514625 3.000000000000003
    vertex 11.345077708102826 17.97314723252845 3.000000000000003
    vertex 12.08241277787062 28.000424502884933 3.000000000000003
  endloop
endfacet
facet normal -1.753277439891081e-16 3.5656343478042596e-17 1.0
  outer loop
    vertex 1.9999999999999991 35.0 3.0
    vertex 6.40172055346493 30.285171285287458 3.000000000000003
    vertex 5.11337078894214 31.928840692210066 3.0
  endloop
endfacet
facet normal -1.753277439891081e-16 3.5656343478042596e-17 1.0
  outer loop
    vertex 1.9999999999999991 35.0 3.0
    vertex 5.11337078894214 31.928840692210066 3.0
    vertex 4.294333424460072 33.8499528780497 3.0
  endloop
endfacet
facet normal -1.753277439891081e-16 3.5656343478042596e-17 1.0
  outer loop
    vertex 1.9999999999999991 35.0 3.0
    vertex 4.294333424460072 33.8499528780497 3.0
    vertex 4.000424502884942 35.917587222129384 3.0
  endloop
endfacet
facet normal -1.753277439891081e-16 3.5656343478042596e-17 1.0
  outer loop
    vertex 1.9999999999999991 35.0 3.0
    vertex 4.000424502884942 35.917587222129384 3.0
    vertex -6.855627177060348e-16 35.0 3.0
  endloop
endfacet
facet normal -1.753277439891081e-16 3.5656343478042596e-17 1.0
  outer loop
    vertex -6.855627177060348e-16 35.0 3.0
    vertex 4.000424502884942 35.917587222129384 3.0
    vertex -6.855627177060348e-16 45.99999999999999 3.0
  endloop
endfacet
facet normal -1.753277439891081e-16 3.5656343478042596e-17 1.0
  outer loop
    vertex -6.855627177060348e-16 45.99999999999999 3.0
    vertex 4.000424502884942 35.917587222129384 3.0
    vertex 4.251673431514633 37.99083786082738 3.0
  endloop
endfacet
facet normal -1.753277439891081e-16 3.5656343478042596e-17 1.0
  outer loop
    vertex -6.855627177060348e-16 45.99999999999999 3.0
    vertex 4.251673431514633 37.99083786082738 3.0
    vertex 5.0309580110715215 39.92841618932513 3.0
  endloop
endfacet
facet normal -1.753277439891081e-16 3.5656343478042596e-17 1.0
  outer loop
    vertex -6.855627177060348e-16 45.99999999999999 3.0
    vertex 5.0309580110715215 39.92841618932513 3.0
    vertex 6.285171285287459 41.59827944653507 3.000000000000003
  endloop
endfacet
facet normal -1.753277439891081e-16 3.5656343478042596e-17 1.0
  outer loop
    vertex -6.855627177060348e-16 45.99999999999999 3.0
    vertex 6.285171285287459 41.59827944653507 3.000000000000003
    vertex 7.928840692210072 42.886629211057866 3.000000000000003
  endloop
endfacet
facet normal -1.753277439891081e-16 3.5656343478042596e-17 1.0
  outer loop
    vertex -6.855627177060348e-16 45.99999999999999 3.0
    vertex 7.928840692210072 42.886629211057866 3.000000000000003
    vertex 9.849952878049706 43.70566657553992 3.000000000000003
  endloop
endfacet
facet normal -1.753277439891081e-16 3.5656343478042596e-17 1.0
  outer loop
    vertex -6.855627177060348e-16 45.99999999999999 3.0
    vertex 9.849952878049706 43.70566657553992 3.000000000000003
    vertex 11.917587222129383 43.99957549711506 3.000000000000003
  endloop
endfacet
facet normal -1.753277439891081e-16 3.5656343478042596e-17 1.0
  outer loop
    vertex -6.855627177060348e-16 45.99999999999999 3.0
    vertex 11.917587222129383 43.99957549711506 3.000000000000003
    vertex 22.000000000000004 45.99999999999999 3.0000000000000058
  endloop
endfacet
facet normal -1.753277439891081e-16 3.5656343478042596e-17 1.0
  outer loop
    vertex -6.855627177060354e-16 0.0 3.000000000000003
    vertex 6.825233518231105 3.8990335307296435 3.000000000000003
    vertex -6.855627177060354e-16 11.0 3.000000000000003
  endloop
endfacet
facet normal -1.753277439891081e-16 3.5656343478042596e-17 1.0
  outer loop
    vertex 6.825233518231105 3.8990335307296435 3.000000000000003
    vertex -6.855627177060354e-16 0.0 3.000000000000003
    vertex 8.580605726023457 2.767590802568176 3.000000000000003
  endloop
endfacet
facet normal -1.753277439891081e-16 3.5656343478042596e-17 1.0
  outer loop
    vertex 8.580605726023457 2.767590802568176 3.000000000000003
    vertex -6.855627177060354e-16 0.0 3.000000000000003
    vertex 10.569004002771091 2.129024809090372 3.000000000000003
  endloop
endfacet
facet normal -1.753277439891081e-16 3.5656343478042596e-17 1.0
  outer loop
    vertex 10.569004002771091 2.129024809090372 3.000000000000003
    vertex -6.855627177060354e-16 0.0 3.000000000000003
    vertex 12.654922291897178 2.0268527674715444 3.000000000000003
  endloop
endfacet
facet normal -1.753277439891081e-16 3.5656343478042596e-17 1.0
  outer loop
    vertex -6.855627177060354e-16 11.0 3.000000000000003
    vertex 6.825233518231105 3.8990335307296435 3.000000000000003
    vertex 5.422513094465354 5.446247041448089 3.0
  endloop
endfacet
facet normal -1.753277439891081e-16 3.5656343478042596e-17 1.0
  outer loop
    vertex -6.855627177060354e-16 11.0 3.000000000000003
    vertex 5.422513094465354 5.446247041448089 3.0
    vertex 4.4680375335007385 7.303791290859267 3.0
  endloop
endfacet
facet normal -1.753277439891081e-16 3.5656343478042596e-17 1.0
  outer loop
    vertex -6.855627177060354e-16 11.0 3.000000000000003
    vertex 4.4680375335007385 7.303791290859267 3.0
    vertex 4.026852767471547 9.34507770810282 3.0
  endloop
endfacet
facet normal -1.753277439891081e-16 3.5656343478042596e-17 1.0
  outer loop
    vertex -6.855627177060354e-16 11.0 3.000000000000003
    vertex 4.026852767471547 9.34507770810282 3.0
    vertex 1.9999999999999991 11.0 3.0
  endloop
endfacet
facet normal 0.0 -1.0 0.0
  outer loop
    vertex 22.000000000000004 0.0 5.639932965095795e-15
    vertex -6.855627177060354e-16 0.0 3.000000000000003
    vertex 2.220446049250309e-17 0.0 0.0
  endloop
endfacet
facet normal 0.0 -1.0 0.0
  outer loop
    vertex -6.855627177060354e-16 0.0 3.000000000000003
    vertex 22.000000000000004 0.0 5.639932965095795e-15
    vertex 22.000000000000004 0.0 3.0000000000000058
  endloop
endfacet
facet normal -0.9198882582321417 -0.3921805609239664 -2.1702223892897673e-16
  outer loop
    vertex 18.886629211057866 40.071159307789934 2.8199664825478975e-15
    vertex 19.705666575539933 38.1500471219503 3.0000000000000058
    vertex 18.886629211057866 40.071159307789934 3.0000000000000058
  endloop
endfacet
facet normal -0.9198882582321417 -0.3921805609239664 -2.1702223892897673e-16
  outer loop
    vertex 19.705666575539933 38.1500471219503 3.0000000000000058
    vertex 18.886629211057866 40.071159307789934 2.8199664825478975e-15
    vertex 19.705666575539933 38.1500471219503 2.8199664825478975e-15
  endloop
endfacet
facet normal 0.12030580048548645 0.9927368807340375 2.8382832310176314e-17
  outer loop
    vertex 12.08241277787062 28.000424502884933 3.000000000000003
    vertex 10.009162139172615 28.251673431514625 0.0
    vertex 10.009162139172615 28.251673431514625 3.000000000000003
  endloop
endfacet
facet normal 0.12030580048548645 0.9927368807340375 2.8382832310176314e-17
  outer loop
    vertex 10.009162139172615 28.251673431514625 0.0
    vertex 12.08241277787062 28.000424502884933 3.000000000000003
    vertex 12.08241277787062 28.000424502884933 0.0
  endloop
endfacet
facet normal 0.39218056092396547 -0.9198882582321419 9.25241763164915e-17
  outer loop
    vertex 9.849952878049706 43.70566657553992 0.0
    vertex 7.928840692210072 42.886629211057866 3.000000000000003
    vertex 7.928840692210072 42.886629211057866 0.0
  endloop
endfacet
facet normal 0.39218056092396547 -0.9198882582321419 9.25241763164915e-17
  outer loop
    vertex 7.928840692210072 42.886629211057866 3.000000000000003
    vertex 9.849952878049706 43.70566657553992 0.0
    vertex 9.849952878049706 43.70566657553992 3.000000000000003
  endloop
endfacet
facet normal 0.9900476242126053 0.14073273176832693 2.335744044237071e-16
  outer loop
    vertex 4.294333424460072 33.8499528780497 -2.8199664825478975e-15
    vertex 4.000424502884942 35.917587222129384 3.0
    vertex 4.294333424460072 33.8499528780497 3.0
  endloop
endfacet
facet normal 0.9900476242126053 0.14073273176832693 2.335744044237071e-16
  outer loop
    vertex 4.000424502884942 35.917587222129384 3.0
    vertex 4.294333424460072 33.8499528780497 -2.8199664825478975e-15
    vertex 4.000424502884943 35.917587222129384 -2.8199664825478975e-15
  endloop
endfacet
facet normal -0.7870400276403815 -0.6169019329616561 -1.8568036649744382e-16
  outer loop
    vertex 17.598279446535074 41.71482871471254 0.0
    vertex 18.886629211057866 40.071159307789934 3.0000000000000058
    vertex 17.598279446535074 41.71482871471254 3.000000000000003
  endloop
endfacet
facet normal -0.7870400276403815 -0.6169019329616561 -1.8568036649744382e-16
  outer loop
    vertex 18.886629211057866 40.071159307789934 3.0000000000000058
    vertex 17.598279446535074 41.71482871471254 0.0
    vertex 18.886629211057866 40.071159307789934 2.8199664825478975e-15
  endloop
endfacet
facet normal 0.7408539449069096 0.6716661613598452 1.7478403534800598e-16
  outer loop
    vertex 6.825233518231105 3.8990335307296435 -5.639932965095795e-15
    vertex 5.422513094465354 5.446247041448089 3.0
    vertex 6.825233518231105 3.8990335307296435 3.000000000000003
  endloop
endfacet
facet normal 0.7408539449069096 0.6716661613598452 1.7478403534800598e-16
  outer loop
    vertex 5.422513094465354 5.446247041448089 3.0
    vertex 6.825233518231105 3.8990335307296435 -5.639932965095795e-15
    vertex 5.422513094465355 5.446247041448089 -8.459899447643692e-15
  endloop
endfacet
facet normal -0.9774314174632233 -0.21125298614654944 -2.305979587401806e-16
  outer loop
    vertex 19.53196246649927 12.696208709140732 -2.8199664825478975e-15
    vertex 19.973147232528458 10.654922291897181 3.0000000000000058
    vertex 19.53196246649927 12.696208709140732 3.0000000000000058
  endloop
endfacet
facet normal -0.9774314174632233 -0.21125298614654944 -2.305979587401806e-16
  outer loop
    vertex 19.973147232528458 10.654922291897181 3.0000000000000058
    vertex 19.53196246649927 12.696208709140732 -2.8199664825478975e-15
    vertex 19.973147232528458 10.654922291897181 -2.8199664825478975e-15
  endloop
endfacet
facet normal 0.4570325813206738 -0.8894499534045531 1.0782422014204226e-16
  outer loop
    vertex 9.303791290859271 17.531962466499262 -5.639932965095795e-15
    vertex 7.446247041448095 16.577486905534645 3.000000000000003
    vertex 7.446247041448095 16.577486905534645 -5.639932965095795e-15
  endloop
endfacet
facet normal 0.4570325813206738 -0.8894499534045531 1.0782422014204226e-16
  outer loop
    vertex 7.446247041448095 16.577486905534645 3.000000000000003
    vertex 9.303791290859271 17.531962466499262 -5.639932965095795e-15
    vertex 9.303791290859271 17.531962466499262 3.000000000000003
  endloop
endfacet
facet normal 0.04892315092139597 0.9988025457035651 1.1542066825405863e-17
  outer loop
    vertex 12.654922291897178 2.0268527674715444 3.000000000000003
    vertex 10.569004002771091 2.129024809090372 -5.639932965095795e-15
    vertex 10.569004002771091 2.129024809090372 3.000000000000003
  endloop
endfacet
facet normal 0.04892315092139597 0.9988025457035651 1.1542066825405863e-17
  outer loop
    vertex 10.569004002771091 2.129024809090372 -5.639932965095795e-15
    vertex 12.654922291897178 2.0268527674715444 3.000000000000003
    vertex 12.654922291897178 2.0268527674715444 -5.639932965095795e-15
  endloop
endfacet
facet normal 0.30576525610337746 0.952106931053459 7.213687083448017e-17
  outer loop
    vertex 10.569004002771091 2.129024809090372 3.000000000000003
    vertex 8.580605726023457 2.767590802568176 -5.639932965095795e-15
    vertex 8.580605726023457 2.767590802568176 3.000000000000003
  endloop
endfacet
facet normal 0.30576525610337746 0.952106931053459 7.213687083448017e-17
  outer loop
    vertex 8.580605726023457 2.767590802568176 -5.639932965095795e-15
    vertex 10.569004002771091 2.129024809090372 3.000000000000003
    vertex 10.569004002771091 2.129024809090372 -5.639932965095795e-15
  endloop
endfacet
facet normal -0.9988025457035652 0.04892315092139517 -2.356398864500426e-16
  outer loop
    vertex 19.973147232528458 10.654922291897181 -2.8199664825478975e-15
    vertex 19.870975190909633 8.56900400277109 3.0000000000000058
    vertex 19.973147232528458 10.654922291897181 3.0000000000000058
  endloop
endfacet
facet normal -0.9988025457035652 0.04892315092139517 -2.356398864500426e-16
  outer loop
    vertex 19.870975190909633 8.56900400277109 3.0000000000000058
    vertex 19.973147232528458 10.654922291897181 -2.8199664825478975e-15
    vertex 19.870975190909633 8.56900400277109 -2.8199664825478975e-15
  endloop
endfacet
facet normal 0.8894499534045535 0.45703258132067304 2.098411612233204e-16
  outer loop
    vertex 5.422513094465355 5.446247041448089 -8.459899447643692e-15
    vertex 4.4680375335007385 7.303791290859267 3.0
    vertex 5.422513094465354 5.446247041448089 3.0
  endloop
endfacet
facet normal 0.8894499534045535 0.45703258132067304 2.098411612233204e-16
  outer loop
    vertex 4.4680375335007385 7.303791290859267 3.0
    vertex 5.422513094465355 5.446247041448089 -8.459899447643692e-15
    vertex 4.468037533500739 7.303791290859267 -8.459899447643692e-15
  endloop
endfacet
facet normal -0.8405268024831575 0.5417699643828914 -1.9829909439791451e-16
  outer loop
    vertex 19.232409197431828 6.580605726023457 -2.8199664825478975e-15
    vertex 18.10096646927036 4.825233518231107 3.0000000000000058
    vertex 19.232409197431828 6.580605726023457 3.0000000000000058
  endloop
endfacet
facet normal -0.8405268024831575 0.5417699643828914 -1.9829909439791451e-16
  outer loop
    vertex 18.10096646927036 4.825233518231107 3.0000000000000058
    vertex 19.232409197431828 6.580605726023457 -2.8199664825478975e-15
    vertex 18.10096646927036 4.825233518231107 -2.8199664825478975e-15
  endloop
endfacet
facet normal -0.6716661613598459 0.740853944906909 -1.5846108790570048e-16
  outer loop
    vertex 18.10096646927036 4.825233518231107 3.0000000000000058
    vertex 16.55375295855191 3.422513094465352 -5.639932965095795e-15
    vertex 16.55375295855191 3.422513094465352 3.000000000000003
  endloop
endfacet
facet normal -0.6716661613598459 0.740853944906909 -1.5846108790570048e-16
  outer loop
    vertex 16.55375295855191 3.422513094465352 -5.639932965095795e-15
    vertex 18.10096646927036 4.825233518231107 3.0000000000000058
    vertex 18.10096646927036 4.825233518231107 -2.8199664825478975e-15
  endloop
endfacet
facet normal -0.8894499534045528 -0.4570325813206744 -2.0984116122332022e-16
  outer loop
    vertex 18.57748690553465 14.55375295855191 -2.8199664825478975e-15
    vertex 19.53196246649927 12.696208709140732 3.0000000000000058
    vertex 18.57748690553465 14.55375295855191 3.0000000000000058
  endloop
endfacet
facet normal -0.8894499534045528 -0.4570325813206744 -2.0984116122332022e-16
  outer loop
    vertex 19.53196246649927 12.696208709140732 3.0000000000000058
    vertex 18.57748690553465 14.55375295855191 -2.8199664825478975e-15
    vertex 19.53196246649927 12.696208709140732 -2.8199664825478975e-15
  endloop
endfacet
facet normal 0.541769964382891 0.8405268024831575 1.2781566630800025e-16
  outer loop
    vertex 8.580605726023457 2.767590802568176 3.000000000000003
    vertex 6.825233518231105 3.8990335307296435 -5.639932965095795e-15
    vertex 6.825233518231105 3.8990335307296435 3.000000000000003
  endloop
endfacet
facet normal 0.541769964382891 0.8405268024831575 1.2781566630800025e-16
  outer loop
    vertex 6.825233518231105 3.8990335307296435 -5.639932965095795e-15
    vertex 8.580605726023457 2.767590802568176 3.000000000000003
    vertex 8.580605726023457 2.767590802568176 -5.639932965095795e-15
  endloop
endfacet
facet normal -0.2112529861465492 0.9774314174632233 -4.9839309963652594e-17
  outer loop
    vertex 14.696208709140732 2.468037533500734 3.000000000000003
    vertex 12.654922291897178 2.0268527674715444 -5.639932965095795e-15
    vertex 12.654922291897178 2.0268527674715444 3.000000000000003
  endloop
endfacet
facet normal -0.2112529861465492 0.9774314174632233 -4.9839309963652594e-17
  outer loop
    vertex 12.654922291897178 2.0268527674715444 -5.639932965095795e-15
    vertex 14.696208709140732 2.468037533500734 3.000000000000003
    vertex 14.696208709140732 2.468037533500734 -5.639932965095795e-15
  endloop
endfacet
facet normal 0.9988025457035652 -0.04892315092139658 2.356398864500426e-16
  outer loop
    vertex 4.0268527674715475 9.34507770810282 -8.459899447643692e-15
    vertex 4.129024809090376 11.430995997228909 3.0
    vertex 4.026852767471547 9.34507770810282 3.0
  endloop
endfacet
facet normal 0.9988025457035652 -0.04892315092139658 2.356398864500426e-16
  outer loop
    vertex 4.129024809090376 11.430995997228909 3.0
    vertex 4.0268527674715475 9.34507770810282 -8.459899447643692e-15
    vertex 4.129024809090376 11.430995997228909 -8.459899447643692e-15
  endloop
endfacet
facet normal 0.8405268024831573 -0.5417699643828917 1.9829909439791446e-16
  outer loop
    vertex 4.767590802568179 13.41939427397654 -8.459899447643692e-15
    vertex 5.899033530729649 15.174766481768893 3.0
    vertex 4.767590802568178 13.41939427397654 3.0
  endloop
endfacet
facet normal 0.8405268024831573 -0.5417699643828917 1.9829909439791446e-16
  outer loop
    vertex 5.899033530729649 15.174766481768893 3.0
    vertex 4.767590802568179 13.41939427397654 -8.459899447643692e-15
    vertex 5.89903353072965 15.174766481768893 -8.459899447643692e-15
  endloop
endfacet
facet normal -0.4570325813206733 0.8894499534045534 -1.0782422014204213e-16
  outer loop
    vertex 16.55375295855191 3.422513094465352 3.000000000000003
    vertex 14.696208709140732 2.468037533500734 -5.639932965095795e-15
    vertex 14.696208709140732 2.468037533500734 3.000000000000003
  endloop
endfacet
facet normal -0.4570325813206733 0.8894499534045534 -1.0782422014204213e-16
  outer loop
    vertex 14.696208709140732 2.468037533500734 -5.639932965095795e-15
    vertex 16.55375295855191 3.422513094465352 3.000000000000003
    vertex 16.55375295855191 3.422513094465352 -5.639932965095795e-15
  endloop
endfacet
facet normal 0.6716661613598457 -0.7408539449069094 1.5846108790570043e-16
  outer loop
    vertex 7.446247041448095 16.577486905534645 -5.639932965095795e-15
    vertex 5.899033530729649 15.174766481768893 3.0
    vertex 5.89903353072965 15.174766481768893 -8.459899447643692e-15
  endloop
endfacet
facet normal 0.6716661613598457 -0.7408539449069094 1.5846108790570043e-16
  outer loop
    vertex 5.899033530729649 15.174766481768893 3.0
    vertex 7.446247041448095 16.577486905534645 -5.639932965095795e-15
    vertex 7.446247041448095 16.577486905534645 3.000000000000003
  endloop
endfacet
facet normal 0.9774314174632233 0.21125298614655003 2.305979587401806e-16
  outer loop
    vertex 4.468037533500739 7.303791290859267 -8.459899447643692e-15
    vertex 4.026852767471547 9.34507770810282 3.0
    vertex 4.4680375335007385 7.303791290859267 3.0
  endloop
endfacet
facet normal 0.9774314174632233 0.21125298614655003 2.305979587401806e-16
  outer loop
    vertex 4.026852767471547 9.34507770810282 3.0
    vertex 4.468037533500739 7.303791290859267 -8.459899447643692e-15
    vertex 4.0268527674715475 9.34507770810282 -8.459899447643692e-15
  endloop
endfacet
facet normal -0.9521069310534587 0.30576525610337846 -2.246233453116585e-16
  outer loop
    vertex 19.870975190909633 8.56900400277109 -2.8199664825478975e-15
    vertex 19.232409197431828 6.580605726023457 3.0000000000000058
    vertex 19.870975190909633 8.56900400277109 3.0000000000000058
  endloop
endfacet
facet normal -0.9521069310534587 0.30576525610337846 -2.246233453116585e-16
  outer loop
    vertex 19.232409197431828 6.580605726023457 3.0000000000000058
    vertex 19.870975190909633 8.56900400277109 -2.8199664825478975e-15
    vertex 19.232409197431828 6.580605726023457 -2.8199664825478975e-15
  endloop
endfacet
facet normal -0.5417699643828917 -0.8405268024831571 -1.2781566630800042e-16
  outer loop
    vertex 17.174766481768895 16.100966469270354 -5.639932965095795e-15
    vertex 15.419394273976549 17.232409197431824 3.000000000000003
    vertex 15.419394273976549 17.232409197431824 -5.639932965095795e-15
  endloop
endfacet
facet normal -0.5417699643828917 -0.8405268024831571 -1.2781566630800042e-16
  outer loop
    vertex 15.419394273976549 17.232409197431824 3.000000000000003
    vertex 17.174766481768895 16.100966469270354 -5.639932965095795e-15
    vertex 17.174766481768895 16.100966469270354 3.000000000000003
  endloop
endfacet
facet normal 2.359223927328457e-16 0.0 -1.0
  outer loop
    vertex 2.220446049250309e-17 0.0 0.0
    vertex 10.569004002771091 2.129024809090372 -5.639932965095795e-15
    vertex 22.000000000000004 0.0 5.639932965095795e-15
  endloop
endfacet
facet normal 2.359223927328457e-16 0.0 -1.0
  outer loop
    vertex 10.569004002771091 2.129024809090372 -5.639932965095795e-15
    vertex 2.220446049250309e-17 0.0 0.0
    vertex 8.580605726023457 2.767590802568176 -5.639932965095795e-15
  endloop
endfacet
facet normal 2.359223927328457e-16 0.0 -1.0
  outer loop
    vertex 8.580605726023457 2.767590802568176 -5.639932965095795e-15
    vertex 2.220446049250309e-17 0.0 0.0
    vertex 6.825233518231105 3.8990335307296435 -5.639932965095795e-15
  endloop
endfacet
facet normal 2.359223927328457e-16 0.0 -1.0
  outer loop
    vertex 6.825233518231105 3.8990335307296435 -5.639932965095795e-15
    vertex 2.220446049250309e-17 0.0 0.0
    vertex 5.422513094465355 5.446247041448089 -8.459899447643692e-15
  endloop
endfacet
facet normal 2.359223927328457e-16 0.0 -1.0
  outer loop
    vertex 5.422513094465355 5.446247041448089 -8.459899447643692e-15
    vertex 2.220446049250309e-17 0.0 0.0
    vertex 4.468037533500739 7.303791290859267 -8.459899447643692e-15
  endloop
endfacet
facet normal 2.359223927328457e-16 0.0 -1.0
  outer loop
    vertex 4.468037533500739 7.303791290859267 -8.459899447643692e-15
    vertex 2.220446049250309e-17 0.0 0.0
    vertex 4.0268527674715475 9.34507770810282 -8.459899447643692e-15
  endloop
endfacet
facet normal 2.359223927328457e-16 0.0 -1.0
  outer loop
    vertex 4.0268527674715475 9.34507770810282 -8.459899447643692e-15
    vertex 2.220446049250309e-17 0.0 0.0
    vertex 2.220446049250309e-17 45.99999999999999 0.0
  endloop
endfacet
facet normal 2.359223927328457e-16 0.0 -1.0
  outer loop
    vertex 22.000000000000004 0.0 5.639932965095795e-15
    vertex 10.569004002771091 2.129024809090372 -5.639932965095795e-15
    vertex 12.654922291897178 2.0268527674715444 -5.639932965095795e-15
  endloop
endfacet
facet normal 2.359223927328457e-16 0.0 -1.0
  outer loop
    vertex 4.0268527674715475 9.34507770810282 -8.459899447643692e-15
    vertex 2.220446049250309e-17 45.99999999999999 0.0
    vertex 4.129024809090376 11.430995997228909 -8.459899447643692e-15
  endloop
endfacet
facet normal 2.359223927328457e-16 0.0 -1.0
  outer loop
    vertex 4.129024809090376 11.430995997228909 -8.459899447643692e-15
    vertex 2.220446049250309e-17 45.99999999999999 0.0
    vertex 4.767590802568179 13.41939427397654 -8.459899447643692e-15
  endloop
endfacet
facet normal 2.359223927328457e-16 0.0 -1.0
  outer loop
    vertex 4.767590802568179 13.41939427397654 -8.459899447643692e-15
    vertex 2.220446049250309e-17 45.99999999999999 0.0
    vertex 5.89903353072965 15.174766481768893 -8.459899447643692e-15
  endloop
endfacet
facet normal 2.359223927328457e-16 0.0 -1.0
  outer loop
    vertex 5.89903353072965 15.174766481768893 -8.459899447643692e-15
    vertex 2.220446049250309e-17 45.99999999999999 0.0
    vertex 7.446247041448095 16.577486905534645 -5.639932965095795e-15
  endloop
endfacet
facet normal 2.359223927328457e-16 0.0 -1.0
  outer loop
    vertex 7.446247041448095 16.577486905534645 -5.639932965095795e-15
    vertex 2.220446049250309e-17 45.99999999999999 0.0
    vertex 9.303791290859271 17.531962466499262 -5.639932965095795e-15
  endloop
endfacet
facet normal 2.359223927328457e-16 0.0 -1.0
  outer loop
    vertex 9.303791290859271 17.531962466499262 -5.639932965095795e-15
    vertex 2.220446049250309e-17 45.99999999999999 0.0
    vertex 4.294333424460072 33.8499528780497 -2.8199664825478975e-15
  endloop
endfacet
facet normal 2.359223927328457e-16 0.0 -1.0
  outer loop
    vertex 9.303791290859271 17.531962466499262 -5.639932965095795e-15
    vertex 4.294333424460072 33.8499528780497 -2.8199664825478975e-15
    vertex 5.11337078894214 31.928840692210066 -2.8199664825478975e-15
  endloop
endfacet
facet normal 2.359223927328457e-16 0.0 -1.0
  outer loop
    vertex 9.303791290859271 17.531962466499262 -5.639932965095795e-15
    vertex 5.11337078894214 31.928840692210066 -2.8199664825478975e-15
    vertex 11.345077708102826 17.97314723252845 -5.639932965095795e-15
  endloop
endfacet
facet normal 2.359223927328457e-16 0.0 -1.0
  outer loop
    vertex 11.345077708102826 17.97314723252845 -5.639932965095795e-15
    vertex 5.11337078894214 31.928840692210066 -2.8199664825478975e-15
    vertex 6.40172055346493 30.285171285287458 0.0
  endloop
endfacet
facet normal 2.359223927328457e-16 0.0 -1.0
  outer loop
    vertex 11.345077708102826 17.97314723252845 -5.639932965095795e-15
    vertex 6.40172055346493 30.285171285287458 0.0
    vertex 8.071583810674872 29.030958011071515 0.0
  endloop
endfacet
facet normal 2.359223927328457e-16 0.0 -1.0
  outer loop
    vertex 11.345077708102826 17.97314723252845 -5.639932965095795e-15
    vertex 8.071583810674872 29.030958011071515 0.0
    vertex 10.009162139172615 28.251673431514625 0.0
  endloop
endfacet
facet normal 2.359223927328457e-16 0.0 -1.0
  outer loop
    vertex 11.345077708102826 17.97314723252845 -5.639932965095795e-15
    vertex 10.009162139172615 28.251673431514625 0.0
    vertex 12.08241277787062 28.000424502884933 0.0
  endloop
endfacet
facet normal 2.359223927328457e-16 0.0 -1.0
  outer loop
    vertex 4.294333424460072 33.8499528780497 -2.8199664825478975e-15
    vertex 2.220446049250309e-17 45.99999999999999 0.0
    vertex 4.000424502884943 35.917587222129384 -2.8199664825478975e-15
  endloop
endfacet
facet normal 2.359223927328457e-16 0.0 -1.0
  outer loop
    vertex 4.000424502884943 35.917587222129384 -2.8199664825478975e-15
    vertex 2.220446049250309e-17 45.99999999999999 0.0
    vertex 4.251673431514634 37.99083786082738 -2.8199664825478975e-15
  endloop
endfacet
facet normal 2.359223927328457e-16 0.0 -1.0
  outer loop
    vertex 4.251673431514634 37.99083786082738 -2.8199664825478975e-15
    vertex 2.220446049250309e-17 45.99999999999999 0.0
    vertex 5.030958011071522 39.92841618932513 -2.8199664825478975e-15
  endloop
endfacet
facet normal 2.359223927328457e-16 0.0 -1.0
  outer loop
    vertex 5.030958011071522 39.92841618932513 -2.8199664825478975e-15
    vertex 2.220446049250309e-17 45.99999999999999 0.0
    vertex 6.2851712852874595 41.59827944653507 0.0
  endloop
endfacet
facet normal 2.359223927328457e-16 0.0 -1.0
  outer loop
    vertex 6.2851712852874595 41.59827944653507 0.0
    vertex 2.220446049250309e-17 45.99999999999999 0.0
    vertex 7.928840692210072 42.886629211057866 0.0
  endloop
endfacet
facet normal 2.359223927328457e-16 0.0 -1.0
  outer loop
    vertex 7.928840692210072 42.886629211057866 0.0
    vertex 2.220446049250309e-17 45.99999999999999 0.0
    vertex 9.849952878049706 43.70566657553992 0.0
  endloop
endfacet
facet normal 2.359223927328457e-16 0.0 -1.0
  outer loop
    vertex 9.849952878049706 43.70566657553992 0.0
    vertex 2.220446049250309e-17 45.99999999999999 0.0
    vertex 11.917587222129383 43.99957549711506 0.0
  endloop
endfacet
facet normal 2.359223927328457e-16 0.0 -1.0
  outer loop
    vertex 22.000000000000004 0.0 5.639932965095795e-15
    vertex 19.870975190909633 8.56900400277109 -2.8199664825478975e-15
    vertex 22.000000000000004 45.99999999999999 5.639932965095795e-15
  endloop
endfacet
facet normal 2.359223927328457e-16 0.0 -1.0
  outer loop
    vertex 19.870975190909633 8.56900400277109 -2.8199664825478975e-15
    vertex 22.000000000000004 0.0 5.639932965095795e-15
    vertex 19.232409197431828 6.580605726023457 -2.8199664825478975e-15
  endloop
endfacet
facet normal 2.359223927328457e-16 0.0 -1.0
  outer loop
    vertex 19.232409197431828 6.580605726023457 -2.8199664825478975e-15
    vertex 22.000000000000004 0.0 5.639932965095795e-15
    vertex 18.10096646927036 4.825233518231107 -2.8199664825478975e-15
  endloop
endfacet
facet normal 2.359223927328457e-16 0.0 -1.0
  outer loop
    vertex 18.10096646927036 4.825233518231107 -2.8199664825478975e-15
    vertex 22.000000000000004 0.0 5.639932965095795e-15
    vertex 16.55375295855191 3.422513094465352 -5.639932965095795e-15
  endloop
endfacet
facet normal 2.359223927328457e-16 0.0 -1.0
  outer loop
    vertex 16.55375295855191 3.422513094465352 -5.639932965095795e-15
    vertex 22.000000000000004 0.0 5.639932965095795e-15
    vertex 14.696208709140732 2.468037533500734 -5.639932965095795e-15
  endloop
endfacet
facet normal 2.359223927328457e-16 0.0 -1.0
  outer loop
    vertex 14.696208709140732 2.468037533500734 -5.639932965095795e-15
    vertex 22.000000000000004 0.0 5.639932965095795e-15
    vertex 12.654922291897178 2.0268527674715444 -5.639932965095795e-15
  endloop
endfacet
facet normal 2.359223927328457e-16 0.0 -1.0
  outer loop
    vertex 22.000000000000004 45.99999999999999 5.639932965095795e-15
    vertex 19.870975190909633 8.56900400277109 -2.8199664825478975e-15
    vertex 19.973147232528458 10.654922291897181 -2.8199664825478975e-15
  endloop
endfacet
facet normal 2.359223927328457e-16 0.0 -1.0
  outer loop
    vertex 22.000000000000004 45.99999999999999 5.639932965095795e-15
    vertex 19.973147232528458 10.654922291897181 -2.8199664825478975e-15
    vertex 19.53196246649927 12.696208709140732 -2.8199664825478975e-15
  endloop
endfacet
facet normal 2.359223927328457e-16 0.0 -1.0
  outer loop
    vertex 22.000000000000004 45.99999999999999 5.639932965095795e-15
    vertex 19.53196246649927 12.696208709140732 -2.8199664825478975e-15
    vertex 18.57748690553465 14.55375295855191 -2.8199664825478975e-15
  endloop
endfacet
facet normal 2.359223927328457e-16 0.0 -1.0
  outer loop
    vertex 22.000000000000004 45.99999999999999 5.639932965095795e-15
    vertex 18.57748690553465 14.55375295855191 -2.8199664825478975e-15
    vertex 17.174766481768895 16.100966469270354 -5.639932965095795e-15
  endloop
endfacet
facet normal 2.359223927328457e-16 0.0 -1.0
  outer loop
    vertex 22.000000000000004 45.99999999999999 5.639932965095795e-15
    vertex 17.174766481768895 16.100966469270354 -5.639932965095795e-15
    vertex 19.748326568485375 34.009162139172616 2.8199664825478975e-15
  endloop
endfacet
facet normal 2.359223927328457e-16 0.0 -1.0
  outer loop
    vertex 19.748326568485375 34.009162139172616 2.8199664825478975e-15
    vertex 17.174766481768895 16.100966469270354 -5.639932965095795e-15
    vertex 15.419394273976549 17.232409197431824 -5.639932965095795e-15
  endloop
endfacet
facet normal 2.359223927328457e-16 0.0 -1.0
  outer loop
    vertex 19.748326568485375 34.009162139172616 2.8199664825478975e-15
    vertex 15.419394273976549 17.232409197431824 -5.639932965095795e-15
    vertex 13.430995997228912 17.870975190909625 -5.639932965095795e-15
  endloop
endfacet
facet normal 2.359223927328457e-16 0.0 -1.0
  outer loop
    vertex 19.748326568485375 34.009162139172616 2.8199664825478975e-15
    vertex 13.430995997228912 17.870975190909625 -5.639932965095795e-15
    vertex 18.96904198892849 32.071583810674866 2.8199664825478975e-15
  endloop
endfacet
facet normal 2.359223927328457e-16 0.0 -1.0
  outer loop
    vertex 18.96904198892849 32.071583810674866 2.8199664825478975e-15
    vertex 13.430995997228912 17.870975190909625 -5.639932965095795e-15
    vertex 11.345077708102826 17.97314723252845 -5.639932965095795e-15
  endloop
endfacet
facet normal 2.359223927328457e-16 0.0 -1.0
  outer loop
    vertex 18.96904198892849 32.071583810674866 2.8199664825478975e-15
    vertex 11.345077708102826 17.97314723252845 -5.639932965095795e-15
    vertex 17.714828714712546 30.401720553464923 0.0
  endloop
endfacet
facet normal 2.359223927328457e-16 0.0 -1.0
  outer loop
    vertex 17.714828714712546 30.401720553464923 0.0
    vertex 11.345077708102826 17.97314723252845 -5.639932965095795e-15
    vertex 16.071159307789937 29.113370788942134 0.0
  endloop
endfacet
facet normal 2.359223927328457e-16 0.0 -1.0
  outer loop
    vertex 16.071159307789937 29.113370788942134 0.0
    vertex 11.345077708102826 17.97314723252845 -5.639932965095795e-15
    vertex 14.1500471219503 28.294333424460067 0.0
  endloop
endfacet
facet normal 2.359223927328457e-16 0.0 -1.0
  outer loop
    vertex 14.1500471219503 28.294333424460067 0.0
    vertex 11.345077708102826 17.97314723252845 -5.639932965095795e-15
    vertex 12.08241277787062 28.000424502884933 0.0
  endloop
endfacet
facet normal 2.359223927328457e-16 0.0 -1.0
  outer loop
    vertex 22.000000000000004 45.99999999999999 5.639932965095795e-15
    vertex 19.748326568485375 34.009162139172616 2.8199664825478975e-15
    vertex 19.999575497115064 36.082412777870616 2.8199664825478975e-15
  endloop
endfacet
facet normal 2.359223927328457e-16 0.0 -1.0
  outer loop
    vertex 22.000000000000004 45.99999999999999 5.639932965095795e-15
    vertex 19.999575497115064 36.082412777870616 2.8199664825478975e-15
    vertex 19.705666575539933 38.1500471219503 2.8199664825478975e-15
  endloop
endfacet
facet normal 2.359223927328457e-16 0.0 -1.0
  outer loop
    vertex 22.000000000000004 45.99999999999999 5.639932965095795e-15
    vertex 19.705666575539933 38.1500471219503 2.8199664825478975e-15
    vertex 18.886629211057866 40.071159307789934 2.8199664825478975e-15
  endloop
endfacet
facet normal 2.359223927328457e-16 0.0 -1.0
  outer loop
    vertex 22.000000000000004 45.99999999999999 5.639932965095795e-15
    vertex 18.886629211057866 40.071159307789934 2.8199664825478975e-15
    vertex 17.598279446535074 41.71482871471254 0.0
  endloop
endfacet
facet normal 2.359223927328457e-16 0.0 -1.0
  outer loop
    vertex 22.000000000000004 45.99999999999999 5.639932965095795e-15
    vertex 17.598279446535074 41.71482871471254 0.0
    vertex 15.928416189325134 42.96904198892848 0.0
  endloop
endfacet
facet normal 2.359223927328457e-16 0.0 -1.0
  outer loop
    vertex 22.000000000000004 45.99999999999999 5.639932965095795e-15
    vertex 15.928416189325134 42.96904198892848 0.0
    vertex 13.990837860827392 43.74832656848537 0.0
  endloop
endfacet
facet normal 2.359223927328457e-16 0.0 -1.0
  outer loop
    vertex 22.000000000000004 45.99999999999999 5.639932965095795e-15
    vertex 13.990837860827392 43.74832656848537 0.0
    vertex 11.917587222129383 43.99957549711506 0.0
  endloop
endfacet
facet normal 2.359223927328457e-16 0.0 -1.0
  outer loop
    vertex 22.000000000000004 45.99999999999999 5.639932965095795e-15
    vertex 11.917587222129383 43.99957549711506 0.0
    vertex 2.220446049250309e-17 45.99999999999999 0.0
  endloop
endfacet
facet normal 1.0 0.0 2.359223927328457e-16
  outer loop
    vertex 1.9999999999999991 11.0 3.0
    vertex 1.9999999999999942 35.0 24.0
    vertex 1.9999999999999942 11.0 24.0
  endloop
endfacet
facet normal 1.0 0.0 2.359223927328457e-16
  outer loop
    vertex 1.9999999999999942 35.0 24.0
    vertex 1.9999999999999991 11.0 3.0
    vertex 1.9999999999999991 35.0 3.0
  endloop
endfacet
facet normal 0.0 1.0 0.0
  outer loop
    vertex 22.000000000000004 45.99999999999999 3.0000000000000058
    vertex 2.220446049250309e-17 45.99999999999999 0.0
    vertex -6.855627177060348e-16 45.99999999999999 3.0
  endloop
endfacet
facet normal 0.0 1.0 0.0
  outer loop
    vertex 2.220446049250309e-17 45.99999999999999 0.0
    vertex 22.000000000000004 45.99999999999999 3.0000000000000058
    vertex 22.000000000000004 45.99999999999999 5.639932965095795e-15
  endloop
endfacet
facet normal -0.39218056092396586 0.9198882582321418 -9.25241763164916e-17
  outer loop
    vertex 16.071159307789937 29.113370788942134 3.000000000000003
    vertex 14.1500471219503 28.294333424460067 0.0
    vertex 14.1500471219503 28.294333424460067 3.000000000000003
  endloop
endfacet
facet normal -0.39218056092396586 0.9198882582321418 -9.25241763164916e-17
  outer loop
    vertex 14.1500471219503 28.294333424460067 0.0
    vertex 16.071159307789937 29.113370788942134 3.000000000000003
    vertex 16.071159307789937 29.113370788942134 0.0
  endloop
endfacet
facet normal -0.6005563198100726 -0.7995824577466553 -1.4168468394042445e-16
  outer loop
    vertex 17.598279446535074 41.71482871471254 0.0
    vertex 15.928416189325134 42.96904198892848 3.000000000000003
    vertex 15.928416189325134 42.96904198892848 0.0
  endloop
endfacet
facet normal -0.6005563198100726 -0.7995824577466553 -1.4168468394042445e-16
  outer loop
    vertex 15.928416189325134 42.96904198892848 3.000000000000003
    vertex 17.598279446535074 41.71482871471254 0.0
    vertex 17.598279446535074 41.71482871471254 3.000000000000003
  endloop
endfacet
facet normal 0.9927368807340375 -0.12030580048548586 2.3420886025691585e-16
  outer loop
    vertex 4.000424502884943 35.917587222129384 -2.8199664825478975e-15
    vertex 4.251673431514633 37.99083786082738 3.0
    vertex 4.000424502884942 35.917587222129384 3.0
  endloop
endfacet
facet normal 0.9927368807340375 -0.12030580048548586 2.3420886025691585e-16
  outer loop
    vertex 4.251673431514633 37.99083786082738 3.0
    vertex 4.000424502884943 35.917587222129384 -2.8199664825478975e-15
    vertex 4.251673431514634 37.99083786082738 -2.8199664825478975e-15
  endloop
endfacet
facet normal -0.9277727594087096 0.37314569125094893 -2.1888236931205756e-16
  outer loop
    vertex 19.748326568485375 34.009162139172616 2.8199664825478975e-15
    vertex 18.96904198892849 32.071583810674866 3.0000000000000058
    vertex 19.748326568485375 34.009162139172616 3.0000000000000058
  endloop
endfacet
facet normal -0.9277727594087096 0.37314569125094893 -2.1888236931205756e-16
  outer loop
    vertex 18.96904198892849 32.071583810674866 3.0000000000000058
    vertex 19.748326568485375 34.009162139172616 2.8199664825478975e-15
    vertex 18.96904198892849 32.071583810674866 2.8199664825478975e-15
  endloop
endfacet
facet normal -0.3731456912509476 -0.9277727594087103 -8.803342431787525e-17
  outer loop
    vertex 15.928416189325134 42.96904198892848 0.0
    vertex 13.990837860827392 43.74832656848537 3.000000000000003
    vertex 13.990837860827392 43.74832656848537 0.0
  endloop
endfacet
facet normal -0.3731456912509476 -0.9277727594087103 -8.803342431787525e-17
  outer loop
    vertex 13.990837860827392 43.74832656848537 3.000000000000003
    vertex 15.928416189325134 42.96904198892848 0.0
    vertex 15.928416189325134 42.96904198892848 3.000000000000003
  endloop
endfacet
facet normal 0.9198882582321422 0.39218056092396525 2.1702223892897683e-16
  outer loop
    vertex 5.11337078894214 31.928840692210066 -2.8199664825478975e-15
    vertex 4.294333424460072 33.8499528780497 3.0
    vertex 5.11337078894214 31.928840692210066 3.0
  endloop
endfacet
facet normal 0.9198882582321422 0.39218056092396525 2.1702223892897683e-16
  outer loop
    vertex 4.294333424460072 33.8499528780497 3.0
    vertex 5.11337078894214 31.928840692210066 -2.8199664825478975e-15
    vertex 4.294333424460072 33.8499528780497 -2.8199664825478975e-15
  endloop
endfacet
facet normal 0.787040027640382 0.6169019329616553 1.8568036649744395e-16
  outer loop
    vertex 6.40172055346493 30.285171285287458 0.0
    vertex 5.11337078894214 31.928840692210066 3.0
    vertex 6.40172055346493 30.285171285287458 3.000000000000003
  endloop
endfacet
facet normal 0.787040027640382 0.6169019329616553 1.8568036649744395e-16
  outer loop
    vertex 5.11337078894214 31.928840692210066 3.0
    vertex 6.40172055346493 30.285171285287458 0.0
    vertex 5.11337078894214 31.928840692210066 -2.8199664825478975e-15
  endloop
endfacet
facet normal 0.1407327317683277 -0.9900476242126053 3.320200281461364e-17
  outer loop
    vertex 11.917587222129383 43.99957549711506 0.0
    vertex 9.849952878049706 43.70566657553992 3.000000000000003
    vertex 9.849952878049706 43.70566657553992 0.0
  endloop
endfacet
facet normal 0.1407327317683277 -0.9900476242126053 3.320200281461364e-17
  outer loop
    vertex 9.849952878049706 43.70566657553992 3.000000000000003
    vertex 11.917587222129383 43.99957549711506 0.0
    vertex 11.917587222129383 43.99957549711506 3.000000000000003
  endloop
endfacet
facet normal -0.12030580048548752 -0.9927368807340372 -2.8382832310176567e-17
  outer loop
    vertex 13.990837860827392 43.74832656848537 0.0
    vertex 11.917587222129383 43.99957549711506 3.000000000000003
    vertex 11.917587222129383 43.99957549711506 0.0
  endloop
endfacet
facet normal -0.12030580048548752 -0.9927368807340372 -2.8382832310176567e-17
  outer loop
    vertex 11.917587222129383 43.99957549711506 3.000000000000003
    vertex 13.990837860827392 43.74832656848537 0.0
    vertex 13.990837860827392 43.74832656848537 3.000000000000003
  endloop
endfacet
endsolid SupportSensor
