solid Support
facet normal 0.0 0.0 -1.0
  outer loop
    vertex 49.99999999999999 24.0 0.0
    vertex 0.0 0.0 0.0
    vertex 0.0 24.0 0.0
  endloop
endfacet
facet normal 0.0 0.0 -1.0
  outer loop
    vertex 0.0 0.0 0.0
    vertex 49.99999999999999 24.0 0.0
    vertex 49.99999999999999 0.0 0.0
  endloop
endfacet
facet normal -0.0 -0.0 1.0
  outer loop
    vertex 2.8199664825478975e-15 18.0 3.0
    vertex 49.99999999999999 24.0 3.0
    vertex 0.0 24.0 3.0
  endloop
endfacet
facet normal -0.0 -0.0 1.0
  outer loop
    vertex 49.99999999999999 24.0 3.0
    vertex 2.8199664825478975e-15 18.0 3.0
    vertex 49.99999999999999 18.0 3.0
  endloop
endfacet
facet normal -0.0 -0.0 1.0
  outer loop
    vertex 49.99999999999999 0.0 3.0
    vertex 0.0 6.0 3.0
    vertex 0.0 0.0 3.0
  endloop
endfacet
facet normal -0.0 -0.0 1.0
  outer loop
    vertex 0.0 6.0 3.0
    vertex 49.99999999999999 0.0 3.0
    vertex 49.99999999999999 6.0 3.0
  endloop
endfacet
facet normal 0.0 -1.0 0.0
  outer loop
    vertex 49.99999999999999 6.0 15.999999999999996
    vertex 0.0 6.0 3.0
    vertex 49.99999999999999 6.0 3.0
  endloop
endfacet
facet normal 0.0 -1.0 0.0
  outer loop
    vertex 0.0 6.0 3.0
    vertex 49.99999999999999 6.0 15.999999999999996
    vertex 0.0 6.0 15.999999999999996
  endloop
endfacet
facet normal -0.0 -1.0 -0.0
  outer loop
    vertex 49.99999999999999 0.0 3.0
    vertex 0.0 0.0 0.0
    vertex 49.99999999999999 0.0 0.0
  endloop
endfacet
facet normal -0.0 -1.0 -0.0
  outer loop
    vertex 0.0 0.0 0.0
    vertex 49.99999999999999 0.0 3.0
    vertex 0.0 0.0 3.0
  endloop
endfacet
facet normal -0.0 1.0 0.0
  outer loop
    vertex 0.0 24.0 3.0
    vertex 49.99999999999999 24.0 0.0
    vertex 0.0 24.0 0.0
  endloop
endfacet
facet normal -0.0 1.0 0.0
  outer loop
    vertex 49.99999999999999 24.0 0.0
    vertex 0.0 24.0 3.0
    vertex 49.99999999999999 24.0 3.0
  endloop
endfacet
facet normal 0.0 0.0 1.0
  outer loop
    vertex 49.99999999999999 10.0 3.0000000000000013
    vertex 1.6449804481529402e-15 14.000000000000002 3.0000000000000013
    vertex 4.699944137579831e-16 10.000000000000002 3.0000000000000013
  endloop
endfacet
facet normal 0.0 0.0 1.0
  outer loop
    vertex 1.6449804481529402e-15 14.000000000000002 3.0000000000000013
    vertex 49.99999999999999 10.0 3.0000000000000013
    vertex 49.99999999999999 14.0 3.0000000000000013
  endloop
endfacet
facet normal -5.639932965095795e-17 -1.0 -1.3269212057364379e-48
  outer loop
    vertex 49.99999999999999 14.0 15.999999999999998
    vertex 1.6449804481529402e-15 14.000000000000002 3.0000000000000013
    vertex 49.99999999999999 14.0 3.0000000000000013
  endloop
endfacet
facet normal -5.639932965095795e-17 -1.0 -1.3269212057364379e-48
  outer loop
    vertex 1.6449804481529402e-15 14.000000000000002 3.0000000000000013
    vertex 49.99999999999999 14.0 15.999999999999998
    vertex 2.232473465350419e-15 14.000000000000002 15.999999999999998
  endloop
endfacet
facet normal -0.0 1.0 -0.0
  outer loop
    vertex 2.8199664825478975e-15 18.0 15.999999999999998
    vertex 49.99999999999999 18.0 3.0
    vertex 2.8199664825478975e-15 18.0 3.0
  endloop
endfacet
facet normal -0.0 1.0 -0.0
  outer loop
    vertex 49.99999999999999 18.0 3.0
    vertex 2.8199664825478975e-15 18.0 15.999999999999998
    vertex 49.99999999999999 18.0 15.999999999999998
  endloop
endfacet
facet normal 2.8199664825478977e-17 1.0 -0.0
  outer loop
    vertex 2.3499720687899157e-16 10.000000000000002 15.999999999999996
    vertex 49.99999999999999 10.0 3.0000000000000013
    vertex 4.699944137579831e-16 10.000000000000002 3.0000000000000013
  endloop
endfacet
facet normal 2.8199664825478977e-17 1.0 -0.0
  outer loop
    vertex 49.99999999999999 10.0 3.0000000000000013
    vertex 2.3499720687899157e-16 10.000000000000002 15.999999999999996
    vertex 49.99999999999999 10.0 15.999999999999996
  endloop
endfacet
facet normal -5.592381517056579e-17 -0.9914448613738105 0.13052619222005143
  outer loop
    vertex 49.99999999999999 14.068148347421863 16.517638090205043
    vertex 2.232473465350419e-15 14.000000000000002 15.999999999999998
    vertex 49.99999999999999 14.0 15.999999999999998
  endloop
endfacet
facet normal -5.592381517056579e-17 -0.9914448613738105 0.13052619222005143
  outer loop
    vertex 2.232473465350419e-15 14.000000000000002 15.999999999999998
    vertex 49.99999999999999 14.068148347421863 16.517638090205043
    vertex 2.1104465923178887e-15 14.068148347421866 16.517638090205043
  endloop
endfacet
facet normal -7.908821787386038e-17 -0.7933533402912347 0.6087614290087213
  outer loop
    vertex 49.99999999999999 14.267949192431123 17.0
    vertex 2.0751622502464322e-15 14.58578643762691 17.414213562373092
    vertex 2.056790666389421e-15 14.267949192431127 16.999999999999996
  endloop
endfacet
facet normal -7.908821787386038e-17 -0.7933533402912347 0.6087614290087213
  outer loop
    vertex 2.0751622502464322e-15 14.58578643762691 17.414213562373092
    vertex 49.99999999999999 14.267949192431123 17.0
    vertex 49.99999999999999 14.585786437626906 17.414213562373096
  endloop
endfacet
facet normal 5.482104619695397e-18 0.3826834323650918 0.923879532511286
  outer loop
    vertex 49.99999999999999 8.517638090205043 17.931851652578132
    vertex 2.6226285269534185e-16 9.000000000000002 17.73205080756887
    vertex 2.0072389681998755e-16 8.517638090205043 17.931851652578132
  endloop
endfacet
facet normal 5.482104619695397e-18 0.3826834323650918 0.923879532511286
  outer loop
    vertex 2.6226285269534185e-16 9.000000000000002 17.73205080756887
    vertex 49.99999999999999 8.517638090205043 17.931851652578132
    vertex 49.99999999999999 9.0 17.73205080756887
  endloop
endfacet
facet normal -3.681254970910448e-18 -0.1305261922200518 0.9914448613738105
  outer loop
    vertex 49.99999999999999 15.482361909794959 17.931851652578136
    vertex 2.5262199739491583e-15 16.0 17.999999999999996
    vertex 2.31815674049793e-15 15.482361909794962 17.931851652578136
  endloop
endfacet
facet normal -3.681254970910448e-18 -0.1305261922200518 0.9914448613738105
  outer loop
    vertex 2.5262199739491583e-15 16.0 17.999999999999996
    vertex 49.99999999999999 15.482361909794959 17.931851652578136
    vertex 49.99999999999999 16.0 17.999999999999996
  endloop
endfacet
facet normal -0.0 0.38268343236509134 0.9238795325112862
  outer loop
    vertex 49.99999999999999 16.517638090205043 17.931851652578136
    vertex 2.6730932282485277e-15 17.0 17.732050807568875
    vertex 2.6022471648068834e-15 16.517638090205043 17.931851652578136
  endloop
endfacet
facet normal -0.0 0.38268343236509134 0.9238795325112862
  outer loop
    vertex 2.6730932282485277e-15 17.0 17.732050807568875
    vertex 49.99999999999999 16.517638090205043 17.931851652578136
    vertex 49.99999999999999 17.0 17.732050807568875
  endloop
endfacet
facet normal -0.0 0.13052619222005216 0.9914448613738105
  outer loop
    vertex 49.99999999999999 16.0 17.999999999999996
    vertex 2.6022471648068834e-15 16.517638090205043 17.931851652578136
    vertex 2.5262199739491583e-15 16.0 17.999999999999996
  endloop
endfacet
facet normal -0.0 0.13052619222005216 0.9914448613738105
  outer loop
    vertex 2.6022471648068834e-15 16.517638090205043 17.931851652578136
    vertex 49.99999999999999 16.0 17.999999999999996
    vertex 49.99999999999999 16.517638090205043 17.931851652578136
  endloop
endfacet
facet normal -5.877507957315564e-33 0.9238795325112862 0.3826834323650913
  outer loop
    vertex 2.7806119126686503e-15 17.73205080756888 17.0
    vertex 49.99999999999999 17.93185165257814 16.517638090205043
    vertex 2.809957312986924e-15 17.93185165257814 16.517638090205043
  endloop
endfacet
facet normal -5.877507957315564e-33 0.9238795325112862 0.3826834323650913
  outer loop
    vertex 49.99999999999999 17.93185165257814 16.517638090205043
    vertex 2.7806119126686503e-15 17.73205080756888 17.0
    vertex 49.99999999999999 17.73205080756888 17.0
  endloop
endfacet
facet normal 1.7169014115257556e-17 0.608761429008718 0.7933533402912372
  outer loop
    vertex 49.99999999999999 9.0 17.73205080756887
    vertex 2.9792169292058652e-16 9.414213562373096 17.414213562373092
    vertex 2.6226285269534185e-16 9.000000000000002 17.73205080756887
  endloop
endfacet
facet normal 1.7169014115257556e-17 0.608761429008718 0.7933533402912372
  outer loop
    vertex 2.9792169292058652e-16 9.414213562373096 17.414213562373092
    vertex 49.99999999999999 9.0 17.73205080756887
    vertex 49.99999999999999 9.414213562373096 17.414213562373092
  endloop
endfacet
facet normal 2.6056349792582996e-17 0.9238795325112871 0.382683432365089
  outer loop
    vertex 3.052703264633909e-16 9.732050807568879 16.999999999999996
    vertex 49.99999999999999 9.931851652578137 16.51763809020504
    vertex 2.8380795609200397e-16 9.931851652578137 16.51763809020504
  endloop
endfacet
facet normal 2.6056349792582996e-17 0.9238795325112871 0.382683432365089
  outer loop
    vertex 49.99999999999999 9.931851652578137 16.51763809020504
    vertex 3.052703264633909e-16 9.732050807568879 16.999999999999996
    vertex 49.99999999999999 9.732050807568879 16.999999999999996
  endloop
endfacet
facet normal -2.1585786940050605e-17 -0.38268343236509134 0.9238795325112862
  outer loop
    vertex 49.99999999999999 15.0 17.732050807568875
    vertex 2.31815674049793e-15 15.482361909794962 17.931851652578136
    vertex 2.164309350809544e-15 15.000000000000004 17.732050807568875
  endloop
endfacet
facet normal -2.1585786940050605e-17 -0.38268343236509134 0.9238795325112862
  outer loop
    vertex 2.31815674049793e-15 15.482361909794962 17.931851652578136
    vertex 49.99999999999999 15.0 17.732050807568875
    vertex 49.99999999999999 15.482361909794959 17.931851652578136
  endloop
endfacet
facet normal 0.0 -0.7933533402912347 0.6087614290087213
  outer loop
    vertex 49.99999999999999 6.585786437626905 17.414213562373092
    vertex 1.5741827951698807e-17 6.267949192431122 16.999999999999996
    vertex 49.99999999999999 6.267949192431122 16.999999999999996
  endloop
endfacet
facet normal 0.0 -0.7933533402912347 0.6087614290087213
  outer loop
    vertex 1.5741827951698807e-17 6.267949192431122 16.999999999999996
    vertex 49.99999999999999 6.585786437626905 17.414213562373092
    vertex 3.4414544167479307e-17 6.585786437626905 17.414213562373092
  endloop
endfacet
facet normal -5.671312305218777e-17 -0.6087614290087197 0.7933533402912359
  outer loop
    vertex 49.99999999999999 14.585786437626906 17.414213562373096
    vertex 2.164309350809544e-15 15.000000000000004 17.732050807568875
    vertex 2.0751622502464322e-15 14.58578643762691 17.414213562373092
  endloop
endfacet
facet normal -5.671312305218777e-17 -0.6087614290087197 0.7933533402912359
  outer loop
    vertex 2.164309350809544e-15 15.000000000000004 17.732050807568875
    vertex 49.99999999999999 14.585786437626906 17.414213562373096
    vertex 49.99999999999999 15.0 17.732050807568875
  endloop
endfacet
facet normal -6.290559305519126e-17 -0.9238795325112857 0.3826834323650924
  outer loop
    vertex 49.99999999999999 14.267949192431123 17.0
    vertex 2.1104465923178887e-15 14.068148347421866 16.517638090205043
    vertex 49.99999999999999 14.068148347421863 16.517638090205043
  endloop
endfacet
facet normal -6.290559305519126e-17 -0.9238795325112857 0.3826834323650924
  outer loop
    vertex 2.1104465923178887e-15 14.068148347421866 16.517638090205043
    vertex 49.99999999999999 14.267949192431123 17.0
    vertex 2.056790666389421e-15 14.267949192431127 16.999999999999996
  endloop
endfacet
facet normal -0.0 -0.3826834323650913 0.9238795325112862
  outer loop
    vertex 49.99999999999999 7.0 17.73205080756887
    vertex 8.708772709640566e-17 7.4823619097949585 17.931851652578132
    vertex 5.874930171974786e-17 7.0 17.73205080756887
  endloop
endfacet
facet normal -0.0 -0.3826834323650913 0.9238795325112862
  outer loop
    vertex 8.708772709640566e-17 7.4823619097949585 17.931851652578132
    vertex 49.99999999999999 7.0 17.73205080756887
    vertex 49.99999999999999 7.4823619097949585 17.931851652578132
  endloop
endfacet
facet normal 0.0 -0.9914448613738105 0.13052619222005146
  outer loop
    vertex 49.99999999999999 6.068148347421864 16.51763809020504
    vertex 0.0 6.0 15.999999999999996
    vertex 49.99999999999999 6.0 15.999999999999996
  endloop
endfacet
facet normal 0.0 -0.9914448613738105 0.13052619222005146
  outer loop
    vertex 0.0 6.0 15.999999999999996
    vertex 49.99999999999999 6.068148347421864 16.51763809020504
    vertex 4.0036678243892595e-18 6.068148347421864 16.51763809020504
  endloop
endfacet
facet normal -0.0 -0.13052619222005113 0.9914448613738105
  outer loop
    vertex 49.99999999999999 7.4823619097949585 17.931851652578132
    vertex 1.174986034394959e-16 8.000000000000002 17.999999999999996
    vertex 8.708772709640566e-17 7.4823619097949585 17.931851652578132
  endloop
endfacet
facet normal -0.0 -0.13052619222005113 0.9914448613738105
  outer loop
    vertex 1.174986034394959e-16 8.000000000000002 17.999999999999996
    vertex 49.99999999999999 7.4823619097949585 17.931851652578132
    vertex 49.99999999999999 8.000000000000002 17.999999999999996
  endloop
endfacet
facet normal -0.0 0.13052619222005182 0.9914448613738105
  outer loop
    vertex 49.99999999999999 8.000000000000002 17.999999999999996
    vertex 2.0072389681998755e-16 8.517638090205043 17.931851652578132
    vertex 1.174986034394959e-16 8.000000000000002 17.999999999999996
  endloop
endfacet
facet normal -0.0 0.13052619222005182 0.9914448613738105
  outer loop
    vertex 2.0072389681998755e-16 8.517638090205043 17.931851652578132
    vertex 49.99999999999999 8.000000000000002 17.999999999999996
    vertex 49.99999999999999 8.517638090205043 17.931851652578132
  endloop
endfacet
facet normal -0.0 0.7933533402912374 0.608761429008718
  outer loop
    vertex 2.7339301221291993e-15 17.414213562373096 17.414213562373096
    vertex 49.99999999999999 17.73205080756888 17.0
    vertex 2.7806119126686503e-15 17.73205080756888 17.0
  endloop
endfacet
facet normal -0.0 0.7933533402912374 0.608761429008718
  outer loop
    vertex 49.99999999999999 17.73205080756888 17.0
    vertex 2.7339301221291993e-15 17.414213562373096 17.414213562373096
    vertex 49.99999999999999 17.414213562373096 17.414213562373096
  endloop
endfacet
facet normal 2.796190758528289e-17 0.9914448613738105 0.13052619222005146
  outer loop
    vertex 2.8380795609200397e-16 9.931851652578137 16.51763809020504
    vertex 49.99999999999999 10.0 15.999999999999996
    vertex 2.3499720687899157e-16 10.000000000000002 15.999999999999996
  endloop
endfacet
facet normal 2.796190758528289e-17 0.9914448613738105 0.13052619222005146
  outer loop
    vertex 49.99999999999999 10.0 15.999999999999996
    vertex 2.8380795609200397e-16 9.931851652578137 16.51763809020504
    vertex 49.99999999999999 9.931851652578137 16.51763809020504
  endloop
endfacet
facet normal -1.9363997237712425e-33 0.6087614290087154 0.7933533402912393
  outer loop
    vertex 49.99999999999999 17.0 17.732050807568875
    vertex 2.7339301221291993e-15 17.414213562373096 17.414213562373096
    vertex 2.6730932282485277e-15 17.0 17.732050807568875
  endloop
endfacet
facet normal -1.9363997237712425e-33 0.6087614290087154 0.7933533402912393
  outer loop
    vertex 2.7339301221291993e-15 17.414213562373096 17.414213562373096
    vertex 49.99999999999999 17.0 17.732050807568875
    vertex 49.99999999999999 17.414213562373096 17.414213562373096
  endloop
endfacet
facet normal -0.0 -0.608761429008718 0.7933533402912374
  outer loop
    vertex 49.99999999999999 6.585786437626905 17.414213562373092
    vertex 5.874930171974786e-17 7.0 17.73205080756887
    vertex 3.4414544167479307e-17 6.585786437626905 17.414213562373092
  endloop
endfacet
facet normal -0.0 -0.608761429008718 0.7933533402912374
  outer loop
    vertex 5.874930171974786e-17 7.0 17.73205080756887
    vertex 49.99999999999999 6.585786437626905 17.414213562373092
    vertex 49.99999999999999 7.0 17.73205080756887
  endloop
endfacet
facet normal -4.1518872667637625e-34 0.9914448613738105 0.13052619222005143
  outer loop
    vertex 2.809957312986924e-15 17.93185165257814 16.517638090205043
    vertex 49.99999999999999 18.0 15.999999999999998
    vertex 2.8199664825478975e-15 18.0 15.999999999999998
  endloop
endfacet
facet normal -4.1518872667637625e-34 0.9914448613738105 0.13052619222005143
  outer loop
    vertex 49.99999999999999 18.0 15.999999999999998
    vertex 2.809957312986924e-15 17.93185165257814 16.517638090205043
    vertex 49.99999999999999 17.93185165257814 16.517638090205043
  endloop
endfacet
facet normal 2.237509482167254e-17 0.7933533402912347 0.6087614290087213
  outer loop
    vertex 2.9792169292058652e-16 9.414213562373096 17.414213562373092
    vertex 49.99999999999999 9.732050807568879 16.999999999999996
    vertex 3.052703264633909e-16 9.732050807568879 16.999999999999996
  endloop
endfacet
facet normal 2.237509482167254e-17 0.7933533402912347 0.6087614290087213
  outer loop
    vertex 49.99999999999999 9.732050807568879 16.999999999999996
    vertex 2.9792169292058652e-16 9.414213562373096 17.414213562373092
    vertex 49.99999999999999 9.414213562373096 17.414213562373092
  endloop
endfacet
facet normal 0.0 -0.9238795325112871 0.382683432365089
  outer loop
    vertex 49.99999999999999 6.267949192431122 16.999999999999996
    vertex 4.0036678243892595e-18 6.068148347421864 16.51763809020504
    vertex 49.99999999999999 6.068148347421864 16.51763809020504
  endloop
endfacet
facet normal 0.0 -0.9238795325112871 0.382683432365089
  outer loop
    vertex 4.0036678243892595e-18 6.068148347421864 16.51763809020504
    vertex 49.99999999999999 6.267949192431122 16.999999999999996
    vertex 1.5741827951698807e-17 6.267949192431122 16.999999999999996
  endloop
endfacet
facet normal 1.0 -0.0 -0.0
  outer loop
    vertex 49.99999999999999 10.0 15.999999999999996
    vertex 49.99999999999999 9.931851652578137 16.51763809020504
    vertex 49.99999999999999 10.0 3.0000000000000013
  endloop
endfacet
facet normal 1.0 -0.0 -0.0
  outer loop
    vertex 49.99999999999999 24.0 0.0
    vertex 49.99999999999999 0.0 3.0
    vertex 49.99999999999999 0.0 0.0
  endloop
endfacet
facet normal 1.0 -0.0 -0.0
  outer loop
    vertex 49.99999999999999 0.0 3.0
    vertex 49.99999999999999 24.0 0.0
    vertex 49.99999999999999 6.0 3.0
  endloop
endfacet
facet normal 1.0 -0.0 -0.0
  outer loop
    vertex 49.99999999999999 6.0 3.0
    vertex 49.99999999999999 24.0 0.0
    vertex 49.99999999999999 10.0 3.0000000000000013
  endloop
endfacet
facet normal 1.0 -0.0 -0.0
  outer loop
    vertex 49.99999999999999 6.0 3.0
    vertex 49.99999999999999 10.0 3.0000000000000013
    vertex 49.99999999999999 6.0 15.999999999999996
  endloop
endfacet
facet normal 1.0 -0.0 -0.0
  outer loop
    vertex 49.99999999999999 6.0 15.999999999999996
    vertex 49.99999999999999 10.0 3.0000000000000013
    vertex 49.99999999999999 6.068148347421864 16.51763809020504
  endloop
endfacet
facet normal 1.0 -0.0 -0.0
  outer loop
    vertex 49.99999999999999 6.068148347421864 16.51763809020504
    vertex 49.99999999999999 10.0 3.0000000000000013
    vertex 49.99999999999999 6.267949192431122 16.999999999999996
  endloop
endfacet
facet normal 1.0 -0.0 -0.0
  outer loop
    vertex 49.99999999999999 6.267949192431122 16.999999999999996
    vertex 49.99999999999999 10.0 3.0000000000000013
    vertex 49.99999999999999 6.585786437626905 17.414213562373092
  endloop
endfacet
facet normal 1.0 -0.0 -0.0
  outer loop
    vertex 49.99999999999999 6.585786437626905 17.414213562373092
    vertex 49.99999999999999 10.0 3.0000000000000013
    vertex 49.99999999999999 7.0 17.73205080756887
  endloop
endfacet
facet normal 1.0 -0.0 -0.0
  outer loop
    vertex 49.99999999999999 7.0 17.73205080756887
    vertex 49.99999999999999 10.0 3.0000000000000013
    vertex 49.99999999999999 7.4823619097949585 17.931851652578132
  endloop
endfacet
facet normal 1.0 -0.0 -0.0
  outer loop
    vertex 49.99999999999999 7.4823619097949585 17.931851652578132
    vertex 49.99999999999999 10.0 3.0000000000000013
    vertex 49.99999999999999 8.000000000000002 17.999999999999996
  endloop
endfacet
facet normal 1.0 -0.0 -0.0
  outer loop
    vertex 49.99999999999999 8.000000000000002 17.999999999999996
    vertex 49.99999999999999 10.0 3.0000000000000013
    vertex 49.99999999999999 8.517638090205043 17.931851652578132
  endloop
endfacet
facet normal 1.0 -0.0 -0.0
  outer loop
    vertex 49.99999999999999 8.517638090205043 17.931851652578132
    vertex 49.99999999999999 10.0 3.0000000000000013
    vertex 49.99999999999999 9.0 17.73205080756887
  endloop
endfacet
facet normal 1.0 -0.0 -0.0
  outer loop
    vertex 49.99999999999999 9.0 17.73205080756887
    vertex 49.99999999999999 10.0 3.0000000000000013
    vertex 49.99999999999999 9.414213562373096 17.414213562373092
  endloop
endfacet
facet normal 1.0 -0.0 -0.0
  outer loop
    vertex 49.99999999999999 9.414213562373096 17.414213562373092
    vertex 49.99999999999999 10.0 3.0000000000000013
    vertex 49.99999999999999 9.732050807568879 16.999999999999996
  endloop
endfacet
facet normal 1.0 -0.0 -0.0
  outer loop
    vertex 49.99999999999999 9.732050807568879 16.999999999999996
    vertex 49.99999999999999 10.0 3.0000000000000013
    vertex 49.99999999999999 9.931851652578137 16.51763809020504
  endloop
endfacet
facet normal 1.0 -0.0 -0.0
  outer loop
    vertex 49.99999999999999 10.0 3.0000000000000013
    vertex 49.99999999999999 24.0 0.0
    vertex 49.99999999999999 14.0 3.0000000000000013
  endloop
endfacet
facet normal 1.0 -0.0 -0.0
  outer loop
    vertex 49.99999999999999 14.0 3.0000000000000013
    vertex 49.99999999999999 24.0 0.0
    vertex 49.99999999999999 18.0 3.0
  endloop
endfacet
facet normal 1.0 -0.0 -0.0
  outer loop
    vertex 49.99999999999999 14.0 3.0000000000000013
    vertex 49.99999999999999 18.0 3.0
    vertex 49.99999999999999 14.0 15.999999999999998
  endloop
endfacet
facet normal 1.0 -0.0 -0.0
  outer loop
    vertex 49.99999999999999 14.0 15.999999999999998
    vertex 49.99999999999999 18.0 3.0
    vertex 49.99999999999999 14.068148347421863 16.517638090205043
  endloop
endfacet
facet normal 1.0 -0.0 -0.0
  outer loop
    vertex 49.99999999999999 14.068148347421863 16.517638090205043
    vertex 49.99999999999999 18.0 3.0
    vertex 49.99999999999999 14.267949192431123 17.0
  endloop
endfacet
facet normal 1.0 -0.0 -0.0
  outer loop
    vertex 49.99999999999999 14.267949192431123 17.0
    vertex 49.99999999999999 18.0 3.0
    vertex 49.99999999999999 14.585786437626906 17.414213562373096
  endloop
endfacet
facet normal 1.0 -0.0 -0.0
  outer loop
    vertex 49.99999999999999 14.585786437626906 17.414213562373096
    vertex 49.99999999999999 18.0 3.0
    vertex 49.99999999999999 15.0 17.732050807568875
  endloop
endfacet
facet normal 1.0 -0.0 -0.0
  outer loop
    vertex 49.99999999999999 15.0 17.732050807568875
    vertex 49.99999999999999 18.0 3.0
    vertex 49.99999999999999 15.482361909794959 17.931851652578136
  endloop
endfacet
facet normal 1.0 -0.0 -0.0
  outer loop
    vertex 49.99999999999999 15.482361909794959 17.931851652578136
    vertex 49.99999999999999 18.0 3.0
    vertex 49.99999999999999 16.0 17.999999999999996
  endloop
endfacet
facet normal 1.0 -0.0 -0.0
  outer loop
    vertex 49.99999999999999 16.0 17.999999999999996
    vertex 49.99999999999999 18.0 3.0
    vertex 49.99999999999999 16.517638090205043 17.931851652578136
  endloop
endfacet
facet normal 1.0 -0.0 -0.0
  outer loop
    vertex 49.99999999999999 16.517638090205043 17.931851652578136
    vertex 49.99999999999999 18.0 3.0
    vertex 49.99999999999999 17.0 17.732050807568875
  endloop
endfacet
facet normal 1.0 -0.0 -0.0
  outer loop
    vertex 49.99999999999999 17.0 17.732050807568875
    vertex 49.99999999999999 18.0 3.0
    vertex 49.99999999999999 17.414213562373096 17.414213562373096
  endloop
endfacet
facet normal 1.0 -0.0 -0.0
  outer loop
    vertex 49.99999999999999 17.414213562373096 17.414213562373096
    vertex 49.99999999999999 18.0 3.0
    vertex 49.99999999999999 17.73205080756888 17.0
  endloop
endfacet
facet normal 1.0 -0.0 -0.0
  outer loop
    vertex 49.99999999999999 17.73205080756888 17.0
    vertex 49.99999999999999 18.0 3.0
    vertex 49.99999999999999 17.93185165257814 16.517638090205043
  endloop
endfacet
facet normal 1.0 -0.0 -0.0
  outer loop
    vertex 49.99999999999999 18.0 3.0
    vertex 49.99999999999999 24.0 0.0
    vertex 49.99999999999999 24.0 3.0
  endloop
endfacet
facet normal 1.0 -0.0 -0.0
  outer loop
    vertex 49.99999999999999 18.0 15.999999999999998
    vertex 49.99999999999999 17.93185165257814 16.517638090205043
    vertex 49.99999999999999 18.0 3.0
  endloop
endfacet
facet normal -1.0 1.3013105347106903e-16 4.7546076587564694e-17
  outer loop
    vertex 4.0036678243892595e-18 6.068148347421864 16.51763809020504
    vertex 0.0 6.0 3.0
    vertex 0.0 6.0 15.999999999999996
  endloop
endfacet
facet normal -1.0 1.3013105347106903e-16 4.7546076587564694e-17
  outer loop
    vertex 2.1104465923178887e-15 14.068148347421866 16.517638090205043
    vertex 1.6449804481529402e-15 14.000000000000002 3.0000000000000013
    vertex 2.232473465350419e-15 14.000000000000002 15.999999999999998
  endloop
endfacet
facet normal -1.0 1.3013105347106903e-16 4.7546076587564694e-17
  outer loop
    vertex 0.0 6.0 3.0
    vertex 0.0 0.0 0.0
    vertex 0.0 0.0 3.0
  endloop
endfacet
facet normal -1.0 1.3013105347106903e-16 4.7546076587564694e-17
  outer loop
    vertex 0.0 0.0 0.0
    vertex 0.0 6.0 3.0
    vertex 0.0 24.0 0.0
  endloop
endfacet
facet normal -1.0 1.3013105347106903e-16 4.7546076587564694e-17
  outer loop
    vertex 0.0 24.0 0.0
    vertex 0.0 6.0 3.0
    vertex 4.699944137579831e-16 10.000000000000002 3.0000000000000013
  endloop
endfacet
facet normal -1.0 1.3013105347106903e-16 4.7546076587564694e-17
  outer loop
    vertex 4.699944137579831e-16 10.000000000000002 3.0000000000000013
    vertex 0.0 6.0 3.0
    vertex 4.0036678243892595e-18 6.068148347421864 16.51763809020504
  endloop
endfacet
facet normal -1.0 1.3013105347106903e-16 4.7546076587564694e-17
  outer loop
    vertex 4.699944137579831e-16 10.000000000000002 3.0000000000000013
    vertex 4.0036678243892595e-18 6.068148347421864 16.51763809020504
    vertex 1.5741827951698807e-17 6.267949192431122 16.999999999999996
  endloop
endfacet
facet normal -1.0 1.3013105347106903e-16 4.7546076587564694e-17
  outer loop
    vertex 4.699944137579831e-16 10.000000000000002 3.0000000000000013
    vertex 1.5741827951698807e-17 6.267949192431122 16.999999999999996
    vertex 3.4414544167479307e-17 6.585786437626905 17.414213562373092
  endloop
endfacet
facet normal -1.0 1.3013105347106903e-16 4.7546076587564694e-17
  outer loop
    vertex 4.699944137579831e-16 10.000000000000002 3.0000000000000013
    vertex 3.4414544167479307e-17 6.585786437626905 17.414213562373092
    vertex 5.874930171974786e-17 7.0 17.73205080756887
  endloop
endfacet
facet normal -1.0 1.3013105347106903e-16 4.7546076587564694e-17
  outer loop
    vertex 4.699944137579831e-16 10.000000000000002 3.0000000000000013
    vertex 5.874930171974786e-17 7.0 17.73205080756887
    vertex 8.708772709640566e-17 7.4823619097949585 17.931851652578132
  endloop
endfacet
facet normal -1.0 1.3013105347106903e-16 4.7546076587564694e-17
  outer loop
    vertex 4.699944137579831e-16 10.000000000000002 3.0000000000000013
    vertex 8.708772709640566e-17 7.4823619097949585 17.931851652578132
    vertex 1.174986034394959e-16 8.000000000000002 17.999999999999996
  endloop
endfacet
facet normal -1.0 1.3013105347106903e-16 4.7546076587564694e-17
  outer loop
    vertex 4.699944137579831e-16 10.000000000000002 3.0000000000000013
    vertex 1.174986034394959e-16 8.000000000000002 17.999999999999996
    vertex 2.0072389681998755e-16 8.517638090205043 17.931851652578132
  endloop
endfacet
facet normal -1.0 1.3013105347106903e-16 4.7546076587564694e-17
  outer loop
    vertex 4.699944137579831e-16 10.000000000000002 3.0000000000000013
    vertex 2.0072389681998755e-16 8.517638090205043 17.931851652578132
    vertex 2.6226285269534185e-16 9.000000000000002 17.73205080756887
  endloop
endfacet
facet normal -1.0 1.3013105347106903e-16 4.7546076587564694e-17
  outer loop
    vertex 4.699944137579831e-16 10.000000000000002 3.0000000000000013
    vertex 2.6226285269534185e-16 9.000000000000002 17.73205080756887
    vertex 2.9792169292058652e-16 9.414213562373096 17.414213562373092
  endloop
endfacet
facet normal -1.0 1.3013105347106903e-16 4.7546076587564694e-17
  outer loop
    vertex 4.699944137579831e-16 10.000000000000002 3.0000000000000013
    vertex 2.9792169292058652e-16 9.414213562373096 17.414213562373092
    vertex 3.052703264633909e-16 9.732050807568879 16.999999999999996
  endloop
endfacet
facet normal -1.0 1.3013105347106903e-16 4.7546076587564694e-17
  outer loop
    vertex 4.699944137579831e-16 10.000000000000002 3.0000000000000013
    vertex 3.052703264633909e-16 9.732050807568879 16.999999999999996
    vertex 2.8380795609200397e-16 9.931851652578137 16.51763809020504
  endloop
endfacet
facet normal -1.0 1.3013105347106903e-16 4.7546076587564694e-17
  outer loop
    vertex 4.699944137579831e-16 10.000000000000002 3.0000000000000013
    vertex 2.8380795609200397e-16 9.931851652578137 16.51763809020504
    vertex 2.3499720687899157e-16 10.000000000000002 15.999999999999996
  endloop
endfacet
facet normal -1.0 1.3013105347106903e-16 4.7546076587564694e-17
  outer loop
    vertex 0.0 24.0 0.0
    vertex 4.699944137579831e-16 10.000000000000002 3.0000000000000013
    vertex 1.6449804481529402e-15 14.000000000000002 3.0000000000000013
  endloop
endfacet
facet normal -1.0 1.3013105347106903e-16 4.7546076587564694e-17
  outer loop
    vertex 0.0 24.0 0.0
    vertex 1.6449804481529402e-15 14.000000000000002 3.0000000000000013
    vertex 2.8199664825478975e-15 18.0 3.0
  endloop
endfacet
facet normal -1.0 1.3013105347106903e-16 4.7546076587564694e-17
  outer loop
    vertex 2.8199664825478975e-15 18.0 3.0
    vertex 1.6449804481529402e-15 14.000000000000002 3.0000000000000013
    vertex 2.1104465923178887e-15 14.068148347421866 16.517638090205043
  endloop
endfacet
facet normal -1.0 1.3013105347106903e-16 4.7546076587564694e-17
  outer loop
    vertex 2.8199664825478975e-15 18.0 3.0
    vertex 2.1104465923178887e-15 14.068148347421866 16.517638090205043
    vertex 2.056790666389421e-15 14.267949192431127 16.999999999999996
  endloop
endfacet
facet normal -1.0 1.3013105347106903e-16 4.7546076587564694e-17
  outer loop
    vertex 2.8199664825478975e-15 18.0 3.0
    vertex 2.056790666389421e-15 14.267949192431127 16.999999999999996
    vertex 2.0751622502464322e-15 14.58578643762691 17.414213562373092
  endloop
endfacet
facet normal -1.0 1.3013105347106903e-16 4.7546076587564694e-17
  outer loop
    vertex 2.8199664825478975e-15 18.0 3.0
    vertex 2.0751622502464322e-15 14.58578643762691 17.414213562373092
    vertex 2.164309350809544e-15 15.000000000000004 17.732050807568875
  endloop
endfacet
facet normal -1.0 1.3013105347106903e-16 4.7546076587564694e-17
  outer loop
    vertex 2.8199664825478975e-15 18.0 3.0
    vertex 2.164309350809544e-15 15.000000000000004 17.732050807568875
    vertex 2.31815674049793e-15 15.482361909794962 17.931851652578136
  endloop
endfacet
facet normal -1.0 1.3013105347106903e-16 4.7546076587564694e-17
  outer loop
    vertex 2.8199664825478975e-15 18.0 3.0
    vertex 2.31815674049793e-15 15.482361909794962 17.931851652578136
    vertex 2.5262199739491583e-15 16.0 17.999999999999996
  endloop
endfacet
facet normal -1.0 1.3013105347106903e-16 4.7546076587564694e-17
  outer loop
    vertex 2.8199664825478975e-15 18.0 3.0
    vertex 2.5262199739491583e-15 16.0 17.999999999999996
    vertex 2.6022471648068834e-15 16.517638090205043 17.931851652578136
  endloop
endfacet
facet normal -1.0 1.3013105347106903e-16 4.7546076587564694e-17
  outer loop
    vertex 2.8199664825478975e-15 18.0 3.0
    vertex 2.6022471648068834e-15 16.517638090205043 17.931851652578136
    vertex 2.6730932282485277e-15 17.0 17.732050807568875
  endloop
endfacet
facet normal -1.0 1.3013105347106903e-16 4.7546076587564694e-17
  outer loop
    vertex 2.8199664825478975e-15 18.0 3.0
    vertex 2.6730932282485277e-15 17.0 17.732050807568875
    vertex 2.7339301221291993e-15 17.414213562373096 17.414213562373096
  endloop
endfacet
facet normal -1.0 1.3013105347106903e-16 4.7546076587564694e-17
  outer loop
    vertex 2.8199664825478975e-15 18.0 3.0
    vertex 2.7339301221291993e-15 17.414213562373096 17.414213562373096
    vertex 2.7806119126686503e-15 17.73205080756888 17.0
  endloop
endfacet
facet normal -1.0 1.3013105347106903e-16 4.7546076587564694e-17
  outer loop
    vertex 2.8199664825478975e-15 18.0 3.0
    vertex 2.7806119126686503e-15 17.73205080756888 17.0
    vertex 2.809957312986924e-15 17.93185165257814 16.517638090205043
  endloop
endfacet
facet normal -1.0 1.3013105347106903e-16 4.7546076587564694e-17
  outer loop
    vertex 2.8199664825478975e-15 18.0 3.0
    vertex 2.809957312986924e-15 17.93185165257814 16.517638090205043
    vertex 2.8199664825478975e-15 18.0 15.999999999999998
  endloop
endfacet
facet normal -1.0 1.3013105347106903e-16 4.7546076587564694e-17
  outer loop
    vertex 0.0 24.0 0.0
    vertex 2.8199664825478975e-15 18.0 3.0
    vertex 0.0 24.0 3.0
  endloop
endfacet
endsolid Support
